<svg xmlns="http://www.w3.org/2000/svg" xmlns:xlink="http://www.w3.org/1999/xlink" viewBox="0 0 1200 770"><defs><style>.cls-1{fill:url(#linear-gradient);}.cls-2{fill:#4f4763;}.cls-3{fill:#2e2546;}.cls-4{fill:#4588a7;}.cls-5{fill:#fff;}.cls-6{fill:#39b54a;}.cls-7{fill:#999;}.cls-8{fill:#f15a24;}</style><linearGradient id="linear-gradient" x1="1086.93" y1="872.21" x2="113.05" y2="-101.67" gradientUnits="userSpaceOnUse"><stop offset="0" stop-color="#18377a"/><stop offset="0.13" stop-color="#182d61"/><stop offset="0.28" stop-color="#17244c"/><stop offset="0.45" stop-color="#171e3e"/><stop offset="0.66" stop-color="#171b36"/><stop offset="1" stop-color="#171a33"/></linearGradient></defs><g id="background"><rect class="cls-1" x="0.98" y="1" width="1198.02" height="768.54" rx="16"/></g><g id="Layer_1" data-name="Layer 1"><rect class="cls-2" x="161.87" y="688.35" width="840.13" height="1"/><rect class="cls-2" x="161.87" y="595.77" width="840.13" height="1"/><rect class="cls-2" x="161.87" y="503.19" width="840.13" height="1"/><rect class="cls-2" x="161.87" y="410.62" width="840.13" height="1"/><rect class="cls-2" x="161.87" y="318.04" width="840.13" height="1"/><rect class="cls-2" x="161.87" y="225.46" width="840.13" height="1"/><rect class="cls-2" x="161.87" y="271.75" width="840.13" height="1"/><rect class="cls-2" x="161.87" y="364.33" width="840.13" height="1"/><rect class="cls-2" x="161.87" y="456.91" width="840.13" height="1"/><rect class="cls-2" x="161.87" y="549.48" width="840.13" height="1"/><rect class="cls-2" x="161.87" y="642.06" width="840.13" height="1"/><rect class="cls-3" x="958" y="472.89" width="20" height="75.88" rx="2"/><rect class="cls-3" x="968" y="441.27" width="1" height="139.12"/><rect class="cls-3" x="925" y="460.24" width="20" height="75.88" rx="2"/><rect class="cls-3" x="935" y="428.62" width="1" height="139.12"/><rect class="cls-3" x="892" y="423.2" width="20" height="65.04" rx="2"/><rect class="cls-3" x="902" y="396.1" width="1" height="119.24"/><rect class="cls-3" x="859" y="458.74" width="20" height="85.87" rx="2"/><rect class="cls-3" x="869" y="422.96" width="1" height="157.43"/><rect class="cls-3" x="826" y="414.53" width="20" height="65.04" rx="2"/><rect class="cls-3" x="836" y="387.43" width="1" height="119.24"/><rect class="cls-3" x="793" y="388.51" width="20" height="65.04" rx="2"/><rect class="cls-3" x="803" y="361.41" width="1" height="119.24"/><rect class="cls-3" x="760" y="361.42" width="20" height="85.87" rx="2"/><rect class="cls-3" x="770" y="325.64" width="1" height="157.43"/><rect class="cls-3" x="727" y="378.76" width="20" height="65.04" rx="2"/><rect class="cls-3" x="737" y="351.66" width="1" height="119.24"/><rect class="cls-3" x="694" y="438.38" width="20" height="65.04" rx="2"/><rect class="cls-3" x="704" y="411.28" width="1" height="119.24"/><rect class="cls-3" x="661" y="421.03" width="20" height="65.04" rx="2"/><rect class="cls-3" x="671" y="393.93" width="1" height="119.24"/><rect class="cls-3" x="628" y="433.59" width="20" height="77.69" rx="2"/><rect class="cls-3" x="638" y="401.22" width="1" height="142.43"/><rect class="cls-3" x="595" y="358.16" width="20" height="65.04" rx="2"/><rect class="cls-3" x="605" y="331.06" width="1" height="119.24"/><rect class="cls-3" x="562" y="325.64" width="20" height="65.04" rx="2"/><rect class="cls-3" x="572" y="298.54" width="1" height="119.24"/><rect class="cls-3" x="529" y="294.3" width="20" height="130.31" rx="2"/><rect class="cls-3" x="539" y="240" width="1" height="238.91"/><rect class="cls-3" x="496" y="358.16" width="20" height="65.04" rx="2"/><rect class="cls-3" x="506" y="331.06" width="1" height="119.24"/><rect class="cls-3" x="463" y="401.52" width="20" height="65.04" rx="2"/><rect class="cls-3" x="473" y="374.42" width="1" height="119.24"/><rect class="cls-3" x="430" y="360.13" width="20" height="147.82" rx="2"/><rect class="cls-3" x="440" y="298.54" width="1" height="271.01"/><rect class="cls-3" x="397" y="434.04" width="20" height="65.04" rx="2"/><rect class="cls-3" x="407" y="406.94" width="1" height="119.24"/><rect class="cls-3" x="364" y="401.52" width="20" height="65.04" rx="2"/><rect class="cls-3" x="374" y="374.42" width="1" height="119.24"/><rect class="cls-3" x="331" y="477.4" width="20" height="65.04" rx="2"/><rect class="cls-3" x="341" y="450.3" width="1" height="119.24"/><rect class="cls-3" x="298" y="309.38" width="20" height="156.1" rx="2"/><rect class="cls-3" x="308" y="244.34" width="1" height="286.19"/><rect class="cls-3" x="265" y="390.68" width="20" height="65.04" rx="2"/><rect class="cls-3" x="275" y="363.58" width="1" height="119.24"/><rect class="cls-3" x="232" y="368.01" width="20" height="88.69" rx="2"/><rect class="cls-3" x="242" y="331.06" width="1" height="162.61"/><rect class="cls-3" x="199" y="434.04" width="20" height="65.04" rx="2"/><rect class="cls-3" x="209" y="406.94" width="1" height="119.24"/><rect class="cls-3" x="166" y="488.24" width="20" height="65.04" rx="2"/><rect class="cls-3" x="176" y="461.14" width="1" height="119.24"/><path class="cls-4" d="M73.23,39c0-2.44,1.42-3.86,4.74-3.86a15.08,15.08,0,0,1,3.62.44l-.28,2.18a19.64,19.64,0,0,0-3.26-.34c-1.74,0-2.3.6-2.3,2v5.12c0,1.42.56,2,2.3,2a19.64,19.64,0,0,0,3.26-.34l.28,2.18a15.08,15.08,0,0,1-3.62.44c-3.32,0-4.74-1.42-4.74-3.86Z"/><path class="cls-4" d="M88.91,40.91a19.1,19.1,0,0,0-2.58,1.42v6.28H83.89V38.87H86L86.11,40a10.91,10.91,0,0,1,2.56-1.28Z"/><path class="cls-4" d="M96.19,48.61l-1.3,3.94H92.57l1.22-3.94h-.86l-3.08-9.74h2.5l2.22,7.4,2.24-7.4h2.5Z"/><path class="cls-4" d="M109,45.37c0,2.16-1,3.44-3.22,3.44a13.45,13.45,0,0,1-2.6-.28v4l-2.44.34v-14h1.94l.24.82a5.13,5.13,0,0,1,3.08-1c2,0,3,1.16,3,3.38Zm-5.82,1.1a10.82,10.82,0,0,0,2.16.26c.88,0,1.22-.42,1.22-1.3V42c0-.8-.3-1.24-1.2-1.24a3.45,3.45,0,0,0-2.18.88Z"/><path class="cls-4" d="M116.55,48.43a6.77,6.77,0,0,1-2.14.38c-1.78,0-2.68-.84-2.68-2.58V40.81h-1.46V38.87h1.46V36.45l2.44-.34v2.76h2.5l-.16,1.94h-2.34v5.1a.77.77,0,0,0,.88.86,4.7,4.7,0,0,0,1.22-.2Z"/><path class="cls-4" d="M122.27,48.81C118.93,48.81,118,47,118,45V42.51c0-2,.9-3.84,4.24-3.84s4.24,1.84,4.24,3.84V45C126.51,47,125.61,48.81,122.27,48.81Zm0-8.06c-1.3,0-1.8.58-1.8,1.68v2.62c0,1.1.5,1.68,1.8,1.68s1.8-.58,1.8-1.68V42.43C124.07,41.33,123.57,40.75,122.27,40.75Z"/><path class="cls-4" d="M131.69,37.51H128V35.29h10v2.22h-3.72v11.1h-2.52Z"/><path class="cls-4" d="M143.15,40.91a19.1,19.1,0,0,0-2.58,1.42v6.28h-2.44V38.87h2.06l.16,1.08a10.91,10.91,0,0,1,2.56-1.28Z"/><path class="cls-4" d="M152,48.61h-2l-.18-.66a5.33,5.33,0,0,1-2.9.86c-1.78,0-2.54-1.22-2.54-2.9,0-2,.86-2.74,2.84-2.74h2.34v-1c0-1.08-.3-1.46-1.86-1.46a13.62,13.62,0,0,0-2.7.3l-.3-1.86a12.71,12.71,0,0,1,3.34-.46c3.06,0,4,1.08,4,3.52Zm-2.44-3.68h-1.8c-.8,0-1,.22-1,1s.22,1,1,1a3.84,3.84,0,0,0,1.84-.5Z"/><path class="cls-4" d="M154.55,48.61V34.89l2.44-.34V48.61Zm8.28-9.74L160,43.69l3,4.92h-2.68l-2.94-4.92,2.78-4.82Z"/><path class="cls-4" d="M34.56,57.5c-5.54,0-10.06-7-10.06-15.67S29,26.16,34.56,26.16s10.07,7,10.07,15.67S40.11,57.5,34.56,57.5Zm0-30.34c-5,0-9.06,6.58-9.06,14.67S29.57,56.5,34.56,56.5s9.07-6.58,9.07-14.67S39.56,27.16,34.56,27.16Z"/><path class="cls-4" d="M40.94,57.5c-5.55,0-10.06-7-10.06-15.67s4.51-15.67,10.06-15.67S51,33.19,51,41.83,46.49,57.5,40.94,57.5Zm0-30.34c-5,0-9.06,6.58-9.06,14.67S35.94,56.5,40.94,56.5,50,49.92,50,41.83,45.94,27.16,40.94,27.16Z"/><path class="cls-4" d="M47.32,57.5c-5.55,0-10.07-7-10.07-15.67s4.52-15.67,10.07-15.67,10.06,7,10.06,15.67S52.87,57.5,47.32,57.5Zm0-30.34c-5,0-9.07,6.58-9.07,14.67S42.32,56.5,47.32,56.5s9.06-6.58,9.06-14.67S52.32,27.16,47.32,27.16Z"/><path class="cls-5" d="M1018.59,697.7v-2.13a11.83,11.83,0,0,1-3.25-.67l.22-1.39a13.92,13.92,0,0,0,3.67.57c2.17,0,2.43-.51,2.43-2.09s-.1-1.78-2.62-2.58c-3.07-1-3.48-1.56-3.48-3.93s.8-3.36,3.46-3.5v-2.13h1.52V682a12.67,12.67,0,0,1,2.64.35l-.16,1.45a22.23,22.23,0,0,0-3.32-.33c-1.89,0-2.42.27-2.42,2,0,1.47.19,1.74,2.34,2.44,3.35,1.08,3.76,1.59,3.76,4s-.82,3.38-3.27,3.58v2.15Z"/><path class="cls-5" d="M1034.58,692.05c0,2.05-1,3.54-4.21,3.54s-4.22-1.49-4.22-3.54V685.5c0-2,1-3.54,4.22-3.54s4.21,1.49,4.21,3.54Zm-4.21-8.58c-1.89,0-2.5.72-2.5,2.21v6.19c0,1.49.61,2.21,2.5,2.21s2.49-.72,2.49-2.21v-6.19C1032.86,684.19,1032.25,683.47,1030.37,683.47Z"/><path class="cls-5" d="M1018.59,606v-2.13a11.85,11.85,0,0,1-3.25-.68l.22-1.39a13.52,13.52,0,0,0,3.67.57c2.17,0,2.43-.51,2.43-2.09s-.1-1.78-2.62-2.58c-3.07-1-3.48-1.55-3.48-3.93s.8-3.36,3.46-3.5v-2.13h1.52v2.15a12.67,12.67,0,0,1,2.64.35l-.16,1.45a22.23,22.23,0,0,0-3.32-.33c-1.89,0-2.42.27-2.42,2.05,0,1.48.19,1.74,2.34,2.44,3.35,1.08,3.76,1.6,3.76,4s-.82,3.38-3.27,3.59V606Z"/><path class="cls-5" d="M1026.41,590.47h7V592h-5.25v4.2c.86,0,1.27,0,2.19.06,2.44.1,3.22,1.29,3.22,3.07v1.19c0,2.17-.94,3.4-4.2,3.4a12.13,12.13,0,0,1-3.44-.47l.19-1.4a14.45,14.45,0,0,0,3.23.35c2,0,2.5-.53,2.5-2v-.91c0-1.22-.41-1.74-2.11-1.78-1.37,0-2.27,0-3.3-.06Z"/><path class="cls-5" d="M1036.57,601.35h1.76v2.35l-1.23,2.46-.8-.39.86-2.07h-.59Z"/><path class="cls-5" d="M1049.94,600.36c0,2-1,3.55-4.22,3.55s-4.22-1.5-4.22-3.55v-6.55c0-2,1-3.54,4.22-3.54s4.22,1.49,4.22,3.54Zm-4.22-8.58c-1.88,0-2.5.72-2.5,2.22v6.18c0,1.49.62,2.21,2.5,2.21s2.5-.72,2.5-2.21V594C1048.22,592.5,1047.6,591.78,1045.72,591.78Z"/><path class="cls-5" d="M1061.24,600.36c0,2-1,3.55-4.22,3.55s-4.22-1.5-4.22-3.55v-6.55c0-2,1-3.54,4.22-3.54s4.22,1.49,4.22,3.54Zm-4.22-8.58c-1.88,0-2.5.72-2.5,2.22v6.18c0,1.49.62,2.21,2.5,2.21s2.5-.72,2.5-2.21V594C1059.52,592.5,1058.91,591.78,1057,591.78Z"/><path class="cls-5" d="M1072.54,600.36c0,2-1,3.55-4.22,3.55s-4.22-1.5-4.22-3.55v-6.55c0-2,1.05-3.54,4.22-3.54s4.22,1.49,4.22,3.54Zm-4.22-8.58c-1.88,0-2.5.72-2.5,2.22v6.18c0,1.49.62,2.21,2.5,2.21s2.5-.72,2.5-2.21V594C1070.82,592.5,1070.21,591.78,1068.32,591.78Z"/><path class="cls-5" d="M1075.71,601.35h1.76v2.35h-1.76Z"/><path class="cls-5" d="M1089.08,600.36c0,2-1,3.55-4.21,3.55s-4.22-1.5-4.22-3.55v-6.55c0-2,1-3.54,4.22-3.54s4.21,1.49,4.21,3.54Zm-4.21-8.58c-1.89,0-2.5.72-2.5,2.22v6.18c0,1.49.61,2.21,2.5,2.21s2.49-.72,2.49-2.21V594C1087.36,592.5,1086.75,591.78,1084.87,591.78Z"/><path class="cls-5" d="M1100.38,600.36c0,2-1,3.55-4.21,3.55s-4.22-1.5-4.22-3.55v-6.55c0-2,1-3.54,4.22-3.54s4.21,1.49,4.21,3.54Zm-4.21-8.58c-1.89,0-2.5.72-2.5,2.22v6.18c0,1.49.61,2.21,2.5,2.21s2.5-.72,2.5-2.21V594C1098.67,592.5,1098.05,591.78,1096.17,591.78Z"/><path class="cls-5" d="M1018.59,511.66v-2.13a11.85,11.85,0,0,1-3.25-.68l.22-1.39a13.52,13.52,0,0,0,3.67.57c2.17,0,2.43-.51,2.43-2.09s-.1-1.78-2.62-2.58c-3.07-1-3.48-1.55-3.48-3.93s.8-3.36,3.46-3.5V493.8h1.52V496a12.67,12.67,0,0,1,2.64.35l-.16,1.45a22.24,22.24,0,0,0-3.32-.32c-1.89,0-2.42.26-2.42,2,0,1.48.19,1.74,2.34,2.44,3.35,1.09,3.76,1.6,3.76,4s-.82,3.38-3.27,3.59v2.15Z"/><path class="cls-5" d="M1026,499.56l-.75-1.38,3.58-2.06h1.53v13.22h-1.72V498.08Z"/><path class="cls-5" d="M1042.06,506c0,2-1,3.54-4.22,3.54s-4.22-1.5-4.22-3.54v-6.56c0-2,1-3.54,4.22-3.54s4.22,1.5,4.22,3.54Zm-4.22-8.58c-1.89,0-2.5.71-2.5,2.21v6.18c0,1.5.61,2.21,2.5,2.21s2.5-.71,2.5-2.21v-6.18C1040.34,498.14,1039.72,497.43,1037.84,497.43Z"/><path class="cls-5" d="M1045.19,507H1047v2.35l-1.23,2.46-.8-.39.86-2.07h-.59Z"/><path class="cls-5" d="M1058.56,506c0,2-1,3.54-4.22,3.54s-4.22-1.5-4.22-3.54v-6.56c0-2,1.05-3.54,4.22-3.54s4.22,1.5,4.22,3.54Zm-4.22-8.58c-1.88,0-2.5.71-2.5,2.21v6.18c0,1.5.62,2.21,2.5,2.21s2.5-.71,2.5-2.21v-6.18C1056.84,498.14,1056.22,497.43,1054.34,497.43Z"/><path class="cls-5" d="M1069.86,506c0,2-1,3.54-4.22,3.54s-4.22-1.5-4.22-3.54v-6.56c0-2,1-3.54,4.22-3.54s4.22,1.5,4.22,3.54Zm-4.22-8.58c-1.88,0-2.5.71-2.5,2.21v6.18c0,1.5.62,2.21,2.5,2.21s2.5-.71,2.5-2.21v-6.18C1068.14,498.14,1067.52,497.43,1065.64,497.43Z"/><path class="cls-5" d="M1081.16,506c0,2-1,3.54-4.22,3.54s-4.22-1.5-4.22-3.54v-6.56c0-2,1-3.54,4.22-3.54s4.22,1.5,4.22,3.54Zm-4.22-8.58c-1.88,0-2.5.71-2.5,2.21v6.18c0,1.5.62,2.21,2.5,2.21s2.5-.71,2.5-2.21v-6.18C1079.44,498.14,1078.83,497.43,1076.94,497.43Z"/><path class="cls-5" d="M1084.33,507h1.76v2.35h-1.76Z"/><path class="cls-5" d="M1097.7,506c0,2-1,3.54-4.22,3.54s-4.21-1.5-4.21-3.54v-6.56c0-2,1-3.54,4.21-3.54s4.22,1.5,4.22,3.54Zm-4.22-8.58c-1.88,0-2.49.71-2.49,2.21v6.18c0,1.5.61,2.21,2.49,2.21s2.5-.71,2.5-2.21v-6.18C1096,498.14,1095.37,497.43,1093.48,497.43Z"/><path class="cls-5" d="M1109,506c0,2-1,3.54-4.21,3.54s-4.22-1.5-4.22-3.54v-6.56c0-2,1-3.54,4.22-3.54s4.21,1.5,4.21,3.54Zm-4.21-8.58c-1.89,0-2.5.71-2.5,2.21v6.18c0,1.5.61,2.21,2.5,2.21s2.49-.71,2.49-2.21v-6.18C1107.28,498.14,1106.67,497.43,1104.79,497.43Z"/><path class="cls-5" d="M1018.59,418.19v-2.13a11.85,11.85,0,0,1-3.25-.68l.22-1.39a13.55,13.55,0,0,0,3.67.58c2.17,0,2.43-.52,2.43-2.09s-.1-1.78-2.62-2.58c-3.07-1-3.48-1.56-3.48-3.94s.8-3.35,3.46-3.5v-2.13h1.52v2.15a13.37,13.37,0,0,1,2.64.35l-.16,1.46a21,21,0,0,0-3.32-.33c-1.89,0-2.42.26-2.42,2.05,0,1.47.19,1.74,2.34,2.43,3.35,1.09,3.76,1.6,3.76,4s-.82,3.37-3.27,3.58v2.15Z"/><path class="cls-5" d="M1026,406.09l-.75-1.37,3.58-2.07h1.53v13.23h-1.72V404.61Z"/><path class="cls-5" d="M1033.89,402.65h7v1.51h-5.24v4.2c.86,0,1.27,0,2.19.06,2.43.1,3.21,1.29,3.21,3.07v1.19c0,2.17-.94,3.4-4.2,3.4a11.79,11.79,0,0,1-3.44-.47l.19-1.39a15.06,15.06,0,0,0,3.23.35c2,0,2.5-.54,2.5-2v-.9c0-1.23-.41-1.74-2.11-1.78-1.37,0-2.27,0-3.29-.07Z"/><path class="cls-5" d="M1044,413.52h1.76v2.36l-1.23,2.45-.8-.39.86-2.06H1044Z"/><path class="cls-5" d="M1057.41,412.54c0,2-1,3.54-4.22,3.54s-4.22-1.49-4.22-3.54V406c0-2.05,1-3.55,4.22-3.55s4.22,1.5,4.22,3.55Zm-4.22-8.58c-1.88,0-2.5.71-2.5,2.21v6.18c0,1.5.62,2.22,2.5,2.22s2.5-.72,2.5-2.22v-6.18C1055.69,404.67,1055.08,404,1053.19,404Z"/><path class="cls-5" d="M1068.71,412.54c0,2-1,3.54-4.22,3.54s-4.21-1.49-4.21-3.54V406c0-2.05,1-3.55,4.21-3.55s4.22,1.5,4.22,3.55Zm-4.22-8.58c-1.88,0-2.49.71-2.49,2.21v6.18c0,1.5.61,2.22,2.49,2.22s2.5-.72,2.5-2.22v-6.18C1067,404.67,1066.38,404,1064.49,404Z"/><path class="cls-5" d="M1080,412.54c0,2-1,3.54-4.21,3.54s-4.22-1.49-4.22-3.54V406c0-2.05,1-3.55,4.22-3.55s4.21,1.5,4.21,3.55ZM1075.8,404c-1.89,0-2.5.71-2.5,2.21v6.18c0,1.5.61,2.22,2.5,2.22s2.49-.72,2.49-2.22v-6.18C1078.29,404.67,1077.68,404,1075.8,404Z"/><path class="cls-5" d="M1083.19,413.52H1085v2.36h-1.76Z"/><path class="cls-5" d="M1096.56,412.54c0,2-1,3.54-4.22,3.54s-4.22-1.49-4.22-3.54V406c0-2.05,1-3.55,4.22-3.55s4.22,1.5,4.22,3.55Zm-4.22-8.58c-1.89,0-2.5.71-2.5,2.21v6.18c0,1.5.61,2.22,2.5,2.22s2.5-.72,2.5-2.22v-6.18C1094.84,404.67,1094.22,404,1092.34,404Z"/><path class="cls-5" d="M1107.86,412.54c0,2-1,3.54-4.22,3.54s-4.22-1.49-4.22-3.54V406c0-2.05,1-3.55,4.22-3.55s4.22,1.5,4.22,3.55Zm-4.22-8.58c-1.88,0-2.5.71-2.5,2.21v6.18c0,1.5.62,2.22,2.5,2.22s2.5-.72,2.5-2.22v-6.18C1106.14,404.67,1105.52,404,1103.64,404Z"/><path class="cls-5" d="M1018.59,325.61v-2.13a11.83,11.83,0,0,1-3.25-.67l.22-1.39a13.92,13.92,0,0,0,3.67.57c2.17,0,2.43-.51,2.43-2.09s-.1-1.78-2.62-2.58c-3.07-1-3.48-1.56-3.48-3.93s.8-3.36,3.46-3.5v-2.13h1.52v2.15a13.39,13.39,0,0,1,2.64.34l-.16,1.46a21,21,0,0,0-3.32-.33c-1.89,0-2.42.27-2.42,2.05,0,1.47.19,1.74,2.34,2.44,3.35,1.08,3.76,1.59,3.76,4s-.82,3.38-3.27,3.58v2.15Z"/><path class="cls-5" d="M1025.74,321.72c1.51-1.72,1.9-2.17,3.52-4.07,2.09-2.48,2.23-3,2.23-4v-.59c0-1.29-.35-1.68-2.41-1.68a12.85,12.85,0,0,0-3,.45l-.24-1.47a12.76,12.76,0,0,1,3.42-.51c3.15,0,4,1.1,4,3.19v.45c0,1.62-.29,2.31-2.33,4.75-1.48,1.76-1.68,2-3,3.52h5.46v1.52h-7.59Z"/><path class="cls-5" d="M1044.53,320c0,2.05-1,3.54-4.21,3.54s-4.22-1.49-4.22-3.54v-6.55c0-2.05,1-3.54,4.22-3.54s4.21,1.49,4.21,3.54Zm-4.21-8.58c-1.89,0-2.5.72-2.5,2.21v6.19c0,1.49.61,2.21,2.5,2.21s2.49-.72,2.49-2.21v-6.19C1042.81,312.1,1042.2,311.38,1040.32,311.38Z"/><path class="cls-5" d="M1047.66,320.94h1.77v2.36l-1.23,2.46-.8-.39.86-2.07h-.6Z"/><path class="cls-5" d="M1061,320c0,2.05-1,3.54-4.22,3.54s-4.22-1.49-4.22-3.54v-6.55c0-2.05,1-3.54,4.22-3.54s4.22,1.49,4.22,3.54Zm-4.22-8.58c-1.89,0-2.5.72-2.5,2.21v6.19c0,1.49.61,2.21,2.5,2.21s2.49-.72,2.49-2.21v-6.19C1059.31,312.1,1058.7,311.38,1056.82,311.38Z"/><path class="cls-5" d="M1072.34,320c0,2.05-1,3.54-4.22,3.54s-4.22-1.49-4.22-3.54v-6.55c0-2.05,1-3.54,4.22-3.54s4.22,1.49,4.22,3.54Zm-4.22-8.58c-1.89,0-2.5.72-2.5,2.21v6.19c0,1.49.61,2.21,2.5,2.21s2.5-.72,2.5-2.21v-6.19C1070.62,312.1,1070,311.38,1068.12,311.38Z"/><path class="cls-5" d="M1083.64,320c0,2.05-1.05,3.54-4.22,3.54s-4.22-1.49-4.22-3.54v-6.55c0-2.05,1-3.54,4.22-3.54s4.22,1.49,4.22,3.54Zm-4.22-8.58c-1.88,0-2.5.72-2.5,2.21v6.19c0,1.49.62,2.21,2.5,2.21s2.5-.72,2.5-2.21v-6.19C1081.92,312.1,1081.3,311.38,1079.42,311.38Z"/><path class="cls-5" d="M1086.81,320.94h1.76v2.36h-1.76Z"/><path class="cls-5" d="M1100.18,320c0,2.05-1,3.54-4.22,3.54s-4.22-1.49-4.22-3.54v-6.55c0-2.05,1-3.54,4.22-3.54s4.22,1.49,4.22,3.54Zm-4.22-8.58c-1.88,0-2.5.72-2.5,2.21v6.19c0,1.49.62,2.21,2.5,2.21s2.5-.72,2.5-2.21v-6.19C1098.46,312.1,1097.85,311.38,1096,311.38Z"/><path class="cls-5" d="M1111.48,320c0,2.05-1,3.54-4.22,3.54S1103,322,1103,320v-6.55c0-2.05,1-3.54,4.22-3.54s4.22,1.49,4.22,3.54Zm-4.22-8.58c-1.88,0-2.5.72-2.5,2.21v6.19c0,1.49.62,2.21,2.5,2.21s2.5-.72,2.5-2.21v-6.19C1109.76,312.1,1109.15,311.38,1107.26,311.38Z"/><path class="cls-5" d="M1018.59,233v-2.12a12.23,12.23,0,0,1-3.25-.68l.22-1.39a13.52,13.52,0,0,0,3.67.57c2.17,0,2.43-.51,2.43-2.09s-.1-1.78-2.62-2.58c-3.07-1-3.48-1.55-3.48-3.93s.8-3.36,3.46-3.5v-2.13h1.52v2.15a12.67,12.67,0,0,1,2.64.35l-.16,1.45a22.23,22.23,0,0,0-3.32-.33c-1.89,0-2.42.27-2.42,2,0,1.48.19,1.74,2.34,2.44,3.35,1.08,3.76,1.59,3.76,4s-.82,3.38-3.27,3.58V233Z"/><path class="cls-5" d="M1025.74,229.14c1.51-1.72,1.9-2.17,3.52-4.07,2.09-2.48,2.23-3,2.23-4v-.6c0-1.29-.35-1.68-2.41-1.68a12.85,12.85,0,0,0-3,.45l-.24-1.47a12.76,12.76,0,0,1,3.42-.51c3.15,0,4,1.1,4,3.19v.45c0,1.62-.29,2.32-2.33,4.75-1.48,1.76-1.68,2-3,3.53h5.46v1.51h-7.59Z"/><path class="cls-5" d="M1036.36,217.49h7V219h-5.25v4.2c.86,0,1.27,0,2.19.06,2.44.1,3.22,1.29,3.22,3.07v1.19c0,2.17-.94,3.4-4.2,3.4a11.8,11.8,0,0,1-3.44-.48l.19-1.39a14.45,14.45,0,0,0,3.23.35c2,0,2.5-.53,2.5-2v-.9c0-1.23-.41-1.74-2.11-1.78-1.37,0-2.27,0-3.3-.06Z"/><path class="cls-5" d="M1046.52,228.37h1.76v2.35l-1.23,2.46-.8-.39.86-2.07h-.59Z"/><path class="cls-5" d="M1059.89,227.38c0,2.05-1.05,3.55-4.22,3.55s-4.22-1.5-4.22-3.55v-6.55c0-2.05,1-3.54,4.22-3.54s4.22,1.49,4.22,3.54Zm-4.22-8.58c-1.88,0-2.5.72-2.5,2.21v6.19c0,1.49.62,2.21,2.5,2.21s2.5-.72,2.5-2.21V221C1058.17,219.52,1057.55,218.8,1055.67,218.8Z"/><path class="cls-5" d="M1071.19,227.38c0,2.05-1,3.55-4.22,3.55s-4.22-1.5-4.22-3.55v-6.55c0-2.05,1-3.54,4.22-3.54s4.22,1.49,4.22,3.54ZM1067,218.8c-1.88,0-2.5.72-2.5,2.21v6.19c0,1.49.62,2.21,2.5,2.21s2.5-.72,2.5-2.21V221C1069.47,219.52,1068.86,218.8,1067,218.8Z"/><path class="cls-5" d="M1082.49,227.38c0,2.05-1,3.55-4.22,3.55s-4.22-1.5-4.22-3.55v-6.55c0-2.05,1-3.54,4.22-3.54s4.22,1.49,4.22,3.54Zm-4.22-8.58c-1.88,0-2.5.72-2.5,2.21v6.19c0,1.49.62,2.21,2.5,2.21s2.5-.72,2.5-2.21V221C1080.77,219.52,1080.16,218.8,1078.27,218.8Z"/><path class="cls-5" d="M1085.66,228.37h1.76v2.35h-1.76Z"/><path class="cls-5" d="M1099,227.38c0,2.05-1,3.55-4.21,3.55s-4.22-1.5-4.22-3.55v-6.55c0-2.05,1-3.54,4.22-3.54s4.21,1.49,4.21,3.54Zm-4.21-8.58c-1.89,0-2.5.72-2.5,2.21v6.19c0,1.49.61,2.21,2.5,2.21s2.49-.72,2.49-2.21V221C1097.31,219.52,1096.7,218.8,1094.82,218.8Z"/><path class="cls-5" d="M1110.33,227.38c0,2.05-1,3.55-4.21,3.55s-4.22-1.5-4.22-3.55v-6.55c0-2.05,1-3.54,4.22-3.54s4.21,1.49,4.21,3.54Zm-4.21-8.58c-1.89,0-2.5.72-2.5,2.21v6.19c0,1.49.61,2.21,2.5,2.21s2.5-.72,2.5-2.21V221C1108.62,219.52,1108,218.8,1106.12,218.8Z"/><path class="cls-6" d="M985.25,159.75a27.92,27.92,0,0,1,0-33.89l3.33,1.93c-3,4.88-4.51,9-4.51,15s1.52,10.14,4.51,15Z"/><path class="cls-6" d="M990.43,143.29h5.7v-5.74h3.7v5.74h5.7v3.55h-5.7v5.74h-3.7v-5.74h-5.7Z"/><path class="cls-6" d="M1010,137.63l-1.89-3.55,6.81-3.93H1019v23.91h-4.52V135.15Z"/><path class="cls-6" d="M1024.73,148.88h4.59v5.18h-4.59Z"/><path class="cls-6" d="M1035.05,130.15h13.18v3.93h-8.66V140c1.33,0,1.92.08,3.33.15,4.33.22,5.73,2.41,5.73,5.66v2.26c0,3.88-1.4,6.33-8,6.33a23,23,0,0,1-6.3-.89l.56-3.7a26.89,26.89,0,0,0,5.66.63c3.37,0,3.59-.82,3.59-2.78v-1.18c0-1.74-.55-2.48-3.18-2.59s-3.92-.15-5.89-.19Z"/><path class="cls-6" d="M1052.63,150.17c2.81-3.07,3.18-3.44,5.74-6.4,3.47-4,4-4.63,4-7v-.63c0-1.81-.74-2.33-3.44-2.33a30.21,30.21,0,0,0-5.81.74l-.63-3.77a24.13,24.13,0,0,1,6.7-1c5.69,0,7.69,2,7.69,5.81v.85c0,3.41-.29,4.18-3.73,8.4-2.08,2.56-3,3.59-4.41,5.26H1067v4h-14.36Z"/><path class="cls-6" d="M1076.83,142.51c-4.44,0-5.77-2.18-5.77-5.25v-3c0-3.07,1.33-5.26,5.77-5.26s5.77,2.19,5.77,5.26v3C1082.6,140.33,1081.27,142.51,1076.83,142.51Zm0-10.4c-1.7,0-2.22.6-2.22,1.93v3.48c0,1.33.52,1.92,2.22,1.92s2.22-.59,2.22-1.92V134C1079.05,132.71,1078.53,132.11,1076.83,132.11Zm4.88,22.32-2.85-1.15,10-24.24,2.85,1.15Zm12.14,0c-4.44,0-5.77-2.19-5.77-5.26v-3c0-3.07,1.33-5.25,5.77-5.25s5.77,2.18,5.77,5.25v3C1099.62,152.24,1098.29,154.43,1093.85,154.43Zm0-10.4c-1.7,0-2.22.59-2.22,1.92v3.48c0,1.33.52,1.93,2.22,1.93s2.22-.6,2.22-1.93V146C1096.07,144.62,1095.55,144,1093.85,144Z"/><path class="cls-6" d="M1101.47,157.83c3-4.88,4.51-9,4.51-15s-1.51-10.14-4.51-15l3.33-1.93a27.88,27.88,0,0,1,0,33.89Z"/><path class="cls-7" d="M1164.5,62.5h-361A10.51,10.51,0,0,1,793,52V32a10.51,10.51,0,0,1,10.5-10.5h361A10.51,10.51,0,0,1,1175,32V52A10.51,10.51,0,0,1,1164.5,62.5Zm-361-40A9.51,9.51,0,0,0,794,32V52a9.51,9.51,0,0,0,9.5,9.5h361A9.51,9.51,0,0,0,1174,52V32a9.51,9.51,0,0,0-9.5-9.5Z"/><path class="cls-5" d="M817.1,46.35a5.11,5.11,0,1,1,5.1-5.1A5.11,5.11,0,0,1,817.1,46.35Zm0-9.21a4.11,4.11,0,1,0,4.1,4.11A4.11,4.11,0,0,0,817.1,37.14Z"/><rect class="cls-5" x="822.57" y="43.15" width="1" height="6.75" transform="translate(208.14 595.59) rotate(-45)"/><rect class="cls-6" x="947" y="131.25" width="3" height="23.75"/><polygon class="cls-6" points="936.23 142.69 938.43 144.74 948.5 133.91 958.57 144.74 960.77 142.69 948.5 129.5 936.23 142.69"/><rect class="cls-6" x="958" y="284.17" width="20" height="70" rx="2"/><rect class="cls-6" x="968" y="255" width="1" height="128.33"/><rect class="cls-8" x="925" y="295.83" width="20" height="70" rx="2"/><rect class="cls-8" x="935" y="266.67" width="1" height="128.33"/><rect class="cls-6" x="892" y="340" width="20" height="60" rx="2"/><rect class="cls-6" x="902" y="315" width="1" height="110"/><rect class="cls-6" x="859" y="288.01" width="20" height="79.21" rx="2"/><rect class="cls-6" x="869" y="255" width="1" height="145.22"/><rect class="cls-8" x="826" y="348" width="20" height="60" rx="2"/><rect class="cls-8" x="836" y="323" width="1" height="110"/><rect class="cls-6" x="793" y="372" width="20" height="60" rx="2"/><rect class="cls-6" x="803" y="347" width="1" height="110"/><rect class="cls-6" x="760" y="377.78" width="20" height="79.21" rx="2"/><rect class="cls-6" x="770" y="344.78" width="1" height="145.22"/><rect class="cls-6" x="727" y="381" width="20" height="60" rx="2"/><rect class="cls-6" x="737" y="356" width="1" height="110"/><rect class="cls-8" x="694" y="326" width="20" height="60" rx="2"/><rect class="cls-8" x="704" y="301" width="1" height="110"/><rect class="cls-6" x="661" y="342" width="20" height="60" rx="2"/><rect class="cls-6" x="671" y="317" width="1" height="110"/><rect class="cls-6" x="628" y="318.75" width="20" height="71.67" rx="2"/><rect class="cls-6" x="638" y="288.89" width="1" height="131.39"/><rect class="cls-6" x="595" y="400" width="20" height="60" rx="2"/><rect class="cls-6" x="605" y="375" width="1" height="110"/><rect class="cls-6" x="562" y="430" width="20" height="60" rx="2"/><rect class="cls-6" x="572" y="405" width="1" height="110"/><rect class="cls-8" x="529" y="398.7" width="20" height="120.21" rx="2"/><rect class="cls-8" x="539" y="348.61" width="1" height="220.39"/><rect class="cls-6" x="496" y="400" width="20" height="60" rx="2"/><rect class="cls-6" x="506" y="375" width="1" height="110"/><rect class="cls-6" x="463" y="360" width="20" height="60" rx="2"/><rect class="cls-6" x="473" y="335" width="1" height="110"/><rect class="cls-8" x="430" y="321.82" width="20" height="136.36" rx="2"/><rect class="cls-8" x="440" y="265" width="1" height="250"/><rect class="cls-6" x="397" y="330" width="20" height="60" rx="2"/><rect class="cls-6" x="407" y="305" width="1" height="110"/><rect class="cls-6" x="364" y="360" width="20" height="60" rx="2"/><rect class="cls-6" x="374" y="335" width="1" height="110"/><rect class="cls-6" x="331" y="290" width="20" height="60" rx="2"/><rect class="cls-6" x="341" y="265" width="1" height="110"/><rect class="cls-8" x="298" y="361" width="20" height="144" rx="2"/><rect class="cls-8" x="308" y="301" width="1" height="264"/><rect class="cls-6" x="265" y="370" width="20" height="60" rx="2"/><rect class="cls-6" x="275" y="345" width="1" height="110"/><rect class="cls-6" x="232" y="369.09" width="20" height="81.82" rx="2"/><rect class="cls-6" x="242" y="335" width="1" height="150"/><rect class="cls-6" x="199" y="330" width="20" height="60" rx="2"/><rect class="cls-6" x="209" y="305" width="1" height="110"/><rect class="cls-6" x="166" y="284.09" width="20" height="69.82" rx="2"/><rect class="cls-6" x="176" y="255" width="1" height="128"/></g></svg>