<svg xmlns="http://www.w3.org/2000/svg" xmlns:xlink="http://www.w3.org/1999/xlink" viewBox="0 0 1200 770"><defs><style>.cls-1{fill:none;}.cls-2{fill:#e6e6e6;}.cls-3{fill:#fff;}.cls-4{fill:#18377a;}.cls-5{fill:#ff3562;}.cls-6,.cls-7{fill:#3772ff;}.cls-7{stroke:#3772ff;stroke-miterlimit:10;}.cls-8{fill:#0c2859;}.cls-9{opacity:0.13;}.cls-10{fill:#06f9ba;}.cls-11{clip-path:url(#clip-path);}.cls-12{fill:#0ff4c6;}.cls-13{clip-path:url(#clip-path-2);}.cls-14{clip-path:url(#clip-path-3);}.cls-15{clip-path:url(#clip-path-4);}.cls-16{fill:#ffe736;}.cls-17{clip-path:url(#clip-path-5);}.cls-18{fill:#34e5ff;}.cls-19{fill:#00edff;}</style><clipPath id="clip-path"><circle class="cls-1" cx="65.4" cy="52.32" r="20.27"/></clipPath><clipPath id="clip-path-2"><circle class="cls-1" cx="115.4" cy="52.32" r="20.27"/></clipPath><clipPath id="clip-path-3"><circle class="cls-1" cx="165.4" cy="52.32" r="20.27"/></clipPath><clipPath id="clip-path-4"><circle class="cls-1" cx="215.4" cy="52.32" r="20.27"/></clipPath><clipPath id="clip-path-5"><circle class="cls-1" cx="265.4" cy="52.32" r="20.27"/></clipPath></defs><g id="background"><rect class="cls-2" x="-0.01" y="0.27" width="1200" height="770" rx="8"/></g><g id="Layer_1" data-name="Layer 1"><rect class="cls-3" x="1091.75" y="257.53" width="64.2" height="208.12" rx="7"/><path class="cls-4" d="M1148.94,466.15h-50.19a7.5,7.5,0,0,1-7.5-7.5V264.53a7.5,7.5,0,0,1,7.5-7.5h50.19a7.5,7.5,0,0,1,7.5,7.5V458.65A7.5,7.5,0,0,1,1148.94,466.15ZM1098.75,258a6.51,6.51,0,0,0-6.5,6.5V458.65a6.5,6.5,0,0,0,6.5,6.5h50.19a6.5,6.5,0,0,0,6.5-6.5V264.53a6.51,6.51,0,0,0-6.5-6.5Z"/><circle class="cls-4" cx="65.4" cy="52.32" r="20.27"/><rect class="cls-5" x="744.18" y="201.36" width="103.89" height="106.5" rx="7" transform="translate(413.22 -488.37) rotate(45)"/><path class="cls-6" d="M944.35,413.52a7,7,0,0,0,7-7V387.87a7,7,0,0,0-7-7H729.89a7,7,0,0,0-7,7v69.35a7,7,0,0,0,7,7H865.34a7,7,0,0,0,7-7v-36.7a7,7,0,0,1,7-7Z"/><path class="cls-6" d="M865.34,466.22H729.89a9,9,0,0,1-9-9V387.88a9,9,0,0,1,9-9H944.34a9,9,0,0,1,9,9V406.5a9,9,0,0,1-9,9h-65a5,5,0,0,0-5,5v36.7A9,9,0,0,1,865.34,466.22ZM729.89,382.88a5,5,0,0,0-5,5v69.34a5,5,0,0,0,5,5H865.34a5,5,0,0,0,5-5V420.51a9,9,0,0,1,9-9h65a5,5,0,0,0,5-5V387.88a5,5,0,0,0-5-5Z"/><rect class="cls-2" x="722.89" y="380.87" width="149.45" height="83.34" rx="7"/><path class="cls-6" d="M960.44,45.17a7.44,7.44,0,1,1,7.44-7.44A7.45,7.45,0,0,1,960.44,45.17Zm0-12.88a5.44,5.44,0,1,0,5.44,5.44A5.45,5.45,0,0,0,960.44,32.29Z"/><path class="cls-6" d="M960.44,73.89a7.44,7.44,0,1,1,7.44-7.44A7.45,7.45,0,0,1,960.44,73.89Zm0-12.88a5.44,5.44,0,1,0,5.44,5.44A5.45,5.45,0,0,0,960.44,61Z"/><path class="cls-6" d="M938,73.89a7.44,7.44,0,1,1,7.44-7.44A7.44,7.44,0,0,1,938,73.89ZM938,61a5.44,5.44,0,1,0,5.44,5.44A5.44,5.44,0,0,0,938,61Z"/><path class="cls-6" d="M983.09,73.89a7.44,7.44,0,1,1,7.44-7.44A7.45,7.45,0,0,1,983.09,73.89Zm0-12.88a5.44,5.44,0,1,0,5.44,5.44A5.45,5.45,0,0,0,983.09,61Z"/><polygon class="cls-6" points="984.19 60.08 982.19 60.08 982.19 52.89 938.82 52.89 938.82 60.07 936.82 60.07 936.82 50.89 984.19 50.89 984.19 60.08"/><polygon class="cls-6" points="984.19 59.08 982.19 59.08 982.19 51.89 938.82 51.89 938.82 59.07 936.82 59.07 936.82 49.89 984.19 49.89 984.19 59.08"/><polygon class="cls-6" points="984.19 58.08 982.19 58.08 982.19 50.89 938.82 50.89 938.82 58.07 936.82 58.07 936.82 48.89 984.19 48.89 984.19 58.08"/><polygon class="cls-6" points="984.19 57.08 982.19 57.08 982.19 49.89 938.82 49.89 938.82 57.07 936.82 57.07 936.82 47.89 984.19 47.89 984.19 57.08"/><polygon class="cls-6" points="984.19 56.08 982.19 56.08 982.19 48.89 938.82 48.89 938.82 56.07 936.82 56.07 936.82 46.89 984.19 46.89 984.19 56.08"/><rect class="cls-6" x="959.35" y="44.15" width="2" height="15.88"/><path class="cls-7" d="M1015.93,61.76a5.91,5.91,0,0,1-3.18-.85,6,6,0,0,1-2.17-2.35,7.24,7.24,0,0,1-.79-3.44,6.86,6.86,0,0,1,.85-3.47A6.07,6.07,0,0,1,1013,49.3a7.23,7.23,0,0,1,6.84,0,6.14,6.14,0,0,1,2.34,2.35,7,7,0,0,1,.85,3.47h-1.42a7.73,7.73,0,0,1-.73,3.44,5.84,5.84,0,0,1-2,2.35A5.14,5.14,0,0,1,1015.93,61.76Zm.43,5.36a7.61,7.61,0,0,1-3.19-.68,6.68,6.68,0,0,1-2.52-2,1.05,1.05,0,0,1-.23-.84,1.08,1.08,0,0,1,.47-.7,1.14,1.14,0,0,1,.9-.19,1.18,1.18,0,0,1,.75.48,4.48,4.48,0,0,0,1.64,1.27,5.29,5.29,0,0,0,2.23.46,4.2,4.2,0,0,0,2.12-.56,3.88,3.88,0,0,0,1.55-1.63,5.6,5.6,0,0,0,.58-2.64V56.72l.79-2.11,1.56.51V60.3a7.09,7.09,0,0,1-.84,3.44,6.29,6.29,0,0,1-2.34,2.46A6.54,6.54,0,0,1,1016.36,67.12Zm0-7.52a4.25,4.25,0,0,0,2.21-.57,4,4,0,0,0,1.5-1.59,4.82,4.82,0,0,0,.54-2.32,4.93,4.93,0,0,0-.54-2.34,4,4,0,0,0-1.5-1.6,4.5,4.5,0,0,0-4.42,0,4.09,4.09,0,0,0-1.51,1.6,4.82,4.82,0,0,0-.55,2.34,4.71,4.71,0,0,0,.55,2.32A4.13,4.13,0,0,0,1014.2,59,4.25,4.25,0,0,0,1016.41,59.6Z"/><path class="cls-7" d="M1027.86,61.67a1.23,1.23,0,0,1-.89-.3,1.19,1.19,0,0,1-.31-.9V49.74a1.21,1.21,0,0,1,.31-.89,1.19,1.19,0,0,1,.89-.31,1.06,1.06,0,0,1,1.2,1.2V60.47a1.24,1.24,0,0,1-.3.89A1.23,1.23,0,0,1,1027.86,61.67Zm0-8.21a4.81,4.81,0,0,1,.71-2.58,5.19,5.19,0,0,1,1.91-1.81,5.29,5.29,0,0,1,2.64-.67,4,4,0,0,1,2.15.46,1,1,0,0,1,.54,1.12.94.94,0,0,1-.28.52.89.89,0,0,1-.47.22,1.23,1.23,0,0,1-.57,0,6.8,6.8,0,0,0-2.76-.05,3.82,3.82,0,0,0-1.94,1,2.48,2.48,0,0,0-.7,1.82Z"/><path class="cls-7" d="M1042.83,61.76a5.8,5.8,0,0,1-3.14-.87,6.31,6.31,0,0,1-2.2-2.38,7.13,7.13,0,0,1-.8-3.39,6.71,6.71,0,0,1,.87-3.41,6.5,6.5,0,0,1,2.38-2.39,6.63,6.63,0,0,1,9.1,2.39,6.71,6.71,0,0,1,.87,3.41H1049a7,7,0,0,1-.81,3.39,6.28,6.28,0,0,1-2.19,2.38A5.83,5.83,0,0,1,1042.83,61.76Zm.48-2.16a4.12,4.12,0,0,0,2.19-.58,4.25,4.25,0,0,0,1.51-1.61,5.1,5.1,0,0,0,0-4.61,4.18,4.18,0,0,0-1.51-1.61,4.21,4.21,0,0,0-5.89,1.61,4.95,4.95,0,0,0,0,4.61,4.23,4.23,0,0,0,1.53,1.61A4.12,4.12,0,0,0,1043.31,59.6Zm5.38,2.09a1.17,1.17,0,0,1-.88-.35,1.18,1.18,0,0,1-.35-.87V56.8l.46-2.55,2,.87v5.35a1.2,1.2,0,0,1-1.22,1.22Z"/><path class="cls-7" d="M1054.78,67.28a1.18,1.18,0,0,1-.87-.34,1.22,1.22,0,0,1-.35-.88V55.12a6.93,6.93,0,0,1,.89-3.41,6.34,6.34,0,0,1,2.35-2.39,6.63,6.63,0,0,1,9.11,2.39,6.71,6.71,0,0,1,.87,3.41,7,7,0,0,1-.8,3.39,6.31,6.31,0,0,1-2.2,2.38,6.11,6.11,0,0,1-5.74.29,6.24,6.24,0,0,1-2-1.6v6.48a1.21,1.21,0,0,1-.34.88A1.18,1.18,0,0,1,1054.78,67.28Zm5.38-7.68a4.09,4.09,0,0,0,2.18-.58,4.38,4.38,0,0,0,1.53-1.61,5,5,0,0,0,0-4.61,4.31,4.31,0,0,0-1.53-1.61,4.3,4.3,0,0,0-4.35,0,4.16,4.16,0,0,0-1.53,1.61,5.1,5.1,0,0,0,0,4.61A4.23,4.23,0,0,0,1058,59,4.12,4.12,0,0,0,1060.16,59.6Z"/><path class="cls-7" d="M1071.66,56.89a1.15,1.15,0,0,1-.88-.35,1.18,1.18,0,0,1-.35-.87V44.15a1.18,1.18,0,0,1,.35-.89,1.22,1.22,0,0,1,.88-.34,1.21,1.21,0,0,1,.88.34,1.18,1.18,0,0,1,.34.89V55.67a1.18,1.18,0,0,1-.34.87A1.14,1.14,0,0,1,1071.66,56.89Zm0,4.8a1.15,1.15,0,0,1-.88-.35,1.18,1.18,0,0,1-.35-.87V49.76a1.23,1.23,0,1,1,2.45,0V60.47a1.18,1.18,0,0,1-.34.87A1.14,1.14,0,0,1,1071.66,61.69Zm9.86,0a1.18,1.18,0,0,1-1.22-1.22V54.56a4.36,4.36,0,0,0-.51-2.23,3.2,3.2,0,0,0-1.35-1.28,4.41,4.41,0,0,0-2-.42,3.9,3.9,0,0,0-1.82.41,3.32,3.32,0,0,0-1.3,1.09,2.65,2.65,0,0,0-.48,1.57h-1.51a5,5,0,0,1,.73-2.7,5.32,5.32,0,0,1,2-1.88,5.8,5.8,0,0,1,2.86-.7,6.14,6.14,0,0,1,3,.71A5.15,5.15,0,0,1,1082,51.2a7,7,0,0,1,.75,3.36v5.91a1.18,1.18,0,0,1-1.22,1.22Z"/><path class="cls-7" d="M1088.29,46.4a1.53,1.53,0,0,1-1.12-.46,1.57,1.57,0,0,1,0-2.24,1.53,1.53,0,0,1,1.12-.46,1.51,1.51,0,0,1,1.11.46,1.57,1.57,0,0,1,0,2.24A1.51,1.51,0,0,1,1088.29,46.4Zm0,15.27a1.21,1.21,0,0,1-.88-.35,1.19,1.19,0,0,1-.35-.88V49.76a1.17,1.17,0,0,1,.35-.88,1.22,1.22,0,0,1,2.1.88V60.44a1.22,1.22,0,0,1-.33.88A1.2,1.2,0,0,1,1088.29,61.67Z"/><path class="cls-7" d="M1105.42,67.28a1.23,1.23,0,0,1-.9-.34,1.21,1.21,0,0,1-.34-.88V59.58a6.1,6.1,0,0,1-2,1.6,5.88,5.88,0,0,1-2.62.58,5.8,5.8,0,0,1-3.14-.87,6.31,6.31,0,0,1-2.2-2.38,7.13,7.13,0,0,1-.8-3.39,6.61,6.61,0,0,1,.88-3.41,6.4,6.4,0,0,1,2.37-2.39,6.62,6.62,0,0,1,3.37-.88,6.49,6.49,0,0,1,5.73,3.27,6.71,6.71,0,0,1,.87,3.41V66.06a1.25,1.25,0,0,1-.33.88A1.16,1.16,0,0,1,1105.42,67.28ZM1100,59.6a4.12,4.12,0,0,0,2.19-.58,4.25,4.25,0,0,0,1.51-1.61,5.1,5.1,0,0,0,0-4.61,4.18,4.18,0,0,0-1.51-1.61,4.21,4.21,0,0,0-5.89,1.61,4.95,4.95,0,0,0,0,4.61,4.23,4.23,0,0,0,1.53,1.61A4.12,4.12,0,0,0,1100,59.6Z"/><path class="cls-7" d="M1116.46,61.79a6.14,6.14,0,0,1-3-.71,5,5,0,0,1-2.06-2.08,6.79,6.79,0,0,1-.76-3.36v-5.9a1.25,1.25,0,0,1,2.1-.88,1.22,1.22,0,0,1,.35.88v5.9a4.34,4.34,0,0,0,.5,2.22,3.12,3.12,0,0,0,1.37,1.3,4.38,4.38,0,0,0,1.94.42,4.05,4.05,0,0,0,1.84-.41,3.36,3.36,0,0,0,1.28-1.1,2.71,2.71,0,0,0,.48-1.56h1.52a5.06,5.06,0,0,1-.74,2.69,5.17,5.17,0,0,1-2,1.89A5.76,5.76,0,0,1,1116.46,61.79Zm5.31-.12a1.21,1.21,0,0,1-.88-.35,1.19,1.19,0,0,1-.35-.88V49.74a1.2,1.2,0,0,1,.35-.89,1.22,1.22,0,0,1,2.1.89v10.7a1.17,1.17,0,0,1-1.22,1.23Z"/><path class="cls-7" d="M1133.48,61.76a7.19,7.19,0,0,1-3.54-.85,6.21,6.21,0,0,1-2.42-2.35,6.65,6.65,0,0,1-.88-3.44,7.07,7.07,0,0,1,.83-3.47,6,6,0,0,1,2.29-2.35,6.56,6.56,0,0,1,3.36-.86,6,6,0,0,1,3.22.83,5.39,5.39,0,0,1,2.05,2.28,7.6,7.6,0,0,1,.71,3.35,1,1,0,0,1-.32.76,1.08,1.08,0,0,1-.79.3h-9.67V54h9.6l-1,.67a5.26,5.26,0,0,0-.48-2.15,3.72,3.72,0,0,0-1.3-1.5,3.62,3.62,0,0,0-2-.55,4.38,4.38,0,0,0-2.34.6,3.91,3.91,0,0,0-1.48,1.64,5.49,5.49,0,0,0-.5,2.37,4.59,4.59,0,0,0,.6,2.35,4.33,4.33,0,0,0,1.66,1.63,4.8,4.8,0,0,0,2.42.6,4.38,4.38,0,0,0,1.52-.28,4.62,4.62,0,0,0,1.26-.63,1.35,1.35,0,0,1,.78-.28,1.09,1.09,0,0,1,.74.25,1.17,1.17,0,0,1,.43.8.86.86,0,0,1-.39.74,6.81,6.81,0,0,1-2,1.06A7.25,7.25,0,0,1,1133.48,61.76Z"/><path class="cls-7" d="M1147,61.76a9.18,9.18,0,0,1-3.11-.51,6,6,0,0,1-2.22-1.31,1.06,1.06,0,0,1-.3-.88,1.18,1.18,0,0,1,.47-.8,1.24,1.24,0,0,1,1-.32,1.28,1.28,0,0,1,.8.42,4.06,4.06,0,0,0,1.31.85,5,5,0,0,0,2,.39,4.12,4.12,0,0,0,2.13-.45,1.44,1.44,0,0,0,.76-1.18,1.51,1.51,0,0,0-.69-1.25,6.49,6.49,0,0,0-2.58-.86,7.5,7.5,0,0,1-3.51-1.44,3,3,0,0,1-1.1-2.35,2.93,2.93,0,0,1,.72-2,4.31,4.31,0,0,1,1.85-1.2,7.16,7.16,0,0,1,2.35-.4,7.26,7.26,0,0,1,2.81.51,4.64,4.64,0,0,1,1.94,1.39,1.11,1.11,0,0,1,.32.8,1,1,0,0,1-.41.71,1.18,1.18,0,0,1-.91.17,1.69,1.69,0,0,1-.89-.43,3.13,3.13,0,0,0-1.3-.79,5.2,5.2,0,0,0-1.6-.22,4,4,0,0,0-1.79.36,1.13,1.13,0,0,0-.73,1.06,1.44,1.44,0,0,0,.22.78,1.94,1.94,0,0,0,.9.62,12.58,12.58,0,0,0,2,.54,10.74,10.74,0,0,1,2.85.91,3.89,3.89,0,0,1,1.5,1.29,3.14,3.14,0,0,1,.45,1.69,3.47,3.47,0,0,1-.59,2,4.08,4.08,0,0,1-1.72,1.42A6.85,6.85,0,0,1,1147,61.76Z"/><rect class="cls-8" x="108.71" y="210.97" width="114.88" height="83.34" rx="7"/><g class="cls-9"><rect class="cls-8" x="288.71" y="210.97" width="149.45" height="83.34" rx="7"/></g><path class="cls-3" d="M138.35,239.35a.82.82,0,0,1-.83-.83V227.68a.78.78,0,0,1,.24-.59.81.81,0,0,1,.59-.24.8.8,0,0,1,.6.24.81.81,0,0,1,.23.59v10.84a.84.84,0,0,1-.23.59A.8.8,0,0,1,138.35,239.35Z"/><path class="cls-3" d="M146.19,239.41a4.31,4.31,0,0,1-3.83-2.17,4.47,4.47,0,0,1-.59-2.27,4.7,4.7,0,0,1,.54-2.27,4.2,4.2,0,0,1,1.46-1.58,3.87,3.87,0,0,1,2.1-.59,3.77,3.77,0,0,1,1.74.4A3.82,3.82,0,0,1,149,232v-4.32a.79.79,0,0,1,.23-.59.8.8,0,0,1,.58-.23.81.81,0,0,1,.6.23.78.78,0,0,1,.22.59V235a4.46,4.46,0,0,1-.58,2.27,4.38,4.38,0,0,1-1.58,1.59A4.32,4.32,0,0,1,146.19,239.41Zm0-1.44a2.77,2.77,0,0,0,1.46-.39,2.74,2.74,0,0,0,1-1.08A3.15,3.15,0,0,0,149,235a3.11,3.11,0,0,0-.37-1.54,2.86,2.86,0,0,0-1-1.07,2.91,2.91,0,0,0-2.91,0,2.91,2.91,0,0,0-1,1.07,3.11,3.11,0,0,0-.38,1.54,3.15,3.15,0,0,0,.38,1.53,2.79,2.79,0,0,0,1,1.08A2.76,2.76,0,0,0,146.19,238Z"/><path class="cls-3" d="M157.58,239.41a4.82,4.82,0,0,1-2.36-.57,4.1,4.1,0,0,1-1.61-1.56A4.5,4.5,0,0,1,153,235a4.81,4.81,0,0,1,.55-2.31,4.05,4.05,0,0,1,1.53-1.57,4.36,4.36,0,0,1,2.24-.57,4,4,0,0,1,2.15.56,3.56,3.56,0,0,1,1.36,1.51,5,5,0,0,1,.48,2.24.66.66,0,0,1-.21.5.76.76,0,0,1-.53.2h-6.45v-1.28h6.4l-.65.45a3.45,3.45,0,0,0-.32-1.43,2.42,2.42,0,0,0-.87-1,2.36,2.36,0,0,0-1.36-.37,2.87,2.87,0,0,0-1.56.4,2.58,2.58,0,0,0-1,1.09,3.52,3.52,0,0,0-.34,1.58,3.13,3.13,0,0,0,.4,1.57,3,3,0,0,0,1.11,1.09,3.26,3.26,0,0,0,1.61.4,2.91,2.91,0,0,0,1-.19,3.29,3.29,0,0,0,.84-.42.84.84,0,0,1,.52-.18.72.72,0,0,1,.49.16.76.76,0,0,1,.28.53.55.55,0,0,1-.25.5,4.51,4.51,0,0,1-1.35.7A4.91,4.91,0,0,1,157.58,239.41Z"/><path class="cls-3" d="M164.22,239.36a.79.79,0,0,1-.81-.81v-7.14a.77.77,0,0,1,.23-.59.89.89,0,0,1,1.17,0,.81.81,0,0,1,.23.59v7.14a.8.8,0,0,1-.23.58A.75.75,0,0,1,164.22,239.36Zm6.58,0a.78.78,0,0,1-.59-.23.8.8,0,0,1-.23-.58v-3.94a3,3,0,0,0-.33-1.48,2.15,2.15,0,0,0-.91-.86,2.86,2.86,0,0,0-1.3-.28,2.7,2.7,0,0,0-1.22.27,2.2,2.2,0,0,0-.86.73,1.72,1.72,0,0,0-.32,1h-1a3.28,3.28,0,0,1,.49-1.8,3.51,3.51,0,0,1,1.33-1.26,3.91,3.91,0,0,1,1.91-.46,4,4,0,0,1,2,.47,3.34,3.34,0,0,1,1.38,1.38,4.55,4.55,0,0,1,.5,2.24v3.94a.79.79,0,0,1-.81.81Z"/><path class="cls-3" d="M174,232.29a.74.74,0,0,1-.54-.19.63.63,0,0,1-.21-.48.66.66,0,0,1,.21-.51.74.74,0,0,1,.54-.19h3.7a.76.76,0,0,1,.54.19.66.66,0,0,1,.21.51.63.63,0,0,1-.21.48.76.76,0,0,1-.54.19Zm3.55,7.06a2.66,2.66,0,0,1-1.44-.41,2.85,2.85,0,0,1-1-1.11,3.43,3.43,0,0,1-.36-1.58v-7.64a.77.77,0,0,1,.22-.57.81.81,0,0,1,1.38.57v7.64a1.62,1.62,0,0,0,.35,1.07,1.08,1.08,0,0,0,.86.43h.55a.61.61,0,0,1,.48.22.8.8,0,0,1,.2.58.72.72,0,0,1-.26.58,1.07,1.07,0,0,1-.68.22Z"/><path class="cls-3" d="M181.71,229.17a1,1,0,0,1-.74-.31,1.06,1.06,0,1,1,1.48,0A1,1,0,0,1,181.71,229.17Zm0,10.18a.8.8,0,0,1-.58-.23.79.79,0,0,1-.24-.59v-7.12a.78.78,0,0,1,.24-.59.89.89,0,0,1,1.17,0,.81.81,0,0,1,.23.59v7.12a.82.82,0,0,1-.23.59A.79.79,0,0,1,181.71,239.35Z"/><path class="cls-3" d="M185,232.29a.77.77,0,0,1-.55-.19.66.66,0,0,1-.2-.48.69.69,0,0,1,.2-.51.77.77,0,0,1,.55-.19h4a.74.74,0,0,1,.54.19.66.66,0,0,1,.21.51.63.63,0,0,1-.21.48.74.74,0,0,1-.54.19Zm1.47,7.06a.81.81,0,0,1-.54-.22.78.78,0,0,1-.24-.6v-7.89a4.24,4.24,0,0,1,.45-2,3.43,3.43,0,0,1,1.27-1.32,3.78,3.78,0,0,1,1.89-.47.85.85,0,0,1,.59.21.71.71,0,0,1,0,1.05.85.85,0,0,1-.59.21,2,2,0,0,0-1,.28,1.79,1.79,0,0,0-.69.75,2.38,2.38,0,0,0-.25,1.13v8.05a.81.81,0,0,1-.23.6A.87.87,0,0,1,186.51,239.35Z"/><path class="cls-3" d="M194.89,239a.73.73,0,0,1-.56,0,.81.81,0,0,1-.43-.41l-3.66-7a.63.63,0,0,1,0-.58.77.77,0,0,1,.42-.41.78.78,0,0,1,.58,0,.72.72,0,0,1,.41.41l3.51,7a1,1,0,0,1,.12.58A.52.52,0,0,1,194.89,239ZM193,243.19a.93.93,0,0,1-.39-.1.66.66,0,0,1-.38-1l4.88-11a.69.69,0,0,1,1-.38.66.66,0,0,1,.4,1l-4.9,11A.66.66,0,0,1,193,243.19Z"/><path class="cls-3" d="M134.22,262.29a.79.79,0,0,1-.81-.81v-7.3a4.54,4.54,0,0,1,.59-2.27,4.2,4.2,0,0,1,1.57-1.59,4.57,4.57,0,0,1,4.49,0,4.38,4.38,0,0,1,1.58,1.59,4.43,4.43,0,0,1,.58,2.27,4.84,4.84,0,0,1-.53,2.27,4.22,4.22,0,0,1-1.47,1.58,3.85,3.85,0,0,1-2.09.58,3.9,3.9,0,0,1-1.74-.39,4.13,4.13,0,0,1-1.35-1.06v4.32a.8.8,0,0,1-.23.58A.75.75,0,0,1,134.22,262.29Zm3.59-5.12a2.74,2.74,0,0,0,1.45-.39,2.84,2.84,0,0,0,1-1.07,3.37,3.37,0,0,0,0-3.07,2.86,2.86,0,0,0-1-1.08,2.89,2.89,0,0,0-2.9,0,2.86,2.86,0,0,0-1,1.08,3.37,3.37,0,0,0,0,3.07,2.84,2.84,0,0,0,1,1.07A2.74,2.74,0,0,0,137.81,257.17Z"/><path class="cls-3" d="M148.33,258.63a4.13,4.13,0,0,1-2-.47,3.48,3.48,0,0,1-1.38-1.39,4.61,4.61,0,0,1-.5-2.24V250.6a.78.78,0,0,1,.23-.59.8.8,0,0,1,.58-.23.79.79,0,0,1,.82.82v3.93a2.87,2.87,0,0,0,.34,1.48,2.07,2.07,0,0,0,.91.87,3,3,0,0,0,1.29.28,2.59,2.59,0,0,0,1.23-.28,2.17,2.17,0,0,0,.85-.73,1.75,1.75,0,0,0,.32-1h1a3.32,3.32,0,0,1-.49,1.79,3.5,3.5,0,0,1-1.32,1.27A4,4,0,0,1,148.33,258.63Zm3.54-.08a.78.78,0,0,1-.58-.23.79.79,0,0,1-.24-.59V250.6a.75.75,0,0,1,.24-.59.86.86,0,0,1,1.17,0,.78.78,0,0,1,.23.59v7.13a.82.82,0,0,1-.23.59A.79.79,0,0,1,151.87,258.55Z"/><path class="cls-3" d="M156.37,258.55a.85.85,0,0,1-.6-.2.78.78,0,0,1-.2-.6V250.6a.77.77,0,0,1,.2-.59.8.8,0,0,1,1.4.59v7.15a.83.83,0,0,1-.2.59A.81.81,0,0,1,156.37,258.55Zm0-5.47a3.22,3.22,0,0,1,.47-1.72,3.51,3.51,0,0,1,1.27-1.21,3.55,3.55,0,0,1,1.76-.45,2.66,2.66,0,0,1,1.44.31.68.68,0,0,1,.36.75.66.66,0,0,1-.19.34.6.6,0,0,1-.31.15,1,1,0,0,1-.38,0,4.41,4.41,0,0,0-1.84,0,2.4,2.4,0,0,0-1.29.65,1.65,1.65,0,0,0-.47,1.22Z"/><path class="cls-3" d="M164.16,262.29a.78.78,0,0,1-.59-.23.8.8,0,0,1-.23-.58v-7.3a4.65,4.65,0,0,1,.59-2.27,4.41,4.41,0,0,1,7.64,0,4.44,4.44,0,0,1,.59,2.27,4.73,4.73,0,0,1-.54,2.27,4.19,4.19,0,0,1-1.46,1.58,4.06,4.06,0,0,1-3.83.19,4.28,4.28,0,0,1-1.36-1.06v4.32a.79.79,0,0,1-.22.58A.77.77,0,0,1,164.16,262.29Zm3.58-5.12a2.75,2.75,0,0,0,1.46-.39,2.89,2.89,0,0,0,1-1.07,3.29,3.29,0,0,0,0-3.07,2.92,2.92,0,0,0-1-1.08,2.75,2.75,0,0,0-1.46-.39,2.71,2.71,0,0,0-2.46,1.47,3.37,3.37,0,0,0,0,3.07,2.74,2.74,0,0,0,1,1.07A2.79,2.79,0,0,0,167.74,257.17Z"/><path class="cls-3" d="M178.56,258.61a4.6,4.6,0,0,1-2.29-.56,4.2,4.2,0,0,1-1.56-1.57,4.95,4.95,0,0,1,0-4.61,4.13,4.13,0,0,1,1.56-1.57,4.84,4.84,0,0,1,4.56,0,4.13,4.13,0,0,1,1.56,1.57,4.6,4.6,0,0,1,.57,2.31,4.66,4.66,0,0,1-.56,2.3,4.17,4.17,0,0,1-1.55,1.57A4.65,4.65,0,0,1,178.56,258.61Zm0-1.44a2.78,2.78,0,0,0,1.47-.38,2.69,2.69,0,0,0,1-1.06,3.2,3.2,0,0,0,.36-1.55,3.27,3.27,0,0,0-.36-1.56,2.62,2.62,0,0,0-1-1.06,3,3,0,0,0-2.95,0,2.69,2.69,0,0,0-1,1.06,3.16,3.16,0,0,0-.37,1.56,3.09,3.09,0,0,0,.37,1.55,2.76,2.76,0,0,0,1,1.06A2.79,2.79,0,0,0,178.56,257.17Z"/><path class="cls-3" d="M188.57,258.61a6.07,6.07,0,0,1-2.07-.34,4,4,0,0,1-1.48-.87.7.7,0,0,1-.2-.59.77.77,0,0,1,.31-.53.85.85,0,0,1,.64-.22.89.89,0,0,1,.53.28,2.61,2.61,0,0,0,.87.57,3.24,3.24,0,0,0,1.34.26,2.69,2.69,0,0,0,1.41-.3.93.93,0,0,0,.51-.78,1,1,0,0,0-.46-.84,4.45,4.45,0,0,0-1.72-.57,5.19,5.19,0,0,1-2.34-1,2,2,0,0,1-.73-1.57,1.92,1.92,0,0,1,.48-1.35,2.83,2.83,0,0,1,1.23-.8,4.63,4.63,0,0,1,1.57-.27,4.73,4.73,0,0,1,1.87.34,3.09,3.09,0,0,1,1.3.93.74.74,0,0,1,.21.53.63.63,0,0,1-.27.48.85.85,0,0,1-.61.11,1.17,1.17,0,0,1-.59-.29,2.22,2.22,0,0,0-.87-.53,3.85,3.85,0,0,0-1.07-.14,2.66,2.66,0,0,0-1.19.24.75.75,0,0,0-.49.7.93.93,0,0,0,.15.52,1.28,1.28,0,0,0,.6.42,8.44,8.44,0,0,0,1.31.36,7,7,0,0,1,1.9.61,2.53,2.53,0,0,1,1,.85A2.12,2.12,0,0,1,192,256a2.38,2.38,0,0,1-.39,1.33,2.65,2.65,0,0,1-1.15.94A4.45,4.45,0,0,1,188.57,258.61Z"/><path class="cls-3" d="M198.19,258.61a4.9,4.9,0,0,1-2.36-.56,4.22,4.22,0,0,1-1.62-1.57,4.47,4.47,0,0,1-.58-2.3,4.7,4.7,0,0,1,.55-2.31,4.05,4.05,0,0,1,1.53-1.57,4.36,4.36,0,0,1,2.24-.57,4,4,0,0,1,2.14.56,3.51,3.51,0,0,1,1.37,1.51,5,5,0,0,1,.47,2.24.69.69,0,0,1-.2.5.72.72,0,0,1-.53.2h-6.45v-1.28h6.4l-.66.45a3.3,3.3,0,0,0-.32-1.43,2.33,2.33,0,0,0-2.22-1.37,2.87,2.87,0,0,0-1.56.4,2.58,2.58,0,0,0-1,1.09,3.52,3.52,0,0,0-.34,1.58,3,3,0,0,0,.4,1.57,3,3,0,0,0,1.1,1.09,3.3,3.3,0,0,0,1.62.4,2.91,2.91,0,0,0,1-.19,3.29,3.29,0,0,0,.84-.42.84.84,0,0,1,.52-.18.68.68,0,0,1,.48.16.73.73,0,0,1,.29.53.58.58,0,0,1-.25.5,4.46,4.46,0,0,1-1.36.7A4.81,4.81,0,0,1,198.19,258.61Z"/><path class="cls-3" d="M133.79,277.81a4.52,4.52,0,0,1-2.29-.57,4.1,4.1,0,0,1-1.56-1.56,4.95,4.95,0,0,1,0-4.61,4.13,4.13,0,0,1,1.56-1.57,4.52,4.52,0,0,1,2.29-.57,4.48,4.48,0,0,1,2.27.57,4.13,4.13,0,0,1,1.56,1.57,4.57,4.57,0,0,1,.57,2.31,4.69,4.69,0,0,1-.56,2.3,4,4,0,0,1-1.55,1.56A4.52,4.52,0,0,1,133.79,277.81Zm0-1.44a2.87,2.87,0,0,0,1.47-.38,2.69,2.69,0,0,0,1-1.06,3.22,3.22,0,0,0,.36-1.55,3.27,3.27,0,0,0-.36-1.56,2.62,2.62,0,0,0-1-1.06,3,3,0,0,0-2.94,0,2.65,2.65,0,0,0-1,1.06,3.16,3.16,0,0,0-.37,1.56,3.12,3.12,0,0,0,.37,1.55,2.71,2.71,0,0,0,1,1.06A2.85,2.85,0,0,0,133.79,276.37Z"/><path class="cls-3" d="M140.09,270.69a.76.76,0,0,1-.54-.19.63.63,0,0,1-.21-.48.66.66,0,0,1,.21-.51.76.76,0,0,1,.54-.19h4a.76.76,0,0,1,.54.19.66.66,0,0,1,.21.51.63.63,0,0,1-.21.48.76.76,0,0,1-.54.19Zm1.48,7.06a.78.78,0,0,1-.55-.23.75.75,0,0,1-.24-.59V269a4.13,4.13,0,0,1,.46-2,3.36,3.36,0,0,1,1.27-1.32,3.73,3.73,0,0,1,1.89-.47.83.83,0,0,1,.58.21.66.66,0,0,1,.23.53.68.68,0,0,1-.23.52.83.83,0,0,1-.58.21,1.91,1.91,0,0,0-1.74,1,2.51,2.51,0,0,0-.25,1.13v8.05a.77.77,0,0,1-.22.59A.85.85,0,0,1,141.57,277.75Z"/><path class="cls-3" d="M155.15,277.81a4.39,4.39,0,0,1-2.25-.58,4.3,4.3,0,0,1-1.58-1.59,4.48,4.48,0,0,1-.59-2.28,4.69,4.69,0,0,1,.54-2.26,4.12,4.12,0,0,1,1.46-1.58,4.05,4.05,0,0,1,3.84-.2,4.06,4.06,0,0,1,1.35,1.07v-4.32a.75.75,0,0,1,.23-.59.8.8,0,0,1,.58-.23.81.81,0,0,1,.6.23.82.82,0,0,1,.22.59v7.29a4.48,4.48,0,0,1-.59,2.28,4.28,4.28,0,0,1-1.57,1.59A4.32,4.32,0,0,1,155.15,277.81Zm0-1.44a2.77,2.77,0,0,0,1.46-.39,2.74,2.74,0,0,0,1-1.08,3.16,3.16,0,0,0,.37-1.54,3.09,3.09,0,0,0-.37-1.53,2.86,2.86,0,0,0-1-1.07,2.91,2.91,0,0,0-2.91,0,2.91,2.91,0,0,0-1,1.07,3.1,3.1,0,0,0-.38,1.53,3.17,3.17,0,0,0,.38,1.54,2.79,2.79,0,0,0,1,1.08A2.76,2.76,0,0,0,155.15,276.37Z"/><path class="cls-3" d="M166.54,277.81a4.82,4.82,0,0,1-2.36-.57,4,4,0,0,1-1.61-1.56,4.5,4.5,0,0,1-.59-2.3,4.78,4.78,0,0,1,.55-2.31,4.05,4.05,0,0,1,1.53-1.57,4.36,4.36,0,0,1,2.24-.57,4.11,4.11,0,0,1,2.15.55,3.64,3.64,0,0,1,1.36,1.52,5,5,0,0,1,.48,2.24.66.66,0,0,1-.21.5.76.76,0,0,1-.53.2H163.1v-1.28h6.4l-.65.45a3.62,3.62,0,0,0-.32-1.43,2.5,2.5,0,0,0-.87-1,2.39,2.39,0,0,0-1.36-.37,2.87,2.87,0,0,0-1.56.4,2.52,2.52,0,0,0-1,1.09,3.52,3.52,0,0,0-.34,1.58,3,3,0,0,0,1.5,2.66,3.3,3.3,0,0,0,1.62.4,2.91,2.91,0,0,0,1-.19,3.29,3.29,0,0,0,.84-.42.92.92,0,0,1,.52-.19.73.73,0,0,1,.49.17.76.76,0,0,1,.28.53.58.58,0,0,1-.25.5,4.7,4.7,0,0,1-1.36.7A4.81,4.81,0,0,1,166.54,277.81Z"/><path class="cls-3" d="M175.55,277.81a6,6,0,0,1-2.07-.34,3.94,3.94,0,0,1-1.48-.87.7.7,0,0,1-.2-.59.74.74,0,0,1,.31-.53.82.82,0,0,1,.63-.22.89.89,0,0,1,.54.28,2.61,2.61,0,0,0,.87.57,3.36,3.36,0,0,0,1.33.26,2.73,2.73,0,0,0,1.42-.3,1,1,0,0,0,.51-.79,1,1,0,0,0-.46-.83,4.51,4.51,0,0,0-1.72-.57,5.24,5.24,0,0,1-2.35-1,2,2,0,0,1-.72-1.57,1.92,1.92,0,0,1,.48-1.35,2.83,2.83,0,0,1,1.23-.8,4.59,4.59,0,0,1,1.57-.27,4.8,4.8,0,0,1,1.87.34,3.05,3.05,0,0,1,1.29.93.74.74,0,0,1,.21.53.6.6,0,0,1-.27.47.79.79,0,0,1-.61.12,1.22,1.22,0,0,1-.59-.29,2.19,2.19,0,0,0-.86-.53,3.51,3.51,0,0,0-1.07-.14,2.73,2.73,0,0,0-1.2.24.76.76,0,0,0-.49.7.94.94,0,0,0,.16.52,1.36,1.36,0,0,0,.6.42,8.12,8.12,0,0,0,1.31.36,7.26,7.26,0,0,1,1.89.6,2.48,2.48,0,0,1,1,.86,2,2,0,0,1,.31,1.13,2.38,2.38,0,0,1-.39,1.33,2.74,2.74,0,0,1-1.16.94A4.52,4.52,0,0,1,175.55,277.81Z"/><path class="cls-3" d="M182,267.57a1,1,0,0,1-.75-.31,1.05,1.05,0,0,1,0-1.49,1,1,0,0,1,.75-.31,1,1,0,0,1,.74.31,1.05,1.05,0,0,1,0,1.49A1,1,0,0,1,182,267.57Zm0,10.18a.79.79,0,0,1-.82-.82v-7.12a.81.81,0,0,1,.23-.59A.82.82,0,0,1,182,269a.76.76,0,0,1,.81.81v7.12a.82.82,0,0,1-.22.59A.81.81,0,0,1,182,277.75Z"/><path class="cls-3" d="M189.53,277.81a4,4,0,0,1-2.12-.57,4,4,0,0,1-1.45-1.56,4.9,4.9,0,0,1-.52-2.3,4.67,4.67,0,0,1,.56-2.31,4.13,4.13,0,0,1,1.56-1.57,4.55,4.55,0,0,1,2.29-.57,4.45,4.45,0,0,1,2.27.57,4,4,0,0,1,1.56,1.57,4.57,4.57,0,0,1,.57,2.31h-.94a5.15,5.15,0,0,1-.49,2.3,3.79,3.79,0,0,1-1.34,1.56A3.39,3.39,0,0,1,189.53,277.81Zm.29,3.57a5.09,5.09,0,0,1-2.13-.45,4.46,4.46,0,0,1-1.68-1.31.67.67,0,0,1-.15-.56.7.7,0,0,1,.31-.46.77.77,0,0,1,.6-.13.82.82,0,0,1,.51.32,3,3,0,0,0,1.08.85,3.57,3.57,0,0,0,1.49.3,2.79,2.79,0,0,0,1.42-.37,2.65,2.65,0,0,0,1-1.09,3.64,3.64,0,0,0,.38-1.76v-2.27l.53-1.41,1,.34v3.46a4.65,4.65,0,0,1-.56,2.29,4.17,4.17,0,0,1-1.56,1.64A4.28,4.28,0,0,1,189.82,281.38Zm0-5a2.82,2.82,0,0,0,1.47-.38,2.69,2.69,0,0,0,1-1.06,3.22,3.22,0,0,0,.36-1.55,3.27,3.27,0,0,0-.36-1.56,2.62,2.62,0,0,0-1-1.06,2.74,2.74,0,0,0-1.47-.39,2.78,2.78,0,0,0-1.47.39,2.71,2.71,0,0,0-1,1.06,3.27,3.27,0,0,0-.37,1.56,3.23,3.23,0,0,0,.37,1.55,2.78,2.78,0,0,0,1,1.06A2.87,2.87,0,0,0,189.85,276.37Z"/><path class="cls-3" d="M197.5,277.76a.76.76,0,0,1-.58-.23.77.77,0,0,1-.24-.58v-7.14a.78.78,0,0,1,.24-.59.89.89,0,0,1,1.17,0,.81.81,0,0,1,.23.59V277a.8.8,0,0,1-.23.58A.75.75,0,0,1,197.5,277.76Zm6.58,0a.78.78,0,0,1-.59-.23.8.8,0,0,1-.23-.58V273a2.88,2.88,0,0,0-.34-1.49,2,2,0,0,0-.9-.85,2.86,2.86,0,0,0-1.3-.28,2.7,2.7,0,0,0-1.22.27,2.2,2.2,0,0,0-.86.73,1.72,1.72,0,0,0-.32,1.05h-1a3.28,3.28,0,0,1,.49-1.8,3.51,3.51,0,0,1,1.33-1.26,3.91,3.91,0,0,1,1.91-.46,4,4,0,0,1,2,.47,3.4,3.4,0,0,1,1.38,1.38,4.66,4.66,0,0,1,.5,2.24V277a.8.8,0,0,1-.23.58A.76.76,0,0,1,204.08,277.76Z"/><path class="cls-8" d="M308.63,258.25A.79.79,0,0,1,308,258a.76.76,0,0,1-.25-.59V246.59a.76.76,0,0,1,.25-.6.78.78,0,0,1,.59-.23h2.88a4.47,4.47,0,0,1,2.13.5,3.75,3.75,0,0,1,1.44,1.38,3.93,3.93,0,0,1,.52,2.05,3.57,3.57,0,0,1-2,3.27,4.58,4.58,0,0,1-2.13.48h-2.05v4a.82.82,0,0,1-.23.59A.81.81,0,0,1,308.63,258.25Zm.83-6.35h2.05a2.79,2.79,0,0,0,1.29-.28,2.16,2.16,0,0,0,.88-.78,2.06,2.06,0,0,0,.32-1.15,2.38,2.38,0,0,0-.32-1.25,2.16,2.16,0,0,0-.88-.84,2.57,2.57,0,0,0-1.29-.31h-2.05Zm5.81,6.35a.91.91,0,0,1-.41-.09.84.84,0,0,1-.31-.31l-2.88-4.64,1.61-.46,2.63,4.22a.84.84,0,0,1,.08.87A.73.73,0,0,1,315.27,258.25Z"/><path class="cls-8" d="M321.86,258.32a4.79,4.79,0,0,1-2.36-.57,4.15,4.15,0,0,1-1.62-1.57,4.47,4.47,0,0,1-.58-2.3,4.7,4.7,0,0,1,.55-2.31,4,4,0,0,1,1.53-1.56,4.36,4.36,0,0,1,2.24-.57,4,4,0,0,1,2.14.55,3.54,3.54,0,0,1,1.37,1.52,4.94,4.94,0,0,1,.47,2.23.69.69,0,0,1-.21.51.71.71,0,0,1-.52.19h-6.45v-1.27h6.4l-.66.44a3.45,3.45,0,0,0-.32-1.43,2.46,2.46,0,0,0-.86-1,2.39,2.39,0,0,0-1.36-.37,3,3,0,0,0-1.56.4,2.64,2.64,0,0,0-1,1.1,3.62,3.62,0,0,0-.33,1.57,3,3,0,0,0,.4,1.57,3,3,0,0,0,1.1,1.09,3.19,3.19,0,0,0,1.62.4,3,3,0,0,0,1-.18,3.27,3.27,0,0,0,.84-.43.93.93,0,0,1,.52-.18.67.67,0,0,1,.49.17.75.75,0,0,1,.29.52.55.55,0,0,1-.26.5,4.29,4.29,0,0,1-1.35.7A4.61,4.61,0,0,1,321.86,258.32Z"/><path class="cls-8" d="M335.25,262a.8.8,0,0,1-.83-.82v-4.32a4,4,0,0,1-1.35,1.07,4.05,4.05,0,0,1-3.84-.2,4.2,4.2,0,0,1-1.46-1.58,4.7,4.7,0,0,1-.54-2.27,4.44,4.44,0,0,1,.59-2.27,4.31,4.31,0,0,1,3.83-2.17,4.32,4.32,0,0,1,2.24.58,4.38,4.38,0,0,1,1.58,1.59,4.43,4.43,0,0,1,.58,2.27v7.3a.79.79,0,0,1-.8.82Zm-3.6-5.12a2.77,2.77,0,0,0,1.46-.39,2.81,2.81,0,0,0,1-1.08,3.09,3.09,0,0,0,.37-1.53,3.13,3.13,0,0,0-.37-1.54,2.83,2.83,0,0,0-3.91-1.07,2.84,2.84,0,0,0-1,1.07,3.14,3.14,0,0,0-.38,1.54,3.1,3.1,0,0,0,.38,1.53,2.86,2.86,0,0,0,1,1.08A2.76,2.76,0,0,0,331.65,256.88Z"/><path class="cls-8" d="M342.61,258.33a4.05,4.05,0,0,1-2-.47,3.31,3.31,0,0,1-1.37-1.38,4.55,4.55,0,0,1-.51-2.24V250.3a.77.77,0,0,1,.24-.58.85.85,0,0,1,1.16,0,.77.77,0,0,1,.24.58v3.94a3,3,0,0,0,.33,1.48,2.15,2.15,0,0,0,.91.86,2.92,2.92,0,0,0,1.3.28,2.64,2.64,0,0,0,1.22-.27,2.22,2.22,0,0,0,.86-.74,1.8,1.8,0,0,0,.32-1h1a3.32,3.32,0,0,1-.49,1.79,3.53,3.53,0,0,1-1.33,1.27A3.86,3.86,0,0,1,342.61,258.33Zm3.54-.08a.78.78,0,0,1-.59-.23.8.8,0,0,1-.23-.58V250.3a.81.81,0,0,1,.23-.59.82.82,0,0,1,.59-.22.76.76,0,0,1,.81.81v7.14a.79.79,0,0,1-.22.58A.77.77,0,0,1,346.15,258.25Z"/><path class="cls-8" d="M350.82,248.08a1.06,1.06,0,0,1,0-2.12,1.08,1.08,0,0,1,1.05,1.06,1,1,0,0,1-.31.74A1,1,0,0,1,350.82,248.08Zm0,10.17a.78.78,0,0,1-.59-.23.8.8,0,0,1-.23-.58v-7.12a.81.81,0,0,1,.23-.6.86.86,0,0,1,.59-.22.84.84,0,0,1,.59.22.81.81,0,0,1,.22.6v7.12a.79.79,0,0,1-.22.58A.77.77,0,0,1,350.82,258.25Z"/><path class="cls-8" d="M355.47,258.25a.8.8,0,0,1-.59-.2.78.78,0,0,1-.21-.6V250.3a.79.79,0,0,1,.21-.59.8.8,0,0,1,.59-.21.82.82,0,0,1,.6.2.78.78,0,0,1,.2.6v7.15a.77.77,0,0,1-.2.59A.78.78,0,0,1,355.47,258.25Zm0-5.47a3.24,3.24,0,0,1,.47-1.72,3.49,3.49,0,0,1,3-1.65,2.59,2.59,0,0,1,1.43.31.64.64,0,0,1,.36.74.59.59,0,0,1-.18.34.71.71,0,0,1-.31.16,1,1,0,0,1-.39,0,4.41,4.41,0,0,0-1.84,0,2.55,2.55,0,0,0-1.28.65,1.66,1.66,0,0,0-.48,1.22Z"/><path class="cls-8" d="M365.92,258.32a4.82,4.82,0,0,1-2.36-.57,4.05,4.05,0,0,1-1.61-1.57,4.47,4.47,0,0,1-.59-2.3,4.81,4.81,0,0,1,.55-2.31,4,4,0,0,1,1.53-1.56,4.36,4.36,0,0,1,2.24-.57,4,4,0,0,1,2.15.55,3.58,3.58,0,0,1,1.36,1.52,4.94,4.94,0,0,1,.48,2.23.69.69,0,0,1-.21.51.75.75,0,0,1-.53.19h-6.45v-1.27h6.4l-.65.44a3.45,3.45,0,0,0-.32-1.43,2.49,2.49,0,0,0-.87-1,2.36,2.36,0,0,0-1.36-.37,3,3,0,0,0-1.56.4,2.55,2.55,0,0,0-1,1.1,3.48,3.48,0,0,0-.34,1.57,3.13,3.13,0,0,0,.4,1.57,3,3,0,0,0,1.11,1.09,3.25,3.25,0,0,0,2.63.22,3.64,3.64,0,0,0,.84-.43.91.91,0,0,1,.52-.18.69.69,0,0,1,.49.17.74.74,0,0,1,.28.52.57.57,0,0,1-.25.5,4.4,4.4,0,0,1-1.35.7A4.67,4.67,0,0,1,365.92,258.32Z"/><path class="cls-8" d="M372.56,258.27A.8.8,0,0,1,372,258a.78.78,0,0,1-.23-.59v-7.12a.77.77,0,0,1,.23-.59.89.89,0,0,1,1.17,0,.81.81,0,0,1,.23.59v7.12a.82.82,0,0,1-.23.59A.79.79,0,0,1,372.56,258.27Zm5.35,0a.79.79,0,0,1-.82-.82v-4.57a2,2,0,0,0-.5-1.5,1.78,1.78,0,0,0-1.29-.49,1.83,1.83,0,0,0-1.38.58,2.05,2.05,0,0,0-.54,1.47h-1a3.86,3.86,0,0,1,.42-1.83,3.06,3.06,0,0,1,1.15-1.24,3.4,3.4,0,0,1,3.29-.05,2.74,2.74,0,0,1,1.1,1.18,4.12,4.12,0,0,1,.39,1.88v4.57a.82.82,0,0,1-.22.59A.81.81,0,0,1,377.91,258.27Zm5.32,0a.8.8,0,0,1-.58-.23.82.82,0,0,1-.23-.59v-4.57a2,2,0,0,0-.5-1.5,1.78,1.78,0,0,0-1.29-.49,1.8,1.8,0,0,0-1.37.58,2.05,2.05,0,0,0-.54,1.47h-1.33a3.65,3.65,0,0,1,.45-1.83,3.2,3.2,0,0,1,1.26-1.24,3.73,3.73,0,0,1,1.85-.45,3.18,3.18,0,0,1,1.61.4,2.74,2.74,0,0,1,1.1,1.18,4.12,4.12,0,0,1,.39,1.88v4.57a.86.86,0,0,1-.22.59A.81.81,0,0,1,383.23,258.27Z"/><path class="cls-8" d="M390.87,258.32a4.77,4.77,0,0,1-2.36-.57,4.15,4.15,0,0,1-1.62-1.57,4.47,4.47,0,0,1-.58-2.3,4.7,4.7,0,0,1,.55-2.31,4,4,0,0,1,1.53-1.56,4.33,4.33,0,0,1,2.23-.57,4,4,0,0,1,2.15.55,3.6,3.6,0,0,1,1.37,1.52,5.08,5.08,0,0,1,.47,2.23.69.69,0,0,1-.21.51.73.73,0,0,1-.53.19h-6.44v-1.27h6.4l-.66.44a3.45,3.45,0,0,0-.32-1.43,2.46,2.46,0,0,0-.86-1,2.42,2.42,0,0,0-1.37-.37,3,3,0,0,0-1.55.4,2.57,2.57,0,0,0-1,1.1,3.62,3.62,0,0,0-.33,1.57,3,3,0,0,0,.4,1.57,2.88,2.88,0,0,0,1.1,1.09,3.19,3.19,0,0,0,1.62.4,3,3,0,0,0,1-.18,3.27,3.27,0,0,0,.84-.43.91.91,0,0,1,.52-.18.67.67,0,0,1,.49.17.75.75,0,0,1,.29.52.58.58,0,0,1-.26.5,4.29,4.29,0,0,1-1.35.7A4.61,4.61,0,0,1,390.87,258.32Z"/><path class="cls-8" d="M397.5,258.27a.79.79,0,0,1-.81-.82v-7.13a.81.81,0,0,1,.23-.6.9.9,0,0,1,1.18,0,.81.81,0,0,1,.22.6v7.13a.77.77,0,0,1-.82.82Zm6.58,0a.8.8,0,0,1-.58-.23.79.79,0,0,1-.24-.59v-3.93a3,3,0,0,0-.33-1.49,2.13,2.13,0,0,0-.9-.86,3,3,0,0,0-1.31-.28,2.61,2.61,0,0,0-1.22.28,2.26,2.26,0,0,0-.86.72,1.83,1.83,0,0,0-.32,1.05h-1a3.42,3.42,0,0,1,.49-1.8,3.53,3.53,0,0,1,1.34-1.26,4,4,0,0,1,1.9-.46,4.14,4.14,0,0,1,2,.47,3.4,3.4,0,0,1,1.37,1.39,4.5,4.5,0,0,1,.51,2.24v3.93a.79.79,0,0,1-.82.82Z"/><path class="cls-8" d="M407.23,251.2a.81.81,0,0,1-.54-.19.64.64,0,0,1-.21-.49.66.66,0,0,1,.21-.51.76.76,0,0,1,.54-.19h3.7a.76.76,0,0,1,.54.19.66.66,0,0,1,.21.51.64.64,0,0,1-.21.49.81.81,0,0,1-.54.19Zm3.56,7.05a2.58,2.58,0,0,1-1.45-.41,2.83,2.83,0,0,1-1-1.11,3.29,3.29,0,0,1-.37-1.58v-7.63a.76.76,0,0,1,.8-.8.75.75,0,0,1,.57.22.78.78,0,0,1,.23.58v7.63a1.66,1.66,0,0,0,.35,1.07,1.07,1.07,0,0,0,.87.43h.54a.65.65,0,0,1,.49.23.84.84,0,0,1,.2.57.72.72,0,0,1-.27.58,1,1,0,0,1-.68.22Z"/><path class="cls-8" d="M417.2,258.32a6,6,0,0,1-2.07-.35,3.94,3.94,0,0,1-1.48-.87.68.68,0,0,1-.2-.58.79.79,0,0,1,.31-.54.87.87,0,0,1,.63-.22.89.89,0,0,1,.54.28,2.34,2.34,0,0,0,.87.57,3.24,3.24,0,0,0,1.34.27,2.68,2.68,0,0,0,1.41-.31.93.93,0,0,0,.51-.78,1,1,0,0,0-.46-.83,4.26,4.26,0,0,0-1.72-.58,4.93,4.93,0,0,1-2.34-1,2,2,0,0,1-.73-1.57,2,2,0,0,1,.48-1.35,2.93,2.93,0,0,1,1.23-.8,4.58,4.58,0,0,1,1.57-.26,5,5,0,0,1,1.87.33,3.34,3.34,0,0,1,1.3.93.69.69,0,0,1,.2.54.63.63,0,0,1-.27.47.78.78,0,0,1-.61.11,1.14,1.14,0,0,1-.59-.29,2.1,2.1,0,0,0-.86-.52,3.5,3.5,0,0,0-1.07-.15,2.66,2.66,0,0,0-1.19.24.76.76,0,0,0-.49.7,1,1,0,0,0,.15.53,1.28,1.28,0,0,0,.6.41,8.44,8.44,0,0,0,1.31.36,7.07,7.07,0,0,1,1.9.61,2.6,2.6,0,0,1,1,.85,2.15,2.15,0,0,1,.3,1.13,2.36,2.36,0,0,1-.39,1.33,2.64,2.64,0,0,1-1.15.94A4.44,4.44,0,0,1,417.2,258.32Z"/><g class="cls-9"><rect class="cls-8" x="503.89" y="212.87" width="149.45" height="83.34" rx="7"/></g><path class="cls-8" d="M534.67,262.16a.82.82,0,0,1-.84-.83V250.49a.81.81,0,0,1,.24-.6.85.85,0,0,1,.6-.23h3.82a4,4,0,0,1,1.91.43,3.27,3.27,0,0,1,1.3,1.17,3.23,3.23,0,0,1,.47,1.73,2.52,2.52,0,0,1-.42,1.42,3,3,0,0,1-1.17,1,3.12,3.12,0,0,1,1.7,1,2.94,2.94,0,0,1,.64,2,3.6,3.6,0,0,1-.52,1.95,3.68,3.68,0,0,1-1.45,1.34,4.45,4.45,0,0,1-2.12.49Zm.83-7.36h3a2.39,2.39,0,0,0,1.5-.45,1.63,1.63,0,0,0,.58-1.36,1.6,1.6,0,0,0-.58-1.35,2.39,2.39,0,0,0-1.5-.44h-3Zm0,5.82h3.33a3.06,3.06,0,0,0,1.29-.25,1.92,1.92,0,0,0,.88-.76,2.25,2.25,0,0,0,.32-1.23,1.83,1.83,0,0,0-1.2-1.81,3.23,3.23,0,0,0-1.29-.24H535.5Z"/><path class="cls-8" d="M546,262.16a.84.84,0,0,1-.59-.2.78.78,0,0,1-.21-.6v-7.15a.81.81,0,0,1,.21-.6.84.84,0,0,1,.59-.2.71.71,0,0,1,.8.8v7.15a.8.8,0,0,1-.2.59A.78.78,0,0,1,546,262.16Zm0-5.47a3.13,3.13,0,0,1,.47-1.72,3.43,3.43,0,0,1,1.27-1.21,3.52,3.52,0,0,1,1.76-.45,2.59,2.59,0,0,1,1.43.31.65.65,0,0,1,.36.75.59.59,0,0,1-.18.34.64.64,0,0,1-.31.15,1,1,0,0,1-.39,0,4.6,4.6,0,0,0-1.84,0,2.56,2.56,0,0,0-1.29.66,1.69,1.69,0,0,0-.47,1.22Z"/><path class="cls-8" d="M556,262.22a3.86,3.86,0,0,1-2.1-.58,4.07,4.07,0,0,1-1.46-1.59,4.66,4.66,0,0,1-.54-2.26,4.43,4.43,0,0,1,.58-2.27,4.42,4.42,0,0,1,7.65,0,4.44,4.44,0,0,1,.59,2.27h-.63a4.77,4.77,0,0,1-.53,2.26,4.17,4.17,0,0,1-1.47,1.59A3.85,3.85,0,0,1,556,262.22Zm.32-1.44a2.74,2.74,0,0,0,1.45-.39,2.81,2.81,0,0,0,1-1.07,3.37,3.37,0,0,0,0-3.07,2.84,2.84,0,0,0-1-1.08,2.89,2.89,0,0,0-2.9,0,2.89,2.89,0,0,0-1,1.08,3.37,3.37,0,0,0,0,3.07,2.86,2.86,0,0,0,1,1.07A2.74,2.74,0,0,0,556.35,260.78Zm3.58,1.39a.75.75,0,0,1-.58-.23.77.77,0,0,1-.24-.58v-2.45l.31-1.7,1.33.58v3.57a.77.77,0,0,1-.24.58A.76.76,0,0,1,559.93,262.17Z"/><path class="cls-8" d="M564.15,252a1.06,1.06,0,1,1,.75-.31A1,1,0,0,1,564.15,252Zm0,10.18a.8.8,0,0,1-.58-.23.82.82,0,0,1-.23-.59v-7.12a.81.81,0,0,1,.23-.59.79.79,0,0,1,.58-.22.81.81,0,0,1,.6.22.84.84,0,0,1,.22.59v7.12a.86.86,0,0,1-.22.59A.81.81,0,0,1,564.15,262.16Z"/><path class="cls-8" d="M568.83,262.17a.78.78,0,0,1-.59-.23.8.8,0,0,1-.23-.58v-7.14a.81.81,0,0,1,.23-.59.82.82,0,0,1,.59-.22.76.76,0,0,1,.81.81v7.14a.79.79,0,0,1-.22.58A.77.77,0,0,1,568.83,262.17Zm6.57,0a.76.76,0,0,1-.58-.23.77.77,0,0,1-.24-.58v-3.94a3,3,0,0,0-.33-1.49,2.1,2.1,0,0,0-.9-.85,2.9,2.9,0,0,0-1.31-.28,2.66,2.66,0,0,0-1.21.27,2.16,2.16,0,0,0-.87.73,1.79,1.79,0,0,0-.32,1.05h-1a3.37,3.37,0,0,1,.49-1.8,3.53,3.53,0,0,1,1.34-1.26,3.87,3.87,0,0,1,1.9-.46,4,4,0,0,1,2,.47,3.31,3.31,0,0,1,1.37,1.38,4.55,4.55,0,0,1,.51,2.24v3.94a.8.8,0,0,1-.23.58A.78.78,0,0,1,575.4,262.17Z"/><path class="cls-8" d="M582.11,262.22a6.09,6.09,0,0,1-2.08-.34,4.11,4.11,0,0,1-1.48-.87.73.73,0,0,1-.2-.59.75.75,0,0,1,.32-.53.82.82,0,0,1,.63-.22.86.86,0,0,1,.53.28,2.67,2.67,0,0,0,.88.57,3.36,3.36,0,0,0,1.33.26,2.75,2.75,0,0,0,1.42-.3,1,1,0,0,0,.5-.79,1,1,0,0,0-.45-.83,4.51,4.51,0,0,0-1.72-.57,5.24,5.24,0,0,1-2.35-1,2,2,0,0,1-.73-1.57,1.92,1.92,0,0,1,.48-1.35,2.81,2.81,0,0,1,1.24-.8,4.57,4.57,0,0,1,1.56-.27,4.81,4.81,0,0,1,1.88.34,3.12,3.12,0,0,1,1.29.93.74.74,0,0,1,.21.53.6.6,0,0,1-.27.47.8.8,0,0,1-.61.12,1.17,1.17,0,0,1-.59-.29,2.22,2.22,0,0,0-.87-.53,3.47,3.47,0,0,0-1.07-.14,2.66,2.66,0,0,0-1.19.24.75.75,0,0,0-.49.7.93.93,0,0,0,.15.52,1.42,1.42,0,0,0,.6.42,8.3,8.3,0,0,0,1.32.36,7.26,7.26,0,0,1,1.89.6,2.48,2.48,0,0,1,1,.86,2.13,2.13,0,0,1,.31,1.13,2.31,2.31,0,0,1-.4,1.33,2.65,2.65,0,0,1-1.15.94A4.56,4.56,0,0,1,582.11,262.22Z"/><path class="cls-8" d="M587.24,255.1a.76.76,0,0,1-.54-.19.63.63,0,0,1-.21-.48.66.66,0,0,1,.21-.51.76.76,0,0,1,.54-.19h3.7a.76.76,0,0,1,.54.19.66.66,0,0,1,.21.51.63.63,0,0,1-.21.48.76.76,0,0,1-.54.19Zm3.55,7.06a2.66,2.66,0,0,1-1.44-.41,2.83,2.83,0,0,1-1-1.11,3.33,3.33,0,0,1-.37-1.59v-7.63a.77.77,0,0,1,.22-.57.81.81,0,0,1,1.38.57v7.63a1.69,1.69,0,0,0,.35,1.08,1.08,1.08,0,0,0,.86.43h.55a.64.64,0,0,1,.49.22.85.85,0,0,1,.2.58.7.7,0,0,1-.27.57,1,1,0,0,1-.68.23Z"/><path class="cls-8" d="M598,262.22a4.49,4.49,0,0,1-2.28-.57,4,4,0,0,1-1.56-1.56,4.95,4.95,0,0,1,0-4.61,4,4,0,0,1,1.56-1.57,4.84,4.84,0,0,1,4.56,0,4.13,4.13,0,0,1,1.56,1.57,4.67,4.67,0,0,1,.56,2.31,4.58,4.58,0,0,1-.56,2.3,4,4,0,0,1-1.55,1.56A4.5,4.5,0,0,1,598,262.22Zm0-1.44a2.88,2.88,0,0,0,1.48-.38,2.76,2.76,0,0,0,1-1.06,3.22,3.22,0,0,0,.36-1.55,3.27,3.27,0,0,0-.36-1.56,2.69,2.69,0,0,0-1-1.06,3,3,0,0,0-3,0,2.71,2.71,0,0,0-1,1.06,3.27,3.27,0,0,0-.36,1.56,3.22,3.22,0,0,0,.36,1.55,2.78,2.78,0,0,0,1,1.06A2.87,2.87,0,0,0,598,260.78Z"/><path class="cls-8" d="M605.63,262.16a.85.85,0,0,1-.6-.2.78.78,0,0,1-.2-.6v-7.15a.81.81,0,0,1,.2-.6.85.85,0,0,1,.6-.2.81.81,0,0,1,.6.2.82.82,0,0,1,.2.6v7.15a.84.84,0,0,1-.2.59A.81.81,0,0,1,605.63,262.16Zm0-5.47a3.22,3.22,0,0,1,.47-1.72,3.51,3.51,0,0,1,1.27-1.21,3.55,3.55,0,0,1,1.76-.45,2.66,2.66,0,0,1,1.44.31.68.68,0,0,1,.36.75.66.66,0,0,1-.19.34.6.6,0,0,1-.31.15,1,1,0,0,1-.38,0,4.61,4.61,0,0,0-1.84,0,2.48,2.48,0,0,0-1.29.66,1.65,1.65,0,0,0-.47,1.22Z"/><path class="cls-8" d="M613.42,262.17a.78.78,0,0,1-.59-.23.8.8,0,0,1-.23-.58v-7.12a.79.79,0,0,1,.23-.59.82.82,0,0,1,.59-.23.81.81,0,0,1,.59.23.78.78,0,0,1,.22.59v7.12a.79.79,0,0,1-.22.58A.77.77,0,0,1,613.42,262.17Zm5.34,0a.79.79,0,0,1-.81-.81v-4.58a2,2,0,0,0-.5-1.49,1.75,1.75,0,0,0-1.3-.49,1.81,1.81,0,0,0-1.37.57,2.1,2.1,0,0,0-.55,1.48h-1a3.87,3.87,0,0,1,.41-1.84,3.2,3.2,0,0,1,1.15-1.24,3.24,3.24,0,0,1,1.68-.44,3.19,3.19,0,0,1,1.62.4,2.71,2.71,0,0,1,1.1,1.17,4.18,4.18,0,0,1,.39,1.88v4.58a.8.8,0,0,1-.23.58A.74.74,0,0,1,618.76,262.17Zm5.33,0a.76.76,0,0,1-.58-.23.77.77,0,0,1-.24-.58v-4.58a2,2,0,0,0-.49-1.49,1.75,1.75,0,0,0-1.3-.49,1.81,1.81,0,0,0-1.37.57,2.13,2.13,0,0,0-.53,1.48h-1.33a3.66,3.66,0,0,1,.45-1.84,3.31,3.31,0,0,1,1.25-1.24,3.86,3.86,0,0,1,1.85-.44,3.19,3.19,0,0,1,1.62.4,2.64,2.64,0,0,1,1.09,1.17,4,4,0,0,1,.4,1.88v4.58a.8.8,0,0,1-.23.58A.77.77,0,0,1,624.09,262.17Z"/><path class="cls-3" d="M758.34,262.16a.82.82,0,0,1-.83-.83V250.49a.81.81,0,0,1,.24-.6.84.84,0,0,1,.59-.23h7.24a.8.8,0,0,1,.59.22.74.74,0,0,1,.22.57.7.7,0,0,1-.22.54.84.84,0,0,1-.59.21h-6.4v3.89h4.59a.84.84,0,0,1,.59.21.81.81,0,0,1,0,1.11.84.84,0,0,1-.59.21h-4.59v4.71a.82.82,0,0,1-.84.83Z"/><path class="cls-3" d="M769.34,252a1.06,1.06,0,1,1,.74-.31A1,1,0,0,1,769.34,252Zm0,10.18a.79.79,0,0,1-.82-.82v-7.12a.81.81,0,0,1,.23-.59.82.82,0,0,1,.59-.22.76.76,0,0,1,.81.81v7.12a.82.82,0,0,1-.22.59A.81.81,0,0,1,769.34,262.16Z"/><path class="cls-3" d="M774,262.17a.78.78,0,0,1-.59-.23.8.8,0,0,1-.23-.58v-7.14a.81.81,0,0,1,.23-.59.82.82,0,0,1,.59-.22.76.76,0,0,1,.81.81v7.14a.79.79,0,0,1-.22.58A.77.77,0,0,1,774,262.17Zm6.57,0a.76.76,0,0,1-.58-.23.8.8,0,0,1-.23-.58v-3.94a2.88,2.88,0,0,0-.34-1.49,2,2,0,0,0-.9-.85,2.9,2.9,0,0,0-1.31-.28,2.69,2.69,0,0,0-1.21.27,2.3,2.3,0,0,0-.87.73,1.79,1.79,0,0,0-.32,1.05h-1a3.36,3.36,0,0,1,.48-1.8,3.53,3.53,0,0,1,1.34-1.26,3.9,3.9,0,0,1,1.9-.46,4,4,0,0,1,2,.47,3.4,3.4,0,0,1,1.38,1.38,4.66,4.66,0,0,1,.5,2.24v3.94a.8.8,0,0,1-.23.58A.78.78,0,0,1,780.58,262.17Z"/><path class="cls-3" d="M787.75,262.22a3.82,3.82,0,0,1-2.09-.58,4.17,4.17,0,0,1-1.47-1.59,4.77,4.77,0,0,1-.53-2.26,4.43,4.43,0,0,1,.58-2.27,4.34,4.34,0,0,1,3.83-2.18,4.33,4.33,0,0,1,2.24.59,4.38,4.38,0,0,1,1.58,1.59,4.43,4.43,0,0,1,.58,2.27h-.62a4.66,4.66,0,0,1-.54,2.26,4.07,4.07,0,0,1-1.46,1.59A3.86,3.86,0,0,1,787.75,262.22Zm.32-1.44a2.75,2.75,0,0,0,1.46-.39,2.81,2.81,0,0,0,1-1.07,3.45,3.45,0,0,0,0-3.07,2.84,2.84,0,0,0-1-1.08,2.75,2.75,0,0,0-1.46-.39,2.79,2.79,0,0,0-1.45.39,2.86,2.86,0,0,0-1,1.08,3.29,3.29,0,0,0,0,3.07,2.84,2.84,0,0,0,1,1.07A2.79,2.79,0,0,0,788.07,260.78Zm3.59,1.39a.78.78,0,0,1-.59-.23.8.8,0,0,1-.23-.58v-2.45l.3-1.7,1.33.58v3.57a.8.8,0,0,1-.23.58A.76.76,0,0,1,791.66,262.17Z"/><path class="cls-3" d="M797,262.16a2.08,2.08,0,0,1-1.24-.39,2.43,2.43,0,0,1-.85-1,3.73,3.73,0,0,1-.31-1.53v-8.74a.81.81,0,0,1,1.38-.57.77.77,0,0,1,.22.57v8.74a1.88,1.88,0,0,0,.23,1,.66.66,0,0,0,.57.39h.4a.65.65,0,0,1,.52.22.8.8,0,0,1,.2.58.67.67,0,0,1-.3.57,1.27,1.27,0,0,1-.78.23Z"/><path class="cls-3" d="M805.38,262.16a.82.82,0,0,1-.83-.83V250.49a.81.81,0,0,1,.24-.6.84.84,0,0,1,.59-.23.79.79,0,0,1,.83.83v10.84a.8.8,0,0,1-.23.59A.78.78,0,0,1,805.38,262.16Z"/><path class="cls-3" d="M813.22,262.22a4.31,4.31,0,0,1-3.83-2.17,4.47,4.47,0,0,1-.58-2.28,4.8,4.8,0,0,1,.53-2.26,4.14,4.14,0,0,1,1.47-1.58,3.83,3.83,0,0,1,2.09-.59,4,4,0,0,1,1.75.39A4,4,0,0,1,816,254.8v-4.32a.79.79,0,0,1,.23-.59.82.82,0,0,1,.59-.23.81.81,0,0,1,.59.23.78.78,0,0,1,.22.59v7.29a4.47,4.47,0,0,1-.58,2.28,4.38,4.38,0,0,1-1.58,1.59A4.32,4.32,0,0,1,813.22,262.22Zm0-1.44a2.71,2.71,0,0,0,2.47-1.47,3.27,3.27,0,0,0,.36-1.54,3.2,3.2,0,0,0-.36-1.53,2.88,2.88,0,0,0-1-1.07,2.89,2.89,0,0,0-2.9,0,2.86,2.86,0,0,0-1,1.07,3.1,3.1,0,0,0-.38,1.53,3.17,3.17,0,0,0,.38,1.54,2.77,2.77,0,0,0,2.47,1.47Z"/><path class="cls-3" d="M824.62,262.22a4.77,4.77,0,0,1-2.36-.57,4.12,4.12,0,0,1-1.62-1.56,4.5,4.5,0,0,1-.59-2.3,4.67,4.67,0,0,1,.56-2.31,4,4,0,0,1,1.52-1.57,4.39,4.39,0,0,1,2.24-.57,4.09,4.09,0,0,1,2.15.55,3.66,3.66,0,0,1,1.37,1.52,5.12,5.12,0,0,1,.47,2.24.66.66,0,0,1-.21.5.74.74,0,0,1-.53.2h-6.44v-1.28h6.39l-.65.45a3.45,3.45,0,0,0-.32-1.43,2.35,2.35,0,0,0-2.23-1.37,2.92,2.92,0,0,0-1.56.4,2.52,2.52,0,0,0-1,1.09,3.66,3.66,0,0,0-.34,1.58,3.13,3.13,0,0,0,.4,1.57,3,3,0,0,0,1.11,1.09,3.3,3.3,0,0,0,1.62.4,2.82,2.82,0,0,0,1-.19,3,3,0,0,0,.84-.42.92.92,0,0,1,.52-.19.72.72,0,0,1,.49.17.77.77,0,0,1,.29.53.59.59,0,0,1-.26.5,4.51,4.51,0,0,1-1.35.7A4.86,4.86,0,0,1,824.62,262.22Z"/><path class="cls-3" d="M833.77,262.22a3.86,3.86,0,0,1-2.1-.58,4.07,4.07,0,0,1-1.46-1.59,4.66,4.66,0,0,1-.54-2.26,4.53,4.53,0,0,1,.58-2.27,4.42,4.42,0,0,1,7.65,0,4.44,4.44,0,0,1,.59,2.27h-.63a4.77,4.77,0,0,1-.53,2.26,4.17,4.17,0,0,1-1.47,1.59A3.85,3.85,0,0,1,833.77,262.22Zm.32-1.44a2.71,2.71,0,0,0,1.45-.39,2.81,2.81,0,0,0,1-1.07,3.37,3.37,0,0,0,0-3.07,2.84,2.84,0,0,0-1-1.08,2.89,2.89,0,0,0-2.9,0,3,3,0,0,0-1,1.08,3.37,3.37,0,0,0,0,3.07,2.94,2.94,0,0,0,1,1.07A2.74,2.74,0,0,0,834.09,260.78Zm3.58,1.39a.76.76,0,0,1-.58-.23.77.77,0,0,1-.24-.58v-2.45l.31-1.7,1.33.58v3.57a.77.77,0,0,1-.24.58A.76.76,0,0,1,837.67,262.17Z"/><g class="cls-9"><rect class="cls-8" x="722.89" y="380.87" width="149.45" height="83.34" rx="7"/></g><path class="cls-8" d="M768.19,420.16a.82.82,0,0,1-.84-.83V408.49a.81.81,0,0,1,.24-.6.85.85,0,0,1,.6-.23h2.89a6.56,6.56,0,0,1,2.51.46,5.63,5.63,0,0,1,1.95,1.29,5.75,5.75,0,0,1,1.29,2,7.41,7.41,0,0,1,0,5,5.79,5.79,0,0,1-1.29,2,5.63,5.63,0,0,1-1.95,1.29,6.56,6.56,0,0,1-2.51.46Zm.83-1.47h2.06a4.56,4.56,0,0,0,2.38-.62,4.42,4.42,0,0,0,1.62-1.7,5.49,5.49,0,0,0,0-4.95,4.43,4.43,0,0,0-1.62-1.68,4.66,4.66,0,0,0-2.38-.61H769Z"/><path class="cls-8" d="M783.83,420.22a4.82,4.82,0,0,1-2.36-.57,4.16,4.16,0,0,1-1.61-1.56,4.5,4.5,0,0,1-.59-2.3,4.67,4.67,0,0,1,.56-2.31,4,4,0,0,1,1.52-1.57,4.36,4.36,0,0,1,2.24-.57,4.09,4.09,0,0,1,2.15.55,3.66,3.66,0,0,1,1.37,1.52,5.12,5.12,0,0,1,.47,2.24.66.66,0,0,1-.21.5.76.76,0,0,1-.53.2h-6.45v-1.28h6.4l-.65.45a3.45,3.45,0,0,0-.32-1.43,2.35,2.35,0,0,0-2.23-1.37,2.9,2.9,0,0,0-1.56.4,2.52,2.52,0,0,0-1,1.09,3.66,3.66,0,0,0-.34,1.58,3.13,3.13,0,0,0,.4,1.57,3,3,0,0,0,1.11,1.09,3.28,3.28,0,0,0,1.61.4,2.91,2.91,0,0,0,1-.19,3,3,0,0,0,.84-.42.92.92,0,0,1,.52-.19.72.72,0,0,1,.49.17.81.81,0,0,1,.29.53.59.59,0,0,1-.26.5,4.51,4.51,0,0,1-1.35.7A4.91,4.91,0,0,1,783.83,420.22Z"/><path class="cls-8" d="M792.3,420.14a.83.83,0,0,1-.77-.53l-3.39-7.15a.62.62,0,0,1,0-.53.75.75,0,0,1,.41-.41.67.67,0,0,1,.55,0,.74.74,0,0,1,.43.37l3.16,6.83h-.76l3.13-6.83a.76.76,0,0,1,.44-.37.79.79,0,0,1,.6,0,.67.67,0,0,1,.39.4.72.72,0,0,1,0,.54l-3.4,7.15A.76.76,0,0,1,792.3,420.14Z"/><path class="cls-8" d="M801.9,420.22a4.77,4.77,0,0,1-2.36-.57,4.12,4.12,0,0,1-1.62-1.56,4.49,4.49,0,0,1-.58-2.3,4.67,4.67,0,0,1,.55-2.31,4.05,4.05,0,0,1,1.53-1.57,4.34,4.34,0,0,1,2.24-.57,4.08,4.08,0,0,1,2.14.55,3.66,3.66,0,0,1,1.37,1.52,5.12,5.12,0,0,1,.47,2.24.66.66,0,0,1-.21.5.74.74,0,0,1-.53.2h-6.44v-1.28h6.4l-.66.45a3.45,3.45,0,0,0-.32-1.43,2.33,2.33,0,0,0-2.22-1.37,2.87,2.87,0,0,0-1.56.4,2.61,2.61,0,0,0-1,1.09,3.66,3.66,0,0,0-.33,1.58,3,3,0,0,0,.4,1.57,2.88,2.88,0,0,0,1.1,1.09,3.3,3.3,0,0,0,1.62.4,2.82,2.82,0,0,0,1-.19,3,3,0,0,0,.84-.42,1,1,0,0,1,.52-.19.72.72,0,0,1,.49.17.77.77,0,0,1,.29.53.59.59,0,0,1-.26.5,4.51,4.51,0,0,1-1.35.7A4.86,4.86,0,0,1,801.9,420.22Z"/><path class="cls-8" d="M809.8,420.16a2.11,2.11,0,0,1-1.25-.39,2.49,2.49,0,0,1-.84-1,3.58,3.58,0,0,1-.31-1.53v-8.74a.77.77,0,0,1,.22-.57.8.8,0,0,1,.58-.23.78.78,0,0,1,.58.23.77.77,0,0,1,.22.57v8.74a2,2,0,0,0,.22,1,.67.67,0,0,0,.58.39h.4a.66.66,0,0,1,.52.22.85.85,0,0,1,.2.58.67.67,0,0,1-.3.57,1.32,1.32,0,0,1-.79.23Z"/><path class="cls-8" d="M816,420.22a4.5,4.5,0,0,1-2.29-.57,4.1,4.1,0,0,1-1.56-1.56,4.95,4.95,0,0,1,0-4.61,4.13,4.13,0,0,1,1.56-1.57,4.84,4.84,0,0,1,4.56,0,4.13,4.13,0,0,1,1.56,1.57,4.57,4.57,0,0,1,.57,2.31,4.69,4.69,0,0,1-.56,2.3,4.08,4.08,0,0,1-1.55,1.56A4.55,4.55,0,0,1,816,420.22Zm0-1.44a2.87,2.87,0,0,0,1.47-.38,2.69,2.69,0,0,0,1-1.06,3.22,3.22,0,0,0,.36-1.55,3.27,3.27,0,0,0-.36-1.56,2.62,2.62,0,0,0-1-1.06,2.78,2.78,0,0,0-1.47-.39,2.74,2.74,0,0,0-1.47.39,2.65,2.65,0,0,0-1,1.06,3.16,3.16,0,0,0-.37,1.56,3.12,3.12,0,0,0,.37,1.55,2.71,2.71,0,0,0,1,1.06A2.82,2.82,0,0,0,816,418.78Z"/><path class="cls-8" d="M823.66,423.9a.82.82,0,0,1-.59-.23.8.8,0,0,1-.23-.58v-7.3a4.65,4.65,0,0,1,.59-2.27,4.41,4.41,0,0,1,7.64,0,4.44,4.44,0,0,1,.59,2.27,4.66,4.66,0,0,1-.54,2.26,4.15,4.15,0,0,1-1.46,1.59,3.86,3.86,0,0,1-2.1.58,3.9,3.9,0,0,1-1.74-.39,4.35,4.35,0,0,1-1.35-1.06v4.32a.79.79,0,0,1-.22.58A.81.81,0,0,1,823.66,423.9Zm3.58-5.12a2.75,2.75,0,0,0,1.46-.39,2.89,2.89,0,0,0,1-1.07,3.29,3.29,0,0,0,0-3.07,2.92,2.92,0,0,0-1-1.08,2.78,2.78,0,0,0-3.92,1.08,3.37,3.37,0,0,0,0,3.07,2.73,2.73,0,0,0,2.46,1.46Z"/><path class="cls-8" d="M761,439.36a.82.82,0,0,1-.83-.83V427.69a.81.81,0,0,1,.24-.6.84.84,0,0,1,.59-.23h3.2a4.26,4.26,0,0,1,2.13.53,3.77,3.77,0,0,1,1.45,1.46,4.48,4.48,0,0,1,.52,2.16,4.2,4.2,0,0,1-.52,2.08,3.73,3.73,0,0,1-1.45,1.42,4.36,4.36,0,0,1-2.13.51h-2.37v3.51a.8.8,0,0,1-.23.59A.78.78,0,0,1,761,439.36Zm.83-5.87h2.37a2.64,2.64,0,0,0,1.3-.32,2.47,2.47,0,0,0,.88-.88,2.59,2.59,0,0,0,.32-1.28,2.82,2.82,0,0,0-.32-1.36,2.59,2.59,0,0,0-.88-.92,2.54,2.54,0,0,0-1.3-.33h-2.37Z"/><path class="cls-8" d="M770.74,439.36a.81.81,0,0,1-.59-.2.78.78,0,0,1-.21-.6v-7.15a.8.8,0,1,1,1.6,0v7.15a.84.84,0,0,1-.2.59A.81.81,0,0,1,770.74,439.36Zm0-5.47a3.22,3.22,0,0,1,.47-1.72,3.51,3.51,0,0,1,1.27-1.21,3.57,3.57,0,0,1,1.76-.45,2.63,2.63,0,0,1,1.44.31.68.68,0,0,1,.36.75.61.61,0,0,1-.5.49,1,1,0,0,1-.38,0,4.6,4.6,0,0,0-1.84,0,2.48,2.48,0,0,0-1.29.66,1.69,1.69,0,0,0-.47,1.22Z"/><path class="cls-8" d="M781,439.42a4.55,4.55,0,0,1-2.29-.57,4.1,4.1,0,0,1-1.56-1.56,5,5,0,0,1,0-4.61,4.13,4.13,0,0,1,1.56-1.57,4.55,4.55,0,0,1,2.29-.57,4.45,4.45,0,0,1,2.27.57,4.06,4.06,0,0,1,1.56,1.57,5,5,0,0,1,0,4.61,4,4,0,0,1-1.55,1.56A4.5,4.5,0,0,1,781,439.42Zm0-1.44a2.82,2.82,0,0,0,1.47-.38,2.69,2.69,0,0,0,1-1.06,3.22,3.22,0,0,0,.36-1.55,3.27,3.27,0,0,0-.36-1.56,2.62,2.62,0,0,0-1-1.06A2.74,2.74,0,0,0,781,432a2.78,2.78,0,0,0-1.47.39,2.71,2.71,0,0,0-1,1.06,3.27,3.27,0,0,0-.37,1.56,3.23,3.23,0,0,0,.37,1.55,2.78,2.78,0,0,0,1,1.06A2.87,2.87,0,0,0,781,438Z"/><path class="cls-8" d="M787.51,432.3a.77.77,0,0,1-.55-.19.63.63,0,0,1-.21-.48.66.66,0,0,1,.21-.51.77.77,0,0,1,.55-.19h3.69a.77.77,0,0,1,.55.19.69.69,0,0,1,.2.51.66.66,0,0,1-.2.48.77.77,0,0,1-.55.19Zm3.55,7.06a2.63,2.63,0,0,1-1.44-.41,2.85,2.85,0,0,1-1-1.11,3.44,3.44,0,0,1-.37-1.58v-7.64a.81.81,0,0,1,1.38-.57.77.77,0,0,1,.22.57v7.64a1.68,1.68,0,0,0,.35,1.07,1.12,1.12,0,0,0,.87.43h.54a.63.63,0,0,1,.49.22.85.85,0,0,1,.2.58.72.72,0,0,1-.26.57,1,1,0,0,1-.68.23Z"/><path class="cls-8" d="M798.26,439.42a4.5,4.5,0,0,1-2.29-.57,4.1,4.1,0,0,1-1.56-1.56,4.95,4.95,0,0,1,0-4.61,4.13,4.13,0,0,1,1.56-1.57,4.84,4.84,0,0,1,4.56,0,4.13,4.13,0,0,1,1.56,1.57,4.57,4.57,0,0,1,.57,2.31,4.69,4.69,0,0,1-.56,2.3,4.08,4.08,0,0,1-1.55,1.56A4.55,4.55,0,0,1,798.26,439.42Zm0-1.44a2.87,2.87,0,0,0,1.47-.38,2.69,2.69,0,0,0,1-1.06,3.22,3.22,0,0,0,.36-1.55,3.27,3.27,0,0,0-.36-1.56,2.62,2.62,0,0,0-1-1.06,2.78,2.78,0,0,0-1.47-.39,2.74,2.74,0,0,0-1.47.39,2.65,2.65,0,0,0-1,1.06,3.16,3.16,0,0,0-.37,1.56,3.12,3.12,0,0,0,.37,1.55,2.71,2.71,0,0,0,1,1.06A2.82,2.82,0,0,0,798.26,438Z"/><path class="cls-8" d="M804.72,432.3a.76.76,0,0,1-.54-.19.63.63,0,0,1-.21-.48.66.66,0,0,1,.21-.51.76.76,0,0,1,.54-.19h3.7a.76.76,0,0,1,.54.19.66.66,0,0,1,.21.51.63.63,0,0,1-.21.48.76.76,0,0,1-.54.19Zm3.55,7.06a2.66,2.66,0,0,1-1.44-.41,2.83,2.83,0,0,1-1-1.11,3.32,3.32,0,0,1-.37-1.58v-7.64a.77.77,0,0,1,.22-.57.81.81,0,0,1,1.38.57v7.64a1.68,1.68,0,0,0,.35,1.07,1.08,1.08,0,0,0,.86.43h.55a.64.64,0,0,1,.49.22.85.85,0,0,1,.2.58.7.7,0,0,1-.27.57,1,1,0,0,1-.68.23Z"/><path class="cls-8" d="M815,439a.75.75,0,0,1-.57,0,.83.83,0,0,1-.42-.41l-3.66-7a.63.63,0,0,1,0-.58.77.77,0,0,1,.42-.41.78.78,0,0,1,.58,0,.73.73,0,0,1,.41.4l3.51,7a1.08,1.08,0,0,1,.12.59A.53.53,0,0,1,815,439Zm-1.89,4.19a.93.93,0,0,1-.38-.1.67.67,0,0,1-.38-1l4.88-11a.68.68,0,0,1,1-.38.66.66,0,0,1,.4,1l-4.89,11A.67.67,0,0,1,813.07,443.2Z"/><path class="cls-8" d="M821,443.1a.82.82,0,0,1-.59-.23.8.8,0,0,1-.23-.58V435a4.65,4.65,0,0,1,.59-2.27,4.31,4.31,0,0,1,3.81-2.18,4.4,4.4,0,0,1,2.26.59,4.35,4.35,0,0,1,1.57,1.59A4.44,4.44,0,0,1,829,435a4.73,4.73,0,0,1-.54,2.27,4.27,4.27,0,0,1-1.46,1.58,3.86,3.86,0,0,1-2.1.58,3.9,3.9,0,0,1-1.74-.39,4.24,4.24,0,0,1-1.35-1.06v4.32a.79.79,0,0,1-.22.58A.81.81,0,0,1,821,443.1Zm3.58-5.12a2.77,2.77,0,0,0,1.46-.39,2.89,2.89,0,0,0,1-1.07,3.29,3.29,0,0,0,0-3.07,2.92,2.92,0,0,0-1-1.08,2.78,2.78,0,0,0-3.92,1.08,3.37,3.37,0,0,0,0,3.07,2.73,2.73,0,0,0,2.46,1.46Z"/><path class="cls-8" d="M835.49,439.42a4.79,4.79,0,0,1-2.36-.57,4.12,4.12,0,0,1-1.62-1.56,4.49,4.49,0,0,1-.58-2.3,4.67,4.67,0,0,1,.55-2.31,4.05,4.05,0,0,1,1.53-1.57,4.36,4.36,0,0,1,2.24-.57,4.05,4.05,0,0,1,2.14.55,3.6,3.6,0,0,1,1.37,1.52,5,5,0,0,1,.47,2.24.69.69,0,0,1-.2.5.76.76,0,0,1-.53.2h-6.45v-1.28h6.4l-.66.45a3.3,3.3,0,0,0-.32-1.43,2.33,2.33,0,0,0-2.22-1.37,2.87,2.87,0,0,0-1.56.4,2.58,2.58,0,0,0-1,1.09,3.52,3.52,0,0,0-.34,1.58,3,3,0,0,0,.4,1.57,3,3,0,0,0,1.1,1.09,3.3,3.3,0,0,0,1.62.4,2.91,2.91,0,0,0,1-.19,3.29,3.29,0,0,0,.84-.42.84.84,0,0,1,.52-.18.65.65,0,0,1,.48.16.73.73,0,0,1,.29.53.58.58,0,0,1-.25.5,4.7,4.7,0,0,1-1.36.7A4.81,4.81,0,0,1,835.49,439.42Z"/><g class="cls-9"><rect class="cls-8" x="504.89" y="380.87" width="149.45" height="83.34" rx="7"/></g><path class="cls-8" d="M543.72,420.16a.76.76,0,0,1-.69-.39.81.81,0,0,1,0-.81l4.49-10.74a.82.82,0,0,1,.79-.56.78.78,0,0,1,.78.56L553.56,419a.85.85,0,0,1,0,.81.78.78,0,0,1-.7.36.88.88,0,0,1-.46-.14.81.81,0,0,1-.31-.37l-4-9.86h.45l-4,9.86a.77.77,0,0,1-.33.38A.8.8,0,0,1,543.72,420.16Zm.85-2.75.64-1.38h6.27l.64,1.38Z"/><path class="cls-8" d="M559.71,420.22a4.36,4.36,0,0,1-2.25-.58,4.25,4.25,0,0,1-1.56-1.59,4.58,4.58,0,0,1-.59-2.28v-7.29a.75.75,0,0,1,.23-.59.8.8,0,0,1,.58-.23.79.79,0,0,1,.82.82v4.32a4.16,4.16,0,0,1,1.35-1.07,3.9,3.9,0,0,1,1.74-.39,3.86,3.86,0,0,1,2.09.59,4.14,4.14,0,0,1,1.47,1.58,4.8,4.8,0,0,1,.53,2.26,4.47,4.47,0,0,1-.58,2.28,4.38,4.38,0,0,1-1.58,1.59A4.34,4.34,0,0,1,559.71,420.22Zm0-1.44a2.74,2.74,0,0,0,1.45-.39,2.79,2.79,0,0,0,1-1.08,3.16,3.16,0,0,0,.37-1.54,3.09,3.09,0,0,0-.37-1.53,2.91,2.91,0,0,0-1-1.07,2.89,2.89,0,0,0-2.9,0,2.91,2.91,0,0,0-1,1.07,3.21,3.21,0,0,0-.37,1.53,3.27,3.27,0,0,0,.37,1.54,2.79,2.79,0,0,0,1,1.08A2.74,2.74,0,0,0,559.71,418.78Z"/><path class="cls-8" d="M570.2,420.22a3.8,3.8,0,0,1-2.09-.58,4.17,4.17,0,0,1-1.47-1.59,4.77,4.77,0,0,1-.53-2.26,4.43,4.43,0,0,1,.58-2.27,4.34,4.34,0,0,1,3.83-2.18,4.33,4.33,0,0,1,2.24.59,4.38,4.38,0,0,1,1.58,1.59,4.43,4.43,0,0,1,.58,2.27h-.62a4.66,4.66,0,0,1-.54,2.26,4.15,4.15,0,0,1-1.46,1.59A3.86,3.86,0,0,1,570.2,420.22Zm.32-1.44a2.75,2.75,0,0,0,1.46-.39,2.89,2.89,0,0,0,1-1.07,3.45,3.45,0,0,0,0-3.07,2.92,2.92,0,0,0-1-1.08,2.75,2.75,0,0,0-1.46-.39,2.79,2.79,0,0,0-1.45.39,2.86,2.86,0,0,0-1,1.08,3.29,3.29,0,0,0,0,3.07,2.84,2.84,0,0,0,1,1.07A2.79,2.79,0,0,0,570.52,418.78Zm3.59,1.39a.78.78,0,0,1-.59-.23.8.8,0,0,1-.23-.58v-2.45l.3-1.7,1.33.58v3.57a.8.8,0,0,1-.23.58A.76.76,0,0,1,574.11,420.17Z"/><path class="cls-8" d="M578.17,420.17a.76.76,0,0,1-.58-.23.77.77,0,0,1-.24-.58v-7.14a.78.78,0,0,1,.24-.59.89.89,0,0,1,1.17,0,.81.81,0,0,1,.23.59v7.14a.8.8,0,0,1-.23.58A.77.77,0,0,1,578.17,420.17Zm6.58,0a.78.78,0,0,1-.59-.23.8.8,0,0,1-.23-.58v-3.94a2.88,2.88,0,0,0-.34-1.49,2,2,0,0,0-.9-.85,2.87,2.87,0,0,0-1.31-.28,2.69,2.69,0,0,0-1.21.27,2.3,2.3,0,0,0-.87.73,1.78,1.78,0,0,0-.31,1.05h-1a3.36,3.36,0,0,1,.48-1.8,3.61,3.61,0,0,1,1.34-1.26,3.91,3.91,0,0,1,1.91-.46,4,4,0,0,1,2,.47,3.4,3.4,0,0,1,1.38,1.38,4.66,4.66,0,0,1,.5,2.24v3.94a.8.8,0,0,1-.23.58A.76.76,0,0,1,584.75,420.17Z"/><path class="cls-8" d="M592.23,420.22a4.34,4.34,0,0,1-3.83-2.17,4.47,4.47,0,0,1-.58-2.28,4.8,4.8,0,0,1,.53-2.26,4.14,4.14,0,0,1,1.47-1.58,3.83,3.83,0,0,1,2.09-.59,4,4,0,0,1,1.75.39A4,4,0,0,1,595,412.8v-4.32a.79.79,0,0,1,.23-.59.82.82,0,0,1,.59-.23.81.81,0,0,1,.59.23.78.78,0,0,1,.22.59v7.29a4.47,4.47,0,0,1-.58,2.28,4.38,4.38,0,0,1-1.58,1.59A4.3,4.3,0,0,1,592.23,420.22Zm0-1.44a2.71,2.71,0,0,0,2.47-1.47,3.27,3.27,0,0,0,.37-1.54,3.21,3.21,0,0,0-.37-1.53,2.88,2.88,0,0,0-1-1.07,2.89,2.89,0,0,0-2.9,0,2.86,2.86,0,0,0-1,1.07,3.1,3.1,0,0,0-.38,1.53,3.17,3.17,0,0,0,.38,1.54,2.77,2.77,0,0,0,2.47,1.47Z"/><path class="cls-8" d="M603.48,420.22a4.55,4.55,0,0,1-2.29-.57,4.1,4.1,0,0,1-1.56-1.56,5,5,0,0,1,0-4.61,4.13,4.13,0,0,1,1.56-1.57,4.55,4.55,0,0,1,2.29-.57,4.45,4.45,0,0,1,2.27.57,4.06,4.06,0,0,1,1.56,1.57,5,5,0,0,1,0,4.61,4,4,0,0,1-1.55,1.56A4.5,4.5,0,0,1,603.48,420.22Zm0-1.44a2.82,2.82,0,0,0,1.47-.38,2.69,2.69,0,0,0,1-1.06,3.22,3.22,0,0,0,.36-1.55,3.27,3.27,0,0,0-.36-1.56,2.62,2.62,0,0,0-1-1.06,2.74,2.74,0,0,0-1.47-.39,2.78,2.78,0,0,0-1.47.39,2.71,2.71,0,0,0-1,1.06,3.27,3.27,0,0,0-.37,1.56,3.23,3.23,0,0,0,.37,1.55,2.78,2.78,0,0,0,1,1.06A2.87,2.87,0,0,0,603.48,418.78Z"/><path class="cls-8" d="M611.13,420.17a.78.78,0,0,1-.59-.23.8.8,0,0,1-.23-.58v-7.14a.81.81,0,0,1,.23-.59.82.82,0,0,1,.59-.22.77.77,0,0,1,.82.81v7.14a.8.8,0,0,1-.23.58A.77.77,0,0,1,611.13,420.17Zm6.58,0a.78.78,0,0,1-.59-.23.8.8,0,0,1-.23-.58v-3.94a2.88,2.88,0,0,0-.34-1.49,2,2,0,0,0-.9-.85,2.86,2.86,0,0,0-1.3-.28,2.7,2.7,0,0,0-1.22.27,2.2,2.2,0,0,0-.86.73,1.72,1.72,0,0,0-.32,1.05h-1a3.28,3.28,0,0,1,.49-1.8,3.51,3.51,0,0,1,1.33-1.26,3.91,3.91,0,0,1,1.91-.46,4,4,0,0,1,2,.47,3.4,3.4,0,0,1,1.38,1.38,4.66,4.66,0,0,1,.5,2.24v3.94a.8.8,0,0,1-.23.58A.78.78,0,0,1,617.71,420.17Z"/><path class="cls-8" d="M543,439.36a.82.82,0,0,1-.83-.83V427.69a.81.81,0,0,1,.24-.6.84.84,0,0,1,.59-.23h3.2a4.26,4.26,0,0,1,2.13.53,3.77,3.77,0,0,1,1.45,1.46,4.48,4.48,0,0,1,.52,2.16,4.2,4.2,0,0,1-.52,2.08,3.73,3.73,0,0,1-1.45,1.42,4.36,4.36,0,0,1-2.13.51h-2.37v3.51a.8.8,0,0,1-.23.59A.78.78,0,0,1,543,439.36Zm.83-5.87h2.37a2.64,2.64,0,0,0,1.3-.32,2.47,2.47,0,0,0,.88-.88,2.59,2.59,0,0,0,.32-1.28,2.82,2.82,0,0,0-.32-1.36,2.59,2.59,0,0,0-.88-.92,2.54,2.54,0,0,0-1.3-.33h-2.37Z"/><path class="cls-8" d="M552.74,439.36a.81.81,0,0,1-.59-.2.78.78,0,0,1-.21-.6v-7.15a.8.8,0,1,1,1.6,0v7.15a.84.84,0,0,1-.2.59A.81.81,0,0,1,552.74,439.36Zm0-5.47a3.22,3.22,0,0,1,.47-1.72,3.51,3.51,0,0,1,1.27-1.21,3.57,3.57,0,0,1,1.76-.45,2.63,2.63,0,0,1,1.44.31.68.68,0,0,1,.36.75.61.61,0,0,1-.5.49,1,1,0,0,1-.38,0,4.6,4.6,0,0,0-1.84,0,2.48,2.48,0,0,0-1.29.66,1.69,1.69,0,0,0-.47,1.22Z"/><path class="cls-8" d="M563,439.42a4.55,4.55,0,0,1-2.29-.57,4.1,4.1,0,0,1-1.56-1.56,5,5,0,0,1,0-4.61,4.13,4.13,0,0,1,1.56-1.57,4.55,4.55,0,0,1,2.29-.57,4.45,4.45,0,0,1,2.27.57,4.06,4.06,0,0,1,1.56,1.57,5,5,0,0,1,0,4.61,4,4,0,0,1-1.55,1.56A4.5,4.5,0,0,1,563,439.42Zm0-1.44a2.82,2.82,0,0,0,1.47-.38,2.69,2.69,0,0,0,1-1.06,3.22,3.22,0,0,0,.36-1.55,3.27,3.27,0,0,0-.36-1.56,2.62,2.62,0,0,0-1-1.06A2.74,2.74,0,0,0,563,432a2.78,2.78,0,0,0-1.47.39,2.71,2.71,0,0,0-1,1.06,3.27,3.27,0,0,0-.37,1.56,3.23,3.23,0,0,0,.37,1.55,2.78,2.78,0,0,0,1,1.06A2.87,2.87,0,0,0,563,438Z"/><path class="cls-8" d="M569.51,432.3a.77.77,0,0,1-.55-.19.63.63,0,0,1-.21-.48.66.66,0,0,1,.21-.51.77.77,0,0,1,.55-.19h3.69a.77.77,0,0,1,.55.19.69.69,0,0,1,.2.51.66.66,0,0,1-.2.48.77.77,0,0,1-.55.19Zm3.55,7.06a2.63,2.63,0,0,1-1.44-.41,2.85,2.85,0,0,1-1-1.11,3.44,3.44,0,0,1-.37-1.58v-7.64a.81.81,0,0,1,1.38-.57.77.77,0,0,1,.22.57v7.64a1.68,1.68,0,0,0,.35,1.07,1.12,1.12,0,0,0,.87.43h.54a.63.63,0,0,1,.49.22.85.85,0,0,1,.2.58.72.72,0,0,1-.26.57,1,1,0,0,1-.68.23Z"/><path class="cls-8" d="M580.26,439.42a4.5,4.5,0,0,1-2.29-.57,4.1,4.1,0,0,1-1.56-1.56,4.95,4.95,0,0,1,0-4.61,4.13,4.13,0,0,1,1.56-1.57,4.84,4.84,0,0,1,4.56,0,4.13,4.13,0,0,1,1.56,1.57,4.57,4.57,0,0,1,.57,2.31,4.69,4.69,0,0,1-.56,2.3,4.08,4.08,0,0,1-1.55,1.56A4.55,4.55,0,0,1,580.26,439.42Zm0-1.44a2.87,2.87,0,0,0,1.47-.38,2.69,2.69,0,0,0,1-1.06,3.22,3.22,0,0,0,.36-1.55,3.27,3.27,0,0,0-.36-1.56,2.62,2.62,0,0,0-1-1.06,2.78,2.78,0,0,0-1.47-.39,2.74,2.74,0,0,0-1.47.39,2.65,2.65,0,0,0-1,1.06,3.16,3.16,0,0,0-.37,1.56,3.12,3.12,0,0,0,.37,1.55,2.71,2.71,0,0,0,1,1.06A2.82,2.82,0,0,0,580.26,438Z"/><path class="cls-8" d="M586.72,432.3a.76.76,0,0,1-.54-.19.63.63,0,0,1-.21-.48.66.66,0,0,1,.21-.51.76.76,0,0,1,.54-.19h3.7a.76.76,0,0,1,.54.19.66.66,0,0,1,.21.51.63.63,0,0,1-.21.48.76.76,0,0,1-.54.19Zm3.55,7.06a2.66,2.66,0,0,1-1.44-.41,2.83,2.83,0,0,1-1-1.11,3.32,3.32,0,0,1-.37-1.58v-7.64a.77.77,0,0,1,.22-.57.81.81,0,0,1,1.38.57v7.64a1.68,1.68,0,0,0,.35,1.07,1.08,1.08,0,0,0,.86.43h.55a.64.64,0,0,1,.49.22.85.85,0,0,1,.2.58.7.7,0,0,1-.27.57,1,1,0,0,1-.68.23Z"/><path class="cls-8" d="M597,439a.75.75,0,0,1-.57,0,.83.83,0,0,1-.42-.41l-3.66-7a.63.63,0,0,1,0-.58.77.77,0,0,1,.42-.41.78.78,0,0,1,.58,0,.73.73,0,0,1,.41.4l3.51,7a1.08,1.08,0,0,1,.12.59A.53.53,0,0,1,597,439Zm-1.89,4.19a.93.93,0,0,1-.38-.1.67.67,0,0,1-.38-1l4.88-11a.68.68,0,0,1,1-.38.66.66,0,0,1,.4,1l-4.89,11A.67.67,0,0,1,595.07,443.2Z"/><path class="cls-8" d="M603,443.1a.82.82,0,0,1-.59-.23.8.8,0,0,1-.23-.58V435a4.65,4.65,0,0,1,.59-2.27,4.31,4.31,0,0,1,3.81-2.18,4.4,4.4,0,0,1,2.26.59,4.35,4.35,0,0,1,1.57,1.59A4.44,4.44,0,0,1,611,435a4.73,4.73,0,0,1-.54,2.27,4.27,4.27,0,0,1-1.46,1.58,3.86,3.86,0,0,1-2.1.58,3.9,3.9,0,0,1-1.74-.39,4.24,4.24,0,0,1-1.35-1.06v4.32a.79.79,0,0,1-.22.58A.81.81,0,0,1,603,443.1Zm3.58-5.12a2.77,2.77,0,0,0,1.46-.39,2.89,2.89,0,0,0,1-1.07,3.29,3.29,0,0,0,0-3.07,2.92,2.92,0,0,0-1-1.08,2.78,2.78,0,0,0-3.92,1.08,3.37,3.37,0,0,0,0,3.07,2.73,2.73,0,0,0,2.46,1.46Z"/><path class="cls-8" d="M617.49,439.42a4.79,4.79,0,0,1-2.36-.57,4.12,4.12,0,0,1-1.62-1.56,4.49,4.49,0,0,1-.58-2.3,4.67,4.67,0,0,1,.55-2.31,4.05,4.05,0,0,1,1.53-1.57,4.36,4.36,0,0,1,2.24-.57,4.05,4.05,0,0,1,2.14.55,3.6,3.6,0,0,1,1.37,1.52,5,5,0,0,1,.47,2.24.69.69,0,0,1-.2.5.76.76,0,0,1-.53.2h-6.45v-1.28h6.4l-.66.45a3.3,3.3,0,0,0-.32-1.43,2.33,2.33,0,0,0-2.22-1.37,2.87,2.87,0,0,0-1.56.4,2.58,2.58,0,0,0-1,1.09,3.52,3.52,0,0,0-.34,1.58,3,3,0,0,0,.4,1.57,3,3,0,0,0,1.1,1.09,3.3,3.3,0,0,0,1.62.4,2.91,2.91,0,0,0,1-.19,3.29,3.29,0,0,0,.84-.42.84.84,0,0,1,.52-.18.65.65,0,0,1,.48.16.73.73,0,0,1,.29.53.58.58,0,0,1-.25.5,4.7,4.7,0,0,1-1.36.7A4.81,4.81,0,0,1,617.49,439.42Z"/><g class="cls-9"><rect class="cls-8" x="722.89" y="521.87" width="149.45" height="83.34" rx="7"/></g><path class="cls-8" d="M753.1,561.32a6,6,0,0,1-4.39-1.85,6.24,6.24,0,0,1-1.32-2,6.78,6.78,0,0,1-.47-2.53,6.66,6.66,0,0,1,.47-2.5,6.3,6.3,0,0,1,1.32-2,6.2,6.2,0,0,1,1.95-1.37,6,6,0,0,1,2.44-.5,5.48,5.48,0,0,1,3.9,1.38.76.76,0,0,1,.2.2.67.67,0,0,1,.1.21,1.66,1.66,0,0,1,0,.24.66.66,0,0,1-.21.51.85.85,0,0,1-1.12,0,4.65,4.65,0,0,0-1.22-.78,4.31,4.31,0,0,0-1.67-.27,4.13,4.13,0,0,0-1.78.38,4.76,4.76,0,0,0-1.46,1.06,4.83,4.83,0,0,0-1,1.56,5.33,5.33,0,0,0,0,3.8,4.83,4.83,0,0,0,1,1.56,4.57,4.57,0,0,0,1.46,1,4.28,4.28,0,0,0,1.78.38,4.17,4.17,0,0,0,1.54-.28,6.06,6.06,0,0,0,1.4-.78.81.81,0,0,1,.57-.18.72.72,0,0,1,.47.22.77.77,0,0,1,.19.55.87.87,0,0,1-.06.32,1,1,0,0,1-.19.28,7,7,0,0,1-1.85,1A6.25,6.25,0,0,1,753.1,561.32Z"/><path class="cls-8" d="M762.78,561.22a3.86,3.86,0,0,1-2.1-.58,4.07,4.07,0,0,1-1.46-1.59,4.66,4.66,0,0,1-.54-2.26,4.34,4.34,0,0,1,.59-2.27,4.23,4.23,0,0,1,1.58-1.59,4.39,4.39,0,0,1,2.25-.59,4.31,4.31,0,0,1,3.81,2.18,4.44,4.44,0,0,1,.59,2.27h-.63a4.77,4.77,0,0,1-.53,2.26,4.17,4.17,0,0,1-1.47,1.59A3.85,3.85,0,0,1,762.78,561.22Zm.32-1.44a2.73,2.73,0,0,0,2.46-1.46,3.37,3.37,0,0,0,0-3.07,2.76,2.76,0,0,0-1-1.08,2.89,2.89,0,0,0-2.9,0,2.89,2.89,0,0,0-1,1.08,3.37,3.37,0,0,0,0,3.07,2.86,2.86,0,0,0,1,1.07A2.74,2.74,0,0,0,763.1,559.78Zm3.58,1.39a.79.79,0,0,1-.81-.81v-2.45l.3-1.7,1.33.58v3.57a.8.8,0,0,1-.23.58A.78.78,0,0,1,766.68,561.17Z"/><path class="cls-8" d="M770.74,561.17a.76.76,0,0,1-.58-.23.8.8,0,0,1-.23-.58v-7.14a.81.81,0,0,1,.23-.59.79.79,0,0,1,.58-.22.81.81,0,0,1,.6.22.8.8,0,0,1,.22.59v7.14a.79.79,0,0,1-.22.58A.78.78,0,0,1,770.74,561.17Zm6.58,0a.76.76,0,0,1-.58-.23.77.77,0,0,1-.24-.58v-3.94a3,3,0,0,0-.33-1.49,2.1,2.1,0,0,0-.9-.85,2.9,2.9,0,0,0-1.31-.28,2.73,2.73,0,0,0-1.22.27,2.2,2.2,0,0,0-.86.73,1.79,1.79,0,0,0-.32,1.05h-1a3.28,3.28,0,0,1,.49-1.8,3.53,3.53,0,0,1,1.34-1.26,3.87,3.87,0,0,1,1.9-.46,4,4,0,0,1,2,.47,3.31,3.31,0,0,1,1.37,1.38,4.55,4.55,0,0,1,.51,2.24v3.94a.77.77,0,0,1-.24.58A.76.76,0,0,1,777.32,561.17Z"/><path class="cls-8" d="M786.52,561.16a.82.82,0,0,1-.83-.83V549.49a.81.81,0,0,1,.24-.6.84.84,0,0,1,.59-.23h3.2a4.26,4.26,0,0,1,2.13.53,3.77,3.77,0,0,1,1.45,1.46,4.48,4.48,0,0,1,.52,2.16,4.2,4.2,0,0,1-.52,2.08,3.73,3.73,0,0,1-1.45,1.42,4.36,4.36,0,0,1-2.13.51h-2.37v3.51a.8.8,0,0,1-.23.59A.78.78,0,0,1,786.52,561.16Zm.83-5.87h2.37A2.64,2.64,0,0,0,791,555a2.47,2.47,0,0,0,.88-.88,2.59,2.59,0,0,0,.32-1.28,2.82,2.82,0,0,0-.32-1.36,2.59,2.59,0,0,0-.88-.92,2.54,2.54,0,0,0-1.3-.33h-2.37Z"/><path class="cls-8" d="M796.3,561.16a.81.81,0,0,1-.59-.2.78.78,0,0,1-.21-.6v-7.15a.8.8,0,1,1,1.6,0v7.15a.84.84,0,0,1-.2.59A.81.81,0,0,1,796.3,561.16Zm0-5.47a3.22,3.22,0,0,1,.47-1.72,3.57,3.57,0,0,1,3-1.66,2.62,2.62,0,0,1,1.43.31.68.68,0,0,1,.36.75.66.66,0,0,1-.19.34.6.6,0,0,1-.31.15,1,1,0,0,1-.38,0,4.61,4.61,0,0,0-1.84,0,2.48,2.48,0,0,0-1.29.66,1.65,1.65,0,0,0-.47,1.22Z"/><path class="cls-8" d="M806.6,561.22a4.52,4.52,0,0,1-2.29-.57,4.1,4.1,0,0,1-1.56-1.56,5,5,0,0,1,0-4.61,4.13,4.13,0,0,1,1.56-1.57,4.52,4.52,0,0,1,2.29-.57,4.45,4.45,0,0,1,2.27.57,4.06,4.06,0,0,1,1.56,1.57,4.57,4.57,0,0,1,.57,2.31,4.69,4.69,0,0,1-.56,2.3,4,4,0,0,1-1.55,1.56A4.5,4.5,0,0,1,806.6,561.22Zm0-1.44a2.82,2.82,0,0,0,1.47-.38,2.69,2.69,0,0,0,1-1.06,3.22,3.22,0,0,0,.36-1.55,3.27,3.27,0,0,0-.36-1.56,2.62,2.62,0,0,0-1-1.06,2.74,2.74,0,0,0-1.47-.39,2.78,2.78,0,0,0-1.47.39,2.71,2.71,0,0,0-1,1.06,3.27,3.27,0,0,0-.37,1.56,3.23,3.23,0,0,0,.37,1.55,2.78,2.78,0,0,0,1,1.06A2.87,2.87,0,0,0,806.6,559.78Z"/><path class="cls-8" d="M817.83,561.22a4.32,4.32,0,0,1-2.24-.58,4.25,4.25,0,0,1-1.56-1.59,4.59,4.59,0,0,1-.6-2.28v-7.29a.79.79,0,0,1,.23-.59.82.82,0,0,1,.59-.23.81.81,0,0,1,.59.23.78.78,0,0,1,.22.59v4.32a4.31,4.31,0,0,1,1.36-1.07,4,4,0,0,1,3.83.2,4,4,0,0,1,1.46,1.58,4.69,4.69,0,0,1,.54,2.26,4.48,4.48,0,0,1-.59,2.28,4.28,4.28,0,0,1-1.57,1.59A4.35,4.35,0,0,1,817.83,561.22Zm0-1.44a2.75,2.75,0,0,0,1.46-.39,2.84,2.84,0,0,0,1-1.08,3.17,3.17,0,0,0,.38-1.54,3.1,3.1,0,0,0-.38-1.53,3,3,0,0,0-1-1.07,2.75,2.75,0,0,0-1.46-.39,2.73,2.73,0,0,0-2.46,1.46,3.09,3.09,0,0,0-.37,1.53,3.16,3.16,0,0,0,.37,1.54,2.7,2.7,0,0,0,1,1.08A2.79,2.79,0,0,0,817.83,559.78Z"/><path class="cls-8" d="M826.76,561.16a2.09,2.09,0,0,1-1.25-.39,2.59,2.59,0,0,1-.85-1,3.73,3.73,0,0,1-.3-1.53v-8.74a.81.81,0,0,1,.22-.57.85.85,0,0,1,1.16,0,.77.77,0,0,1,.22.57v8.74a1.88,1.88,0,0,0,.23,1,.65.65,0,0,0,.57.39h.4a.66.66,0,0,1,.52.22.85.85,0,0,1,.2.58.67.67,0,0,1-.3.57,1.32,1.32,0,0,1-.79.23Z"/><path class="cls-8" d="M833.11,561.22a4.82,4.82,0,0,1-2.36-.57,4.1,4.1,0,0,1-1.61-1.56,4.5,4.5,0,0,1-.59-2.3,4.67,4.67,0,0,1,.56-2.31,4,4,0,0,1,1.52-1.57,4.36,4.36,0,0,1,2.24-.57,4.09,4.09,0,0,1,2.15.55,3.57,3.57,0,0,1,1.36,1.52,5,5,0,0,1,.48,2.24.66.66,0,0,1-.21.5.76.76,0,0,1-.53.2h-6.45v-1.28h6.4l-.65.45a3.45,3.45,0,0,0-.32-1.43,2.42,2.42,0,0,0-.87-1,2.36,2.36,0,0,0-1.36-.37,2.9,2.9,0,0,0-1.56.4,2.52,2.52,0,0,0-1,1.09,3.66,3.66,0,0,0-.34,1.58,3.13,3.13,0,0,0,.4,1.57,3,3,0,0,0,1.11,1.09,3.28,3.28,0,0,0,1.61.4,2.91,2.91,0,0,0,1-.19,3.13,3.13,0,0,0,.84-.42.92.92,0,0,1,.52-.19.72.72,0,0,1,.49.17.81.81,0,0,1,.29.53.59.59,0,0,1-.26.5,4.51,4.51,0,0,1-1.35.7A4.91,4.91,0,0,1,833.11,561.22Z"/><path class="cls-8" d="M839.75,561.17a.79.79,0,0,1-.81-.81v-7.12a.75.75,0,0,1,.23-.59.8.8,0,0,1,.58-.23.78.78,0,0,1,.59.23.79.79,0,0,1,.23.59v7.12a.8.8,0,0,1-.23.58A.74.74,0,0,1,839.75,561.17Zm5.35,0a.78.78,0,0,1-.59-.23.8.8,0,0,1-.23-.58v-4.58a2,2,0,0,0-.49-1.49,1.78,1.78,0,0,0-1.3-.49,1.82,1.82,0,0,0-1.38.57,2.09,2.09,0,0,0-.54,1.48h-1A3.87,3.87,0,0,1,840,554a3.12,3.12,0,0,1,1.15-1.24,3.24,3.24,0,0,1,1.68-.44,3.13,3.13,0,0,1,1.61.4,2.66,2.66,0,0,1,1.1,1.17,4.18,4.18,0,0,1,.39,1.88v4.58a.79.79,0,0,1-.22.58A.77.77,0,0,1,845.1,561.17Zm5.32,0a.76.76,0,0,1-.58-.23.8.8,0,0,1-.23-.58v-4.58a2,2,0,0,0-.5-1.49,1.74,1.74,0,0,0-1.29-.49,1.8,1.8,0,0,0-1.37.57,2.09,2.09,0,0,0-.54,1.48h-1.33A3.66,3.66,0,0,1,845,554a3.26,3.26,0,0,1,1.26-1.24,3.83,3.83,0,0,1,1.85-.44,3.18,3.18,0,0,1,1.61.4,2.66,2.66,0,0,1,1.1,1.17,4.18,4.18,0,0,1,.39,1.88v4.58a.79.79,0,0,1-.22.58A.78.78,0,0,1,850.42,561.17Z"/><path class="cls-8" d="M765.82,580.42a4.35,4.35,0,0,1-2.24-.58,4.25,4.25,0,0,1-1.56-1.59,4.58,4.58,0,0,1-.59-2.28v-7.29a.75.75,0,0,1,.23-.59.8.8,0,0,1,.58-.23.79.79,0,0,1,.82.82V573a4.16,4.16,0,0,1,1.35-1.07,4,4,0,0,1,3.83.2,4.14,4.14,0,0,1,1.47,1.58,4.8,4.8,0,0,1,.53,2.26,4.47,4.47,0,0,1-.58,2.28,4.31,4.31,0,0,1-3.84,2.17Zm0-1.44a2.75,2.75,0,0,0,1.46-.39,2.79,2.79,0,0,0,1-1.08,3.16,3.16,0,0,0,.37-1.54,3.09,3.09,0,0,0-.37-1.53,2.91,2.91,0,0,0-1-1.07,2.89,2.89,0,0,0-2.9,0,2.91,2.91,0,0,0-1,1.07A3.21,3.21,0,0,0,763,576a3.27,3.27,0,0,0,.37,1.54,2.79,2.79,0,0,0,1,1.08A2.73,2.73,0,0,0,765.82,579Z"/><path class="cls-8" d="M776.79,580.42a4.77,4.77,0,0,1-2.36-.57,4.12,4.12,0,0,1-1.62-1.56,4.5,4.5,0,0,1-.59-2.3,4.67,4.67,0,0,1,.56-2.31,4,4,0,0,1,1.52-1.57,4.39,4.39,0,0,1,2.24-.57,4.09,4.09,0,0,1,2.15.55,3.66,3.66,0,0,1,1.37,1.52,5.12,5.12,0,0,1,.47,2.24.66.66,0,0,1-.21.5.74.74,0,0,1-.53.2h-6.44v-1.28h6.39l-.65.45a3.45,3.45,0,0,0-.32-1.43,2.35,2.35,0,0,0-2.23-1.37,2.92,2.92,0,0,0-1.56.4,2.58,2.58,0,0,0-1,1.09,3.66,3.66,0,0,0-.34,1.58,3.13,3.13,0,0,0,.4,1.57,3,3,0,0,0,1.11,1.09,3.3,3.3,0,0,0,1.62.4,2.82,2.82,0,0,0,1-.19,3,3,0,0,0,.84-.42.84.84,0,0,1,.52-.18.66.66,0,0,1,.49.16.77.77,0,0,1,.29.53.59.59,0,0,1-.26.5,4.51,4.51,0,0,1-1.35.7A4.86,4.86,0,0,1,776.79,580.42Z"/><path class="cls-8" d="M787.28,580.36a.79.79,0,0,1-.59-.24.81.81,0,0,1-.24-.59V568.69a.81.81,0,0,1,.24-.6.82.82,0,0,1,.59-.23h7.23a.77.77,0,0,1,.59.22.75.75,0,0,1,.23.57.71.71,0,0,1-.23.54.8.8,0,0,1-.59.21h-6.4v3.89h4.59a.84.84,0,0,1,.6.21.81.81,0,0,1,0,1.11.84.84,0,0,1-.6.21h-4.59v4.71a.82.82,0,0,1-.83.83Z"/><path class="cls-8" d="M798.27,570.18a1,1,0,0,1-.74-.31,1.05,1.05,0,0,1,0-1.49,1,1,0,0,1,.74-.31,1.05,1.05,0,0,1,.75,1.8A1,1,0,0,1,798.27,570.18Zm0,10.18a.8.8,0,0,1-.58-.23.78.78,0,0,1-.23-.59v-7.12a.77.77,0,0,1,.23-.59.89.89,0,0,1,1.17,0,.81.81,0,0,1,.23.59v7.12a.82.82,0,0,1-.23.59A.79.79,0,0,1,798.27,580.36Z"/><path class="cls-8" d="M808.27,580.36a1,1,0,0,1-.3-.05.53.53,0,0,1-.27-.21l-2.8-3.36-.58-.57-2.78-3.3a.92.92,0,0,1-.23-.55.63.63,0,0,1,.69-.71.75.75,0,0,1,.61.27l2.73,3.26.42.39,3,3.6a.82.82,0,0,1,.23.56.67.67,0,0,1-.21.48A.75.75,0,0,1,808.27,580.36Zm-6.11,0a.65.65,0,0,1-.5-.2.67.67,0,0,1-.19-.49,1,1,0,0,1,.23-.58l2.72-3.4.86,1.21-2.54,3.2A.78.78,0,0,1,802.16,580.36Zm4-4.11-1.1-1,2.57-3.42a.7.7,0,0,1,.28-.22,1,1,0,0,1,.32,0,.63.63,0,0,1,.52.21.74.74,0,0,1,.17.52.94.94,0,0,1-.23.59Z"/><path class="cls-8" d="M814.35,580.42a4.82,4.82,0,0,1-2.36-.57,4.1,4.1,0,0,1-1.61-1.56,4.5,4.5,0,0,1-.59-2.3,4.78,4.78,0,0,1,.55-2.31,4.05,4.05,0,0,1,1.53-1.57,4.36,4.36,0,0,1,2.24-.57,4.11,4.11,0,0,1,2.15.55,3.64,3.64,0,0,1,1.36,1.52,5,5,0,0,1,.48,2.24.66.66,0,0,1-.21.5.76.76,0,0,1-.53.2h-6.45v-1.28h6.4l-.65.45a3.45,3.45,0,0,0-.32-1.43,2.42,2.42,0,0,0-.87-1,2.36,2.36,0,0,0-1.36-.37,2.87,2.87,0,0,0-1.56.4,2.58,2.58,0,0,0-1,1.09,3.52,3.52,0,0,0-.34,1.58,3.13,3.13,0,0,0,.4,1.57,3,3,0,0,0,1.11,1.09,3.26,3.26,0,0,0,1.61.4,2.91,2.91,0,0,0,1-.19,3.29,3.29,0,0,0,.84-.42.84.84,0,0,1,.52-.18.68.68,0,0,1,.49.16.76.76,0,0,1,.28.53.55.55,0,0,1-.25.5,4.63,4.63,0,0,1-1.35.7A4.91,4.91,0,0,1,814.35,580.42Z"/><path class="cls-8" d="M823.82,580.42a4.34,4.34,0,0,1-3.83-2.17,4.47,4.47,0,0,1-.58-2.28,4.69,4.69,0,0,1,.54-2.26,4,4,0,0,1,1.46-1.58,3.86,3.86,0,0,1,2.09-.59,4,4,0,0,1,1.75.39,4,4,0,0,1,1.34,1.07v-4.32a.79.79,0,0,1,.23-.59.82.82,0,0,1,.59-.23.81.81,0,0,1,.59.23.78.78,0,0,1,.22.59V576a4.47,4.47,0,0,1-.58,2.28,4.31,4.31,0,0,1-3.82,2.17Zm0-1.44a2.71,2.71,0,0,0,2.47-1.47,3.27,3.27,0,0,0,.37-1.54,3.21,3.21,0,0,0-.37-1.53,2.88,2.88,0,0,0-1-1.07,2.89,2.89,0,0,0-2.9,0,2.94,2.94,0,0,0-1,1.07A3.09,3.09,0,0,0,821,576a3.16,3.16,0,0,0,.37,1.54,2.82,2.82,0,0,0,1,1.08A2.73,2.73,0,0,0,823.82,579Z"/><path class="cls-8" d="M834.05,577.4a.79.79,0,0,1-.82-.82,3.52,3.52,0,0,1,.32-1.36,3.83,3.83,0,0,1,1-1.33c.3-.25.58-.51.83-.76a3.12,3.12,0,0,0,.61-.86,2.8,2.8,0,0,0,.23-1.19,2,2,0,0,0-.24-1,1.89,1.89,0,0,0-1.76-1,2.66,2.66,0,0,0-1.3.29,1.83,1.83,0,0,0-.76.8,2.79,2.79,0,0,0-.25,1.2.79.79,0,0,1-.22.58.78.78,0,0,1-.59.24.79.79,0,0,1-.59-.24.8.8,0,0,1-.23-.58,3.94,3.94,0,0,1,.49-2,3.56,3.56,0,0,1,1.38-1.34,4.28,4.28,0,0,1,2.07-.48,3.75,3.75,0,0,1,1.85.44,3.38,3.38,0,0,1,1.28,1.21,3.47,3.47,0,0,1,.47,1.82,3.86,3.86,0,0,1-.29,1.55,4,4,0,0,1-.78,1.18,11.73,11.73,0,0,1-1.14,1,1.63,1.63,0,0,0-.57.87,3.11,3.11,0,0,0-.16.87.82.82,0,0,1-.23.59A.81.81,0,0,1,834.05,577.4Zm0,3a1.07,1.07,0,0,1-.78-.33,1.05,1.05,0,0,1-.32-.77,1.09,1.09,0,0,1,.32-.8,1.1,1.1,0,0,1,1.57,0,1.09,1.09,0,0,1,.33.8,1.06,1.06,0,0,1-.33.77A1.07,1.07,0,0,1,834.05,580.36Z"/><rect class="cls-8" x="962.89" y="521.87" width="149.45" height="83.34" rx="7"/><path class="cls-3" d="M1010.14,561.16a.83.83,0,0,1-.6-.24.81.81,0,0,1-.24-.59V549.49a.81.81,0,0,1,.24-.6.86.86,0,0,1,.6-.23h3.2a4.2,4.2,0,0,1,2.12.53,3.7,3.7,0,0,1,1.45,1.46,4.37,4.37,0,0,1,.52,2.16,4.09,4.09,0,0,1-.52,2.08,3.67,3.67,0,0,1-1.45,1.42,4.29,4.29,0,0,1-2.12.51H1011v3.51a.84.84,0,0,1-.23.59A.81.81,0,0,1,1010.14,561.16Zm.83-5.87h2.37a2.57,2.57,0,0,0,1.29-.32,2.32,2.32,0,0,0,.88-.88,2.48,2.48,0,0,0,.32-1.28,2.71,2.71,0,0,0-.32-1.36,2.43,2.43,0,0,0-.88-.92,2.48,2.48,0,0,0-1.29-.33H1011Z"/><path class="cls-3" d="M1019.91,561.16a.84.84,0,0,1-.59-.2.78.78,0,0,1-.21-.6v-7.15a.81.81,0,0,1,.21-.6.84.84,0,0,1,.59-.2.71.71,0,0,1,.8.8v7.15a.8.8,0,0,1-.2.59A.78.78,0,0,1,1019.91,561.16Zm0-5.47a3.13,3.13,0,0,1,.47-1.72,3.43,3.43,0,0,1,1.27-1.21,3.52,3.52,0,0,1,1.76-.45,2.59,2.59,0,0,1,1.43.31.65.65,0,0,1,.36.75.59.59,0,0,1-.18.34.64.64,0,0,1-.31.15,1,1,0,0,1-.39,0,4.6,4.6,0,0,0-1.84,0,2.49,2.49,0,0,0-1.28.66,1.66,1.66,0,0,0-.48,1.22Z"/><path class="cls-3" d="M1030.36,561.22a4.82,4.82,0,0,1-2.36-.57,4.1,4.1,0,0,1-1.61-1.56,4.5,4.5,0,0,1-.59-2.3,4.78,4.78,0,0,1,.55-2.31,4.05,4.05,0,0,1,1.53-1.57,4.36,4.36,0,0,1,2.24-.57,4.11,4.11,0,0,1,2.15.55,3.64,3.64,0,0,1,1.36,1.52,5,5,0,0,1,.48,2.24.66.66,0,0,1-.21.5.76.76,0,0,1-.53.2h-6.45v-1.28h6.4l-.65.45a3.45,3.45,0,0,0-.32-1.43,2.42,2.42,0,0,0-.87-1,2.36,2.36,0,0,0-1.36-.37,2.87,2.87,0,0,0-1.56.4,2.52,2.52,0,0,0-1,1.09,3.52,3.52,0,0,0-.34,1.58,3,3,0,0,0,.4,1.57,3,3,0,0,0,1.11,1.09,3.23,3.23,0,0,0,1.61.4,2.91,2.91,0,0,0,1-.19,3.29,3.29,0,0,0,.84-.42.92.92,0,0,1,.52-.19.73.73,0,0,1,.49.17.76.76,0,0,1,.28.53.55.55,0,0,1-.25.5,4.63,4.63,0,0,1-1.35.7A4.91,4.91,0,0,1,1030.36,561.22Z"/><path class="cls-3" d="M1039.37,561.22a6,6,0,0,1-2.07-.34,3.94,3.94,0,0,1-1.48-.87.7.7,0,0,1-.2-.59.74.74,0,0,1,.31-.53.82.82,0,0,1,.63-.22.89.89,0,0,1,.54.28,2.61,2.61,0,0,0,.87.57,3.36,3.36,0,0,0,1.33.26,2.73,2.73,0,0,0,1.42-.3,1,1,0,0,0,.51-.79,1,1,0,0,0-.46-.83,4.45,4.45,0,0,0-1.72-.57,5.14,5.14,0,0,1-2.34-1,2,2,0,0,1-.73-1.57,1.92,1.92,0,0,1,.48-1.35,2.83,2.83,0,0,1,1.23-.8,4.59,4.59,0,0,1,1.57-.27,4.76,4.76,0,0,1,1.87.34,3.15,3.15,0,0,1,1.3.93.77.77,0,0,1,.2.53.6.6,0,0,1-.27.47.79.79,0,0,1-.61.12,1.22,1.22,0,0,1-.59-.29,2.19,2.19,0,0,0-.86-.53,3.51,3.51,0,0,0-1.07-.14,2.73,2.73,0,0,0-1.2.24.76.76,0,0,0-.49.7.94.94,0,0,0,.16.52,1.36,1.36,0,0,0,.6.42,8.12,8.12,0,0,0,1.31.36,7.48,7.48,0,0,1,1.9.6,2.62,2.62,0,0,1,1,.86,2.12,2.12,0,0,1,.3,1.13,2.38,2.38,0,0,1-.39,1.33,2.71,2.71,0,0,1-1.15.94A4.61,4.61,0,0,1,1039.37,561.22Z"/><path class="cls-3" d="M1049,561.22a4.82,4.82,0,0,1-2.36-.57,4.16,4.16,0,0,1-1.61-1.56,4.49,4.49,0,0,1-.58-2.3,4.67,4.67,0,0,1,.55-2.31,4,4,0,0,1,1.53-1.57,4.33,4.33,0,0,1,2.23-.57,4.09,4.09,0,0,1,2.15.55,3.66,3.66,0,0,1,1.37,1.52,5.12,5.12,0,0,1,.47,2.24.66.66,0,0,1-.21.5.74.74,0,0,1-.53.2h-6.45v-1.28H1052l-.66.45a3.45,3.45,0,0,0-.32-1.43,2.33,2.33,0,0,0-2.23-1.37,2.86,2.86,0,0,0-1.55.4,2.55,2.55,0,0,0-1,1.09,3.66,3.66,0,0,0-.33,1.58,3,3,0,0,0,.4,1.57,2.88,2.88,0,0,0,1.1,1.09,3.28,3.28,0,0,0,1.61.4,2.87,2.87,0,0,0,1-.19,3,3,0,0,0,.84-.42.92.92,0,0,1,.52-.19.72.72,0,0,1,.49.17.77.77,0,0,1,.29.53.59.59,0,0,1-.26.5,4.51,4.51,0,0,1-1.35.7A4.87,4.87,0,0,1,1049,561.22Z"/><path class="cls-3" d="M1055.62,561.17a.78.78,0,0,1-.58-.23.8.8,0,0,1-.23-.58v-7.14a.82.82,0,1,1,1.63,0v7.14a.79.79,0,0,1-.22.58A.78.78,0,0,1,1055.62,561.17Zm6.58,0a.76.76,0,0,1-.58-.23.77.77,0,0,1-.24-.58v-3.94a3,3,0,0,0-.33-1.49,2.13,2.13,0,0,0-.91-.85,2.83,2.83,0,0,0-1.3-.28,2.73,2.73,0,0,0-1.22.27,2.2,2.2,0,0,0-.86.73,1.79,1.79,0,0,0-.32,1.05h-1a3.37,3.37,0,0,1,.49-1.8,3.53,3.53,0,0,1,1.34-1.26,3.87,3.87,0,0,1,1.9-.46,4.05,4.05,0,0,1,2,.47,3.31,3.31,0,0,1,1.37,1.38,4.55,4.55,0,0,1,.51,2.24v3.94a.8.8,0,0,1-.23.58A.78.78,0,0,1,1062.2,561.17Z"/><path class="cls-3" d="M1065.35,554.1a.76.76,0,0,1-.54-.19.63.63,0,0,1-.21-.48.66.66,0,0,1,.21-.51.76.76,0,0,1,.54-.19h3.7a.76.76,0,0,1,.54.19.66.66,0,0,1,.21.51.63.63,0,0,1-.21.48.76.76,0,0,1-.54.19Zm3.55,7.06a2.66,2.66,0,0,1-1.44-.41,2.83,2.83,0,0,1-1-1.11,3.33,3.33,0,0,1-.37-1.59v-7.63a.77.77,0,0,1,.22-.57.81.81,0,0,1,1.38.57v7.63a1.69,1.69,0,0,0,.35,1.08,1.1,1.1,0,0,0,.86.43h.55a.64.64,0,0,1,.49.22.85.85,0,0,1,.2.58.7.7,0,0,1-.27.57,1,1,0,0,1-.68.23Z"/><path class="cls-3" d="M1001,580.36a.82.82,0,0,1-.83-.83V568.69a.81.81,0,0,1,.24-.6.84.84,0,0,1,.59-.23h3.2a4.26,4.26,0,0,1,2.13.53,3.77,3.77,0,0,1,1.45,1.46,4.48,4.48,0,0,1,.52,2.16,4.2,4.2,0,0,1-.52,2.08,3.73,3.73,0,0,1-1.45,1.42,4.36,4.36,0,0,1-2.13.51h-2.37v3.51a.8.8,0,0,1-.23.59A.78.78,0,0,1,1001,580.36Zm.83-5.87h2.37a2.64,2.64,0,0,0,1.3-.32,2.47,2.47,0,0,0,.88-.88,2.59,2.59,0,0,0,.32-1.28,2.82,2.82,0,0,0-.32-1.36,2.59,2.59,0,0,0-.88-.92,2.54,2.54,0,0,0-1.3-.33h-2.37Z"/><path class="cls-3" d="M1010.74,580.36a.81.81,0,0,1-.59-.2.78.78,0,0,1-.21-.6v-7.15a.8.8,0,1,1,1.6,0v7.15a.84.84,0,0,1-.2.59A.81.81,0,0,1,1010.74,580.36Zm0-5.47a3.22,3.22,0,0,1,.47-1.72,3.51,3.51,0,0,1,1.27-1.21,3.57,3.57,0,0,1,1.76-.45,2.63,2.63,0,0,1,1.44.31.68.68,0,0,1,.36.75.61.61,0,0,1-.5.49,1,1,0,0,1-.38,0,4.6,4.6,0,0,0-1.84,0,2.48,2.48,0,0,0-1.29.66,1.69,1.69,0,0,0-.47,1.22Z"/><path class="cls-3" d="M1021,580.42a4.55,4.55,0,0,1-2.29-.57,4.1,4.1,0,0,1-1.56-1.56,5,5,0,0,1,0-4.61,4.13,4.13,0,0,1,1.56-1.57,4.55,4.55,0,0,1,2.29-.57,4.45,4.45,0,0,1,2.27.57,4.06,4.06,0,0,1,1.56,1.57,5,5,0,0,1,0,4.61,4,4,0,0,1-1.55,1.56A4.5,4.5,0,0,1,1021,580.42Zm0-1.44a2.82,2.82,0,0,0,1.47-.38,2.69,2.69,0,0,0,1-1.06,3.22,3.22,0,0,0,.36-1.55,3.27,3.27,0,0,0-.36-1.56,2.62,2.62,0,0,0-1-1.06A2.74,2.74,0,0,0,1021,573a2.78,2.78,0,0,0-1.47.39,2.71,2.71,0,0,0-1,1.06,3.27,3.27,0,0,0-.37,1.56,3.23,3.23,0,0,0,.37,1.55,2.78,2.78,0,0,0,1,1.06A2.87,2.87,0,0,0,1021,579Z"/><path class="cls-3" d="M1027.51,573.3a.77.77,0,0,1-.55-.19.63.63,0,0,1-.21-.48.66.66,0,0,1,.21-.51.77.77,0,0,1,.55-.19h3.69a.77.77,0,0,1,.55.19.69.69,0,0,1,.2.51.66.66,0,0,1-.2.48.77.77,0,0,1-.55.19Zm3.55,7.06a2.63,2.63,0,0,1-1.44-.41,2.85,2.85,0,0,1-1-1.11,3.44,3.44,0,0,1-.37-1.58v-7.64a.81.81,0,0,1,1.38-.57.77.77,0,0,1,.22.57v7.64a1.68,1.68,0,0,0,.35,1.07,1.12,1.12,0,0,0,.87.43h.54a.63.63,0,0,1,.49.22.85.85,0,0,1,.2.58.72.72,0,0,1-.26.57,1,1,0,0,1-.68.23Z"/><path class="cls-3" d="M1038.26,580.42a4.5,4.5,0,0,1-2.29-.57,4.1,4.1,0,0,1-1.56-1.56,4.95,4.95,0,0,1,0-4.61,4.13,4.13,0,0,1,1.56-1.57,4.84,4.84,0,0,1,4.56,0,4.13,4.13,0,0,1,1.56,1.57,4.57,4.57,0,0,1,.57,2.31,4.69,4.69,0,0,1-.56,2.3,4.08,4.08,0,0,1-1.55,1.56A4.55,4.55,0,0,1,1038.26,580.42Zm0-1.44a2.87,2.87,0,0,0,1.47-.38,2.69,2.69,0,0,0,1-1.06,3.22,3.22,0,0,0,.36-1.55,3.27,3.27,0,0,0-.36-1.56,2.62,2.62,0,0,0-1-1.06,2.78,2.78,0,0,0-1.47-.39,2.74,2.74,0,0,0-1.47.39,2.65,2.65,0,0,0-1,1.06,3.16,3.16,0,0,0-.37,1.56,3.12,3.12,0,0,0,.37,1.55,2.71,2.71,0,0,0,1,1.06A2.82,2.82,0,0,0,1038.26,579Z"/><path class="cls-3" d="M1044.72,573.3a.76.76,0,0,1-.54-.19.63.63,0,0,1-.21-.48.66.66,0,0,1,.21-.51.76.76,0,0,1,.54-.19h3.7a.76.76,0,0,1,.54.19.66.66,0,0,1,.21.51.63.63,0,0,1-.21.48.76.76,0,0,1-.54.19Zm3.55,7.06a2.66,2.66,0,0,1-1.44-.41,2.83,2.83,0,0,1-1-1.11,3.32,3.32,0,0,1-.37-1.58v-7.64a.77.77,0,0,1,.22-.57.81.81,0,0,1,1.38.57v7.64a1.68,1.68,0,0,0,.35,1.07,1.08,1.08,0,0,0,.86.43h.55a.64.64,0,0,1,.49.22.85.85,0,0,1,.2.58.7.7,0,0,1-.27.57,1,1,0,0,1-.68.23Z"/><path class="cls-3" d="M1055,580a.75.75,0,0,1-.57,0,.83.83,0,0,1-.42-.41l-3.66-7a.63.63,0,0,1,0-.58.77.77,0,0,1,.42-.41.78.78,0,0,1,.58,0,.73.73,0,0,1,.41.4l3.51,7a1.08,1.08,0,0,1,.12.59A.53.53,0,0,1,1055,580Zm-1.89,4.19a.93.93,0,0,1-.38-.1.67.67,0,0,1-.38-1l4.88-11a.68.68,0,0,1,1-.38.66.66,0,0,1,.4,1l-4.89,11A.67.67,0,0,1,1053.07,584.2Z"/><path class="cls-3" d="M1061,584.1a.82.82,0,0,1-.59-.23.8.8,0,0,1-.23-.58V576a4.65,4.65,0,0,1,.59-2.27,4.31,4.31,0,0,1,3.81-2.18,4.4,4.4,0,0,1,2.26.59,4.35,4.35,0,0,1,1.57,1.59A4.44,4.44,0,0,1,1069,576a4.73,4.73,0,0,1-.54,2.27,4.27,4.27,0,0,1-1.46,1.58,3.86,3.86,0,0,1-2.1.58,3.9,3.9,0,0,1-1.74-.39,4.24,4.24,0,0,1-1.35-1.06v4.32a.79.79,0,0,1-.22.58A.81.81,0,0,1,1061,584.1Zm3.58-5.12a2.77,2.77,0,0,0,1.46-.39,2.89,2.89,0,0,0,1-1.07,3.29,3.29,0,0,0,0-3.07,2.92,2.92,0,0,0-1-1.08,2.78,2.78,0,0,0-3.92,1.08,3.37,3.37,0,0,0,0,3.07,2.73,2.73,0,0,0,2.46,1.46Z"/><path class="cls-3" d="M1075.49,580.42a4.79,4.79,0,0,1-2.36-.57,4.12,4.12,0,0,1-1.62-1.56,4.49,4.49,0,0,1-.58-2.3,4.67,4.67,0,0,1,.55-2.31,4.05,4.05,0,0,1,1.53-1.57,4.36,4.36,0,0,1,2.24-.57,4.05,4.05,0,0,1,2.14.55,3.6,3.6,0,0,1,1.37,1.52,5,5,0,0,1,.47,2.24.69.69,0,0,1-.2.5.76.76,0,0,1-.53.2h-6.45v-1.28h6.4l-.66.45a3.3,3.3,0,0,0-.32-1.43,2.33,2.33,0,0,0-2.22-1.37,2.87,2.87,0,0,0-1.56.4,2.58,2.58,0,0,0-1,1.09,3.52,3.52,0,0,0-.34,1.58,3,3,0,0,0,.4,1.57,3,3,0,0,0,1.1,1.09,3.3,3.3,0,0,0,1.62.4,2.91,2.91,0,0,0,1-.19,3.29,3.29,0,0,0,.84-.42.84.84,0,0,1,.52-.18.65.65,0,0,1,.48.16.73.73,0,0,1,.29.53.58.58,0,0,1-.25.5,4.7,4.7,0,0,1-1.36.7A4.81,4.81,0,0,1,1075.49,580.42Z"/><path d="M566.86,567.06a.77.77,0,0,1-.58-.24.81.81,0,0,1-.24-.59V555.4a.78.78,0,0,1,.24-.6.76.76,0,0,1,.58-.23.8.8,0,0,1,.64.3l7,9.28V555.4a.8.8,0,0,1,.83-.83.77.77,0,0,1,.59.23.81.81,0,0,1,.22.6v10.83a.83.83,0,0,1-.22.59.78.78,0,0,1-.59.24A1,1,0,0,1,575,567a.64.64,0,0,1-.29-.22l-7-9.28v8.74a.8.8,0,0,1-.23.59A.78.78,0,0,1,566.86,567.06Z"/><path d="M585.1,567.22a6.84,6.84,0,0,1-2.57-.47,5.93,5.93,0,0,1-2-1.33,6.07,6.07,0,0,1-1.31-2,7.47,7.47,0,0,1,0-5.16,6,6,0,0,1,1.31-2,5.65,5.65,0,0,1,2-1.33,7.26,7.26,0,0,1,5.14,0,5.83,5.83,0,0,1,2,1.33,6,6,0,0,1,1.31,2,7.47,7.47,0,0,1,0,5.16,6.07,6.07,0,0,1-1.31,2,6.13,6.13,0,0,1-2,1.33A6.84,6.84,0,0,1,585.1,567.22Zm0-1.5a4.79,4.79,0,0,0,1.91-.38,4.73,4.73,0,0,0,1.52-1,4.64,4.64,0,0,0,1-1.56,5.68,5.68,0,0,0,0-3.87,4.64,4.64,0,0,0-1-1.56,4.55,4.55,0,0,0-1.52-1,5.11,5.11,0,0,0-3.82,0,4.37,4.37,0,0,0-1.5,1,4.67,4.67,0,0,0-1,1.56,5.52,5.52,0,0,0,0,3.87,4.67,4.67,0,0,0,1,1.56,4.54,4.54,0,0,0,1.5,1A4.79,4.79,0,0,0,585.1,565.72Z"/><path class="cls-4" d="M903.59,572.06a.78.78,0,0,1-.58-.24.81.81,0,0,1-.24-.59V567.5l-4.27-6.64a.91.91,0,0,1-.16-.63.7.7,0,0,1,.28-.48.83.83,0,0,1,.53-.18.74.74,0,0,1,.44.12,1.48,1.48,0,0,1,.3.34l4.06,6.45h-.64l4.13-6.51a1,1,0,0,1,.31-.3.81.81,0,0,1,.43-.1.62.62,0,0,1,.48.2.77.77,0,0,1,.22.49.91.91,0,0,1-.16.6l-4.3,6.64v3.73a.82.82,0,0,1-.83.83Z"/><path class="cls-4" d="M911.39,572.06a.82.82,0,0,1-.83-.83V560.4a.78.78,0,0,1,.24-.6.8.8,0,0,1,.59-.23h7.24a.84.84,0,0,1,.59.21.77.77,0,0,1,.22.57.69.69,0,0,1-.22.54.84.84,0,0,1-.59.21h-6.4V565h4.59a.8.8,0,0,1,.59.22.71.71,0,0,1,.22.55.72.72,0,0,1-.22.55.84.84,0,0,1-.59.22h-4.59v4h6.4a.83.83,0,0,1,.59.2.71.71,0,0,1,.22.55.77.77,0,0,1-.22.57.84.84,0,0,1-.59.21Z"/><path class="cls-4" d="M925.73,572.22a5.78,5.78,0,0,1-2-.32,5.08,5.08,0,0,1-1.62-.89,3.65,3.65,0,0,1-1-1.33.67.67,0,0,1,0-.63.91.91,0,0,1,1.14-.28,1,1,0,0,1,.42.46,2.15,2.15,0,0,0,.63.74,3.83,3.83,0,0,0,1.07.54,4,4,0,0,0,1.31.21,4.11,4.11,0,0,0,1.42-.24,2.43,2.43,0,0,0,1-.7,1.63,1.63,0,0,0,.4-1.13,2.13,2.13,0,0,0-.66-1.52,3.58,3.58,0,0,0-2.18-.83,5.46,5.46,0,0,1-3.12-1.17,3,3,0,0,1-1.14-2.41,2.77,2.77,0,0,1,.59-1.79,3.58,3.58,0,0,1,1.61-1.12,6.27,6.27,0,0,1,2.26-.39,5,5,0,0,1,1.71.27,4.25,4.25,0,0,1,1.27.76,4.72,4.72,0,0,1,.94,1.13,1.06,1.06,0,0,1,.19.67.66.66,0,0,1-.31.48.74.74,0,0,1-.66.08.91.91,0,0,1-.53-.41,3.06,3.06,0,0,0-.62-.79,2.87,2.87,0,0,0-.87-.5,3.41,3.41,0,0,0-1.16-.18,3.83,3.83,0,0,0-2,.44,1.51,1.51,0,0,0-.8,1.4,1.93,1.93,0,0,0,.25.92,2.09,2.09,0,0,0,.91.76,5.91,5.91,0,0,0,1.91.44,5.09,5.09,0,0,1,3,1.16,3.31,3.31,0,0,1,1.07,2.56,3.21,3.21,0,0,1-.38,1.58,3.52,3.52,0,0,1-1,1.13,4.56,4.56,0,0,1-1.44.68A6.17,6.17,0,0,1,925.73,572.22Z"/><rect class="cls-8" x="231.52" y="254.16" width="39.7" height="1"/><path class="cls-8" d="M269.42,254.66l-2.19,3.6.12.08,5.88-2.33,6.14-1.35-6.14-1.35L267.35,251l-.12.06Z"/><rect class="cls-8" x="446.52" y="254.16" width="39.7" height="1"/><path class="cls-8" d="M484.42,254.66l-2.19,3.6.12.08,5.88-2.33,6.14-1.35-6.14-1.35L482.35,251l-.12.06Z"/><rect class="cls-8" x="578.95" y="310.89" width="1" height="61.69"/><path class="cls-8" d="M579.45,312.68l3.6,2.19.08-.12-2.33-5.88-1.35-6.14c-.45,2-.91,4.1-1.36,6.14l-2.33,5.88.06.12Z"/><rect class="cls-8" x="663.52" y="254.16" width="39.7" height="1"/><path class="cls-8" d="M701.42,254.66l-2.19,3.6.12.08,5.88-2.33,6.14-1.35-6.14-1.35L699.35,251l-.12.06Z"/><rect class="cls-8" x="794.95" y="333.73" width="1" height="28.69"/><path class="cls-8" d="M795.45,360.63l-3.61-2.19-.08.12,2.33,5.88c.45,2.05.9,4.09,1.36,6.14l1.35-6.14,2.33-5.88-.06-.12Z"/><rect class="cls-8" x="794.95" y="474.73" width="1" height="30.69"/><path class="cls-8" d="M795.45,503.63l-3.61-2.19-.08.12,2.33,5.88c.45,2.05.9,4.09,1.36,6.14l1.35-6.14,2.33-5.88-.06-.12Z"/><rect class="cls-8" x="576.95" y="481.89" width="1" height="59.69"/><path class="cls-8" d="M577.45,483.68l3.6,2.19.08-.12-2.33-5.88-1.35-6.14c-.45,2-.91,4.1-1.36,6.14l-2.33,5.88.06.12Z"/><rect class="cls-8" x="936.52" y="566.16" width="11.7" height="1"/><path class="cls-8" d="M946.42,566.66l-2.19,3.6.12.08,5.88-2.33,6.14-1.35-6.14-1.35L944.35,563l-.12.06Z"/><path class="cls-5" d="M488.82,591.68l24.72,13.74a46.42,46.42,0,0,0-9.85,5.31A51.14,51.14,0,0,0,496,619Z"/><path class="cls-5" d="M496,619.5h-.09a.51.51,0,0,1-.39-.37l-7.14-27.31a.51.51,0,0,1,.17-.52.5.5,0,0,1,.55,0L513.79,605a.51.51,0,0,1,.25.47.5.5,0,0,1-.32.43,46.39,46.39,0,0,0-9.73,5.23,51.4,51.4,0,0,0-7.63,8.17A.49.49,0,0,1,496,619.5Zm-6.36-26.81,6.59,25.19a47.89,47.89,0,0,1,7.19-7.55,44.15,44.15,0,0,1,9-5Z"/><rect class="cls-5" x="508.81" y="616.18" width="57.44" height="27.87" rx="7"/><path class="cls-5" d="M559.25,644.55H515.81a7.5,7.5,0,0,1-7.5-7.5V623.18a7.5,7.5,0,0,1,7.5-7.5h43.44a7.51,7.51,0,0,1,7.5,7.5v13.87A7.51,7.51,0,0,1,559.25,644.55Zm-43.44-27.87a6.51,6.51,0,0,0-6.5,6.5v13.87a6.51,6.51,0,0,0,6.5,6.5h43.44a6.51,6.51,0,0,0,6.5-6.5V623.18a6.51,6.51,0,0,0-6.5-6.5Z"/><path class="cls-3" d="M526.89,635.72a.84.84,0,0,1-.81-.84v-3.72l-4.27-6.65a.91.91,0,0,1-.16-.63.75.75,0,0,1,.28-.48.83.83,0,0,1,.53-.18.69.69,0,0,1,.43.12,1.3,1.3,0,0,1,.31.34l4.06,6.45h-.64l4.13-6.51a1.07,1.07,0,0,1,.3-.3.87.87,0,0,1,.44-.1.66.66,0,0,1,.48.2.85.85,0,0,1,.22.5.9.9,0,0,1-.16.59l-4.3,6.65v3.72a.79.79,0,0,1-.24.59A.82.82,0,0,1,526.89,635.72Z"/><path class="cls-3" d="M536.08,635.78a4.5,4.5,0,0,1-2.29-.57,4.13,4.13,0,0,1-1.56-1.57,4.93,4.93,0,0,1,0-4.6,4.13,4.13,0,0,1,1.56-1.57,4.84,4.84,0,0,1,4.56,0,4.13,4.13,0,0,1,1.56,1.57,4.55,4.55,0,0,1,.57,2.31,4.62,4.62,0,0,1-.56,2.29,4.1,4.1,0,0,1-1.55,1.57A4.52,4.52,0,0,1,536.08,635.78Zm0-1.44a2.87,2.87,0,0,0,1.47-.38,2.69,2.69,0,0,0,1-1.06,3.54,3.54,0,0,0,0-3.11,2.65,2.65,0,0,0-1-1.07,2.87,2.87,0,0,0-1.47-.38,2.82,2.82,0,0,0-1.47.38,2.67,2.67,0,0,0-1,1.07,3.45,3.45,0,0,0,0,3.11,2.71,2.71,0,0,0,1,1.06A2.82,2.82,0,0,0,536.08,634.34Z"/><path class="cls-3" d="M546.59,635.8a4.06,4.06,0,0,1-2-.48,3.31,3.31,0,0,1-1.37-1.38,4.55,4.55,0,0,1-.51-2.24v-3.94a.77.77,0,0,1,.24-.58.76.76,0,0,1,.58-.23.75.75,0,0,1,.58.23.77.77,0,0,1,.24.58v3.94a3,3,0,0,0,.33,1.48,2.09,2.09,0,0,0,.91.86,2.92,2.92,0,0,0,1.3.28,2.64,2.64,0,0,0,1.22-.27,2.22,2.22,0,0,0,.86-.74,1.78,1.78,0,0,0,.32-1h1a3.36,3.36,0,0,1-.49,1.8,3.58,3.58,0,0,1-1.33,1.26A3.86,3.86,0,0,1,546.59,635.8Zm3.54-.08a.79.79,0,0,1-.59-.24.8.8,0,0,1-.23-.58v-7.14a.81.81,0,0,1,.23-.59.82.82,0,0,1,.59-.22.76.76,0,0,1,.81.81v7.14a.79.79,0,0,1-.22.58A.78.78,0,0,1,550.13,635.72Z"/><path class="cls-3" d="M887.15,403.32a.82.82,0,0,1-.83-.83V391.66a.78.78,0,0,1,.24-.6.8.8,0,0,1,.59-.23.82.82,0,0,1,.74.44l5,10h-.51l4.88-10a.8.8,0,0,1,.73-.44.8.8,0,0,1,.83.83v10.83a.81.81,0,0,1-.24.59.82.82,0,0,1-.59.24.82.82,0,0,1-.83-.83V394l.32-.08-4.19,8.55a.83.83,0,0,1-.72.41.8.8,0,0,1-.77-.49L887.67,394,888,394v8.53a.82.82,0,0,1-.84.83Z"/><path class="cls-3" d="M905.52,403.39a3.81,3.81,0,0,1-2.09-.59,4.22,4.22,0,0,1-1.47-1.58,4.7,4.7,0,0,1-.53-2.27,4.43,4.43,0,0,1,.58-2.27,4.31,4.31,0,0,1,3.83-2.17,4.32,4.32,0,0,1,2.24.58,4.38,4.38,0,0,1,1.58,1.59,4.43,4.43,0,0,1,.58,2.27h-.62a4.7,4.7,0,0,1-.54,2.27,4.19,4.19,0,0,1-1.46,1.58A3.87,3.87,0,0,1,905.52,403.39Zm.32-1.44a2.67,2.67,0,0,0,1.46-.4,2.81,2.81,0,0,0,1-1.07,3.2,3.2,0,0,0,.36-1.53,3.24,3.24,0,0,0-.36-1.54,2.89,2.89,0,0,0-1-1.07,2.75,2.75,0,0,0-1.46-.39,2.79,2.79,0,0,0-1.45.39,2.84,2.84,0,0,0-1,1.07A3.14,3.14,0,0,0,903,399a3.1,3.1,0,0,0,.38,1.53,2.77,2.77,0,0,0,1,1.07A2.71,2.71,0,0,0,905.84,402Zm3.59,1.39a.79.79,0,0,1-.82-.82v-2.45l.3-1.69,1.33.57v3.57a.79.79,0,0,1-.81.82Z"/><path class="cls-3" d="M913.47,403.32a.8.8,0,0,1-.59-.2.78.78,0,0,1-.21-.6v-7.15a.79.79,0,0,1,.21-.59.8.8,0,0,1,.59-.21.82.82,0,0,1,.6.2.78.78,0,0,1,.2.6v7.15a.77.77,0,0,1-.2.59A.78.78,0,0,1,913.47,403.32Zm0-5.47a3.15,3.15,0,0,1,.47-1.72,3.43,3.43,0,0,1,1.27-1.21,3.52,3.52,0,0,1,1.76-.45,2.59,2.59,0,0,1,1.43.32.64.64,0,0,1,.36.74.59.59,0,0,1-.18.34.66.66,0,0,1-.31.16,1,1,0,0,1-.39,0,4.41,4.41,0,0,0-1.84,0,2.48,2.48,0,0,0-1.28.65,1.66,1.66,0,0,0-.48,1.22Z"/><path class="cls-3" d="M920.08,396.27a.77.77,0,0,1-.54-.2.6.6,0,0,1-.21-.48.66.66,0,0,1,.21-.51.76.76,0,0,1,.54-.19h3.7a.76.76,0,0,1,.54.19.66.66,0,0,1,.21.51.6.6,0,0,1-.21.48.77.77,0,0,1-.54.2Zm3.55,7.05a2.57,2.57,0,0,1-1.44-.41,2.83,2.83,0,0,1-1-1.11,3.32,3.32,0,0,1-.37-1.58v-7.63a.8.8,0,1,1,1.6,0v7.63a1.68,1.68,0,0,0,.35,1.07,1.06,1.06,0,0,0,.86.43h.55a.65.65,0,0,1,.49.23.84.84,0,0,1,.2.57.72.72,0,0,1-.27.58,1,1,0,0,1-.68.22Z"/><path class="cls-3" d="M927.84,393.15a1,1,0,0,1-.74-.32,1,1,0,0,1,0-1.48,1,1,0,0,1,.74-.32,1.06,1.06,0,0,1,0,2.12Zm0,10.17a.79.79,0,0,1-.81-.81v-7.12a.78.78,0,0,1,.23-.6.89.89,0,0,1,1.17,0,.81.81,0,0,1,.23.6v7.12a.8.8,0,0,1-.23.58A.75.75,0,0,1,927.84,403.32Z"/><path class="cls-3" d="M932.51,403.34a.8.8,0,0,1-.58-.23.82.82,0,0,1-.23-.59v-7.13a.81.81,0,0,1,.23-.6.79.79,0,0,1,.58-.22.81.81,0,0,1,.6.22.85.85,0,0,1,.22.6v7.13a.86.86,0,0,1-.22.59A.81.81,0,0,1,932.51,403.34Zm6.58,0a.8.8,0,0,1-.58-.23.79.79,0,0,1-.24-.59v-3.93a3,3,0,0,0-.33-1.49,2.15,2.15,0,0,0-.91-.86,3,3,0,0,0-1.3-.28,2.73,2.73,0,0,0-1.22.27,2.38,2.38,0,0,0-.86.73,1.83,1.83,0,0,0-.32,1.05h-1a3.33,3.33,0,0,1,.49-1.8,3.46,3.46,0,0,1,1.34-1.26,3.87,3.87,0,0,1,1.9-.46,4.17,4.17,0,0,1,2,.47,3.4,3.4,0,0,1,1.37,1.39,4.5,4.5,0,0,1,.51,2.24v3.93a.79.79,0,0,1-.24.59A.8.8,0,0,1,939.09,403.34Z"/><path class="cls-10" d="M433.53,175.3l13.74-24.72a46.64,46.64,0,0,0,5.3,9.86,51.31,51.31,0,0,0,8.27,7.72Z"/><rect class="cls-10" x="458.19" y="128.17" width="78.47" height="27.87" rx="7"/><path class="cls-8" d="M475.43,146.93a.82.82,0,0,1-.83-.84V135.26a.81.81,0,0,1,.24-.6.84.84,0,0,1,.59-.23h3.83a4.16,4.16,0,0,1,1.91.42,3.37,3.37,0,0,1,1.3,1.18,3.23,3.23,0,0,1,.47,1.73,2.45,2.45,0,0,1-.43,1.42,2.92,2.92,0,0,1-1.16,1,3.12,3.12,0,0,1,1.7,1,2.92,2.92,0,0,1,.64,2,3.6,3.6,0,0,1-.52,1.95,3.68,3.68,0,0,1-1.45,1.34,4.58,4.58,0,0,1-2.13.49Zm.84-7.36h3a2.34,2.34,0,0,0,1.49-.45,1.61,1.61,0,0,0,.59-1.36,1.57,1.57,0,0,0-.59-1.35,2.34,2.34,0,0,0-1.49-.44h-3Zm0,5.82h3.32a3.11,3.11,0,0,0,1.3-.25,2.11,2.11,0,0,0,.88-.76,2.25,2.25,0,0,0,.32-1.23,1.94,1.94,0,0,0-.32-1.14,2,2,0,0,0-.88-.67,3.28,3.28,0,0,0-1.3-.24h-3.32Z"/><path class="cls-8" d="M490.12,147a4.82,4.82,0,0,1-2.36-.57,4.12,4.12,0,0,1-1.61-1.57,4.44,4.44,0,0,1-.59-2.29,4.75,4.75,0,0,1,.55-2.31,4.05,4.05,0,0,1,1.53-1.57,4.36,4.36,0,0,1,2.24-.57,4.11,4.11,0,0,1,2.15.55,3.64,3.64,0,0,1,1.36,1.52,5,5,0,0,1,.48,2.24.66.66,0,0,1-.21.5.76.76,0,0,1-.53.2h-6.45v-1.28h6.4l-.65.45a3.54,3.54,0,0,0-.32-1.44,2.49,2.49,0,0,0-.87-1,2.44,2.44,0,0,0-1.36-.36,2.87,2.87,0,0,0-1.56.4,2.52,2.52,0,0,0-1,1.09,3.52,3.52,0,0,0-.34,1.58,3.13,3.13,0,0,0,.4,1.57,3,3,0,0,0,1.11,1.09,3.26,3.26,0,0,0,1.61.4,3.16,3.16,0,0,0,1-.19A3.29,3.29,0,0,0,492,145a.92.92,0,0,1,.52-.19.73.73,0,0,1,.49.17.76.76,0,0,1,.28.53.53.53,0,0,1-.25.49,4.3,4.3,0,0,1-1.35.71A4.91,4.91,0,0,1,490.12,147Z"/><path class="cls-8" d="M499.59,147a4.44,4.44,0,0,1-2.28-.58,4.18,4.18,0,0,1-1.56-1.59,4.46,4.46,0,0,1-.57-2.26,4.56,4.56,0,0,1,.56-2.3,4,4,0,0,1,1.53-1.58,4.36,4.36,0,0,1,2.24-.57,4.09,4.09,0,0,1,1.73.36,4.23,4.23,0,0,1,1.41,1.08.59.59,0,0,1,.16.53.84.84,0,0,1-.35.48.6.6,0,0,1-.5.1.91.91,0,0,1-.49-.28,2.61,2.61,0,0,0-2-.83,2.76,2.76,0,0,0-1.44.38,2.59,2.59,0,0,0-1,1,3.26,3.26,0,0,0-.35,1.58,3.14,3.14,0,0,0,.36,1.53,2.71,2.71,0,0,0,1,1.07,2.77,2.77,0,0,0,1.48.39,3.3,3.3,0,0,0,1-.13,2.34,2.34,0,0,0,.77-.43.92.92,0,0,1,.53-.23.61.61,0,0,1,.48.15.82.82,0,0,1,.31.51.6.6,0,0,1-.2.5A4.06,4.06,0,0,1,499.59,147Z"/><path class="cls-8" d="M506,146.93a.78.78,0,0,1-.57-.22.74.74,0,0,1-.22-.57V135.22a.75.75,0,0,1,.79-.79.73.73,0,0,1,.56.22.74.74,0,0,1,.22.57v10.92a.74.74,0,0,1-.22.57A.77.77,0,0,1,506,146.93Zm.75-3.2-1-1.09,4.91-4.38a.71.71,0,0,1,.53-.21.7.7,0,0,1,.51.25.71.71,0,0,1,.21.53.75.75,0,0,1-.26.51Zm5,3.12a.75.75,0,0,1-.57.18.73.73,0,0,1-.52-.28l-3.25-4,1.12-1.06,3.33,4.09a.81.81,0,0,1,.19.56A.79.79,0,0,1,511.74,146.85Z"/><path class="cls-8" d="M517.8,146.58a.75.75,0,0,1-.57,0,.87.87,0,0,1-.42-.41l-3.66-7a.63.63,0,0,1,0-.58.77.77,0,0,1,.42-.41.73.73,0,0,1,.58,0,.7.7,0,0,1,.41.4l3.51,7a1.08,1.08,0,0,1,.12.59A.55.55,0,0,1,517.8,146.58Zm-1.89,4.19a.93.93,0,0,1-.38-.1.67.67,0,0,1-.38-1l4.88-11a.68.68,0,0,1,1-.38.66.66,0,0,1,.4,1l-4.89,11A.67.67,0,0,1,515.91,150.77Z"/><rect class="cls-8" x="599.48" y="561.46" width="114.74" height="1"/><rect class="cls-8" x="877.65" y="566.13" width="15.77" height="1"/><g class="cls-11"><circle class="cls-12" cx="65.92" cy="45.67" r="6.65"/><circle class="cls-12" cx="65.9" cy="68.59" r="14.65"/></g><path class="cls-4" d="M65.4,73.09A20.78,20.78,0,1,1,86.17,52.32,20.8,20.8,0,0,1,65.4,73.09Zm0-40.55A19.78,19.78,0,1,0,85.17,52.32,19.8,19.8,0,0,0,65.4,32.54Z"/><circle class="cls-4" cx="115.4" cy="52.32" r="20.27"/><g class="cls-13"><circle class="cls-5" cx="115.92" cy="45.67" r="6.65"/><circle class="cls-5" cx="115.9" cy="68.59" r="14.65"/></g><path class="cls-4" d="M115.4,73.09a20.78,20.78,0,1,1,20.77-20.77A20.8,20.8,0,0,1,115.4,73.09Zm0-40.55a19.78,19.78,0,1,0,19.77,19.78A19.8,19.8,0,0,0,115.4,32.54Z"/><circle class="cls-4" cx="165.4" cy="52.32" r="20.27"/><g class="cls-14"><circle class="cls-6" cx="165.92" cy="45.67" r="6.65"/><circle class="cls-6" cx="165.9" cy="68.59" r="14.65"/></g><path class="cls-4" d="M165.4,73.09a20.78,20.78,0,1,1,20.77-20.77A20.8,20.8,0,0,1,165.4,73.09Zm0-40.55a19.78,19.78,0,1,0,19.77,19.78A19.8,19.8,0,0,0,165.4,32.54Z"/><circle class="cls-4" cx="215.4" cy="52.32" r="20.27"/><g class="cls-15"><circle class="cls-16" cx="215.92" cy="45.67" r="6.65"/><circle class="cls-16" cx="215.9" cy="68.59" r="14.65"/></g><path class="cls-4" d="M215.4,73.09a20.78,20.78,0,1,1,20.77-20.77A20.8,20.8,0,0,1,215.4,73.09Zm0-40.55a19.78,19.78,0,1,0,19.77,19.78A19.8,19.8,0,0,0,215.4,32.54Z"/><circle class="cls-4" cx="265.4" cy="52.32" r="20.27"/><g class="cls-17"><circle class="cls-18" cx="265.92" cy="45.67" r="6.65"/><circle class="cls-18" cx="265.9" cy="68.59" r="14.65"/></g><path class="cls-4" d="M265.4,73.09a20.78,20.78,0,1,1,20.77-20.77A20.8,20.8,0,0,1,265.4,73.09Zm0-40.55a19.78,19.78,0,1,0,19.77,19.78A19.8,19.8,0,0,0,265.4,32.54Z"/><polygon class="cls-19" points="562.8 213.08 562.8 185.49 593.26 185.49 593.26 205.47 568.84 205.47 562.8 213.08"/><path class="cls-19" d="M562.8,213.58l-.16,0a.51.51,0,0,1-.34-.48V185.49a.5.5,0,0,1,.5-.5h30.46a.5.5,0,0,1,.5.5v20a.5.5,0,0,1-.5.5H569.08l-5.89,7.42A.47.47,0,0,1,562.8,213.58Zm.5-27.59v25.66l5.14-6.49a.51.51,0,0,1,.39-.19h23.93V186Z"/><path class="cls-3" d="M587,193H569a1,1,0,0,1,0-2h18a1,1,0,0,1,0,2Z"/><path class="cls-3" d="M587,199.87H569a1,1,0,0,1,0-2h18a1,1,0,0,1,0,2Z"/><polygon class="cls-3" points="1108.39 352.09 1108.39 324.49 1138.85 324.49 1138.85 344.47 1114.42 344.47 1108.39 352.09"/><path class="cls-4" d="M1108.39,353.09a1,1,0,0,1-.33-.06,1,1,0,0,1-.67-.94v-27.6a1,1,0,0,1,1-1h30.46a1,1,0,0,1,1,1v20a1,1,0,0,1-1,1H1114.9l-5.73,7.24A1,1,0,0,1,1108.39,353.09Zm1-27.6v23.72l4.25-5.36a1,1,0,0,1,.78-.38h23.43v-18Z"/><path class="cls-4" d="M1132.62,332h-18a1,1,0,0,1,0-2h18a1,1,0,0,1,0,2Z"/><path class="cls-4" d="M1132.62,338.87h-18a1,1,0,0,1,0-2h18a1,1,0,0,1,0,2Z"/><circle class="cls-4" cx="339.51" cy="53.96" r="20.27"/><circle class="cls-3" cx="1134.38" cy="711.1" r="20.27"/><path class="cls-4" d="M1134.38,732.38a21.28,21.28,0,1,1,21.27-21.28A21.3,21.3,0,0,1,1134.38,732.38Zm0-40.55a19.28,19.28,0,1,0,19.27,19.27A19.29,19.29,0,0,0,1134.38,691.83Z"/><path class="cls-3" d="M329.77,63.68s-.6-14.31,14.06-14.35V44.81l9.5,7.07L343.91,59v-4.6S331.73,53.58,329.77,63.68Z"/><path class="cls-3" d="M329.77,64.18h0a.51.51,0,0,1-.46-.48c0-.26-.22-6.53,3.94-10.88,2.43-2.54,5.83-3.88,10.12-4v-4a.5.5,0,0,1,.27-.45.51.51,0,0,1,.52,0l9.5,7.07a.52.52,0,0,1,.21.4.52.52,0,0,1-.2.4l-9.42,7.15a.47.47,0,0,1-.52,0,.49.49,0,0,1-.28-.44V54.92a18.86,18.86,0,0,0-5.71.84c-4.16,1.33-6.67,4-7.44,8A.49.49,0,0,1,329.77,64.18ZM344.33,45.8v3.53a.51.51,0,0,1-.5.5c-4.24,0-7.56,1.24-9.89,3.67a13.43,13.43,0,0,0-3.22,6.27c3.9-6.39,13.12-5.84,13.23-5.83a.49.49,0,0,1,.46.5V58l8.08-6.15Z"/><path class="cls-4" d="M1134.39,722.56a1,1,0,0,1-1-1V700.72a1,1,0,0,1,2,0v20.84A1,1,0,0,1,1134.39,722.56Z"/><path class="cls-4" d="M1144.8,712.14H1124a1,1,0,0,1,0-2h20.83a1,1,0,0,1,0,2Z"/><circle class="cls-3" cx="1075.38" cy="711.1" r="20.27"/><path class="cls-4" d="M1075.38,732.38a21.28,21.28,0,1,1,21.27-21.28A21.3,21.3,0,0,1,1075.38,732.38Zm0-40.55a19.28,19.28,0,1,0,19.27,19.27A19.29,19.29,0,0,0,1075.38,691.83Z"/><path class="cls-4" d="M1085.8,712.14H1065a1,1,0,0,1,0-2h20.83a1,1,0,0,1,0,2Z"/><path class="cls-4" d="M1134.71,399H1113.4a1,1,0,0,1-1-1V372.35a1,1,0,0,1,1-1h11a1,1,0,0,1,.69.28l10.32,9.92a1,1,0,0,1,.3.72V398A1,1,0,0,1,1134.71,399Zm-20.31-2h19.31V382.69l-9.71-9.34h-9.6Z"/><path class="cls-4" d="M1134.79,383.42h-10.22a1,1,0,0,1-1-1v-10a1,1,0,0,1,2,0v9h9.22a1,1,0,0,1,0,2Z"/><path class="cls-5" d="M1112.17,277.46l24.72,13.74a46.17,46.17,0,0,0-9.85,5.3,51.14,51.14,0,0,0-7.73,8.27Z"/><path class="cls-4" d="M1140.23,447h-31.15a1,1,0,0,1-1-1V421a1,1,0,0,1,1-1h31.15a1,1,0,0,1,1,1V446A1,1,0,0,1,1140.23,447Zm-30.15-2h29.15V422h-29.15Z"/><polygon class="cls-4" points="1109.96 440.34 1120.02 428.81 1135.11 445.96 1109.67 445.96 1109.96 440.34"/><path class="cls-4" d="M1135.1,446.46h-25.43a.48.48,0,0,1-.36-.15.48.48,0,0,1-.14-.37l.29-5.62a.53.53,0,0,1,.13-.31l10.05-11.53a.5.5,0,0,1,.38-.17h0a.48.48,0,0,1,.37.17l15.09,17.15a.51.51,0,0,1,.08.54A.5.5,0,0,1,1135.1,446.46Zm-24.9-1H1134l-14-15.89-9.57,11Z"/><polygon class="cls-4" points="1127.02 437.98 1131.16 433.15 1140.13 443.2 1140.13 445.96 1127.12 445.96 1127.02 437.98"/><path class="cls-4" d="M1140.13,446.46h-13a.49.49,0,0,1-.5-.49l-.1-8a.5.5,0,0,1,.12-.33l4.14-4.83a.42.42,0,0,1,.38-.17.51.51,0,0,1,.37.16l9,10.06a.5.5,0,0,1,.12.33V446A.5.5,0,0,1,1140.13,446.46Zm-12.52-1h12v-2.07l-8.46-9.48-3.65,4.25Z"/><circle class="cls-4" cx="1134.52" cy="427.02" r="2.51"/><path class="cls-8" d="M1004,718.4a4.06,4.06,0,0,1-2.08-.54,3.91,3.91,0,0,1-1.45-1.46,4.06,4.06,0,0,1-.54-2.08.82.82,0,0,1,.23-.59.78.78,0,0,1,.57-.23.82.82,0,0,1,.59.23.79.79,0,0,1,.24.59,2.53,2.53,0,0,0,.32,1.25,2.47,2.47,0,0,0,.88.88,2.44,2.44,0,0,0,1.24.32,2.47,2.47,0,0,0,1.25-.32,2.37,2.37,0,0,0,.87-.88,2.62,2.62,0,0,0,0-2.51,2.27,2.27,0,0,0-.87-.87,2.47,2.47,0,0,0-1.25-.32h-2.68a.78.78,0,0,1-.57-.23.82.82,0,0,1-.23-.59v-4.32a.84.84,0,0,1,.23-.59.75.75,0,0,1,.57-.24h5.35a.79.79,0,0,1,.57.25.82.82,0,0,1,.24.58.78.78,0,0,1-.23.57.8.8,0,0,1-.58.23h-4.53v2.71H1004a4.1,4.1,0,0,1,2.08.53,4,4,0,0,1,2,3.55,4.06,4.06,0,0,1-.54,2.08,3.86,3.86,0,0,1-1.46,1.46A4,4,0,0,1,1004,718.4Z"/><path class="cls-8" d="M1013.59,718.4a3,3,0,0,1-2.07-.75,4.63,4.63,0,0,1-1.31-2.14,13.13,13.13,0,0,1,0-6.74,4.68,4.68,0,0,1,1.31-2.14,3,3,0,0,1,2.07-.74,3,3,0,0,1,2.07.76,4.7,4.7,0,0,1,1.31,2.16,12.86,12.86,0,0,1,0,6.67,4.81,4.81,0,0,1-1.31,2.16A3,3,0,0,1,1013.59,718.4Zm0-1.67a1.5,1.5,0,0,0,1.22-.6,4,4,0,0,0,.72-1.64,11.63,11.63,0,0,0,0-4.7,4.2,4.2,0,0,0-.72-1.65,1.53,1.53,0,0,0-2.44,0,4.09,4.09,0,0,0-.72,1.64,10.67,10.67,0,0,0-.24,2.37,10.55,10.55,0,0,0,.24,2.37,4,4,0,0,0,.73,1.63A1.5,1.5,0,0,0,1013.59,716.73Z"/><path class="cls-8" d="M1021.85,712.29a3.06,3.06,0,0,1-1.61-.44,3.39,3.39,0,0,1-1.16-1.16,3,3,0,0,1-.43-1.59,3.06,3.06,0,0,1,.43-1.59,3.42,3.42,0,0,1,1.16-1.17,3.15,3.15,0,0,1,3.21,0,3.48,3.48,0,0,1,1.15,1.17,3.06,3.06,0,0,1,.43,1.59,3,3,0,0,1-.43,1.59,3.45,3.45,0,0,1-1.15,1.16A3.06,3.06,0,0,1,1021.85,712.29Zm-1,6.11a.79.79,0,0,1-.59-.24.82.82,0,0,1-.23-.58.76.76,0,0,1,.19-.54l8.42-10.82a1.18,1.18,0,0,1,.31-.24.84.84,0,0,1,.34-.08.81.81,0,0,1,.6.24.8.8,0,0,1,.06,1.08l-8.5,10.92A.79.79,0,0,1,1020.89,718.4Zm1-7.75a1.49,1.49,0,0,0,.78-.2,1.61,1.61,0,0,0,.56-.57,1.52,1.52,0,0,0,.21-.78,1.39,1.39,0,0,0-.22-.78,1.56,1.56,0,0,0-.57-.57,1.46,1.46,0,0,0-.76-.22,1.58,1.58,0,0,0-.8.22,1.58,1.58,0,0,0-.77,1.35,1.52,1.52,0,0,0,.21.78,1.46,1.46,0,0,0,.56.57A1.56,1.56,0,0,0,1021.85,710.65Zm6.49,7.75a3.06,3.06,0,0,1-1.59-.43,3.3,3.3,0,0,1-1.16-1.16,3.19,3.19,0,0,1,0-3.2,3.33,3.33,0,0,1,1.15-1.15,3.21,3.21,0,0,1,3.19,0,3.31,3.31,0,0,1,1.17,1.15,3.15,3.15,0,0,1,0,3.21,3.3,3.3,0,0,1-1.16,1.16A3,3,0,0,1,1028.34,718.4Zm0-1.63a1.53,1.53,0,0,0,.79-.21,1.56,1.56,0,0,0,.57-.57,1.51,1.51,0,0,0,.21-.77,1.53,1.53,0,0,0-.21-.79,1.61,1.61,0,0,0-.57-.56,1.53,1.53,0,0,0-.79-.21,1.49,1.49,0,0,0-.77.21,1.61,1.61,0,0,0-.57.56,1.53,1.53,0,0,0-.21.79,1.51,1.51,0,0,0,.21.77,1.56,1.56,0,0,0,.57.57A1.49,1.49,0,0,0,1028.34,716.77Z"/><polygon class="cls-6" points="984.19 55.08 982.19 55.08 982.19 47.89 938.82 47.89 938.82 55.07 936.82 55.07 936.82 45.89 984.19 45.89 984.19 55.08"/></g></svg>